<?xml version="1.0" encoding="utf-8"?>
<!-- Generator: Adobe Illustrator 30.2.1, SVG Export Plug-In . SVG Version: 9.03 Build 0)  -->
<svg version="1.1" id="Layer_1" xmlns="http://www.w3.org/2000/svg" xmlns:xlink="http://www.w3.org/1999/xlink" x="0px" y="0px"
	 viewBox="0 0 460.5 364.5" style="enable-background:new 0 0 460.5 364.5;" xml:space="preserve">
<g>
	<rect style="fill:#FEFEFE;" width="460.5" height="364.5"/>
	<path style="fill:#004680;" d="M233.7,204.95c3.01,0.79,6.3,1.26,9.88,1.42c2.43,1.01,5.14,1.35,8.14,1.03
		c0.86,0.72,0.7,1.35-0.26,1.88l-12.32,0.85c-1.57,0.54-5.82-0.24-6.19,2.43l-2,14.5c-1.84,13.39,0.66,27.14,2.66,40.77
		c-1.34-0.12-1.15-2.1-2.78-2.01c-1.17,4.5,7.55,12.68,1.23,15.27c-12.71-20.79-12.19-45.62-11.57-67.79
		c-1.06-0.01-1.73-0.58-2.02-1.71l-2.06,0.21c-2.42,0.96-4.92,1.21-7.49,0.75c0.18,0.53-0.32,0.77-1.5,0.75c-0.68,0.8-2.02,0.4-3,0
		c0.11,0.57-0.39,0.82-1.5,0.75c-0.57,0.42-1.32,0.42-2.25,0c0.13,0.61-0.37,0.86-1.5,0.75c-0.55,0.87-1.55,0.87-3,0
		c0.99,1,0.56,1.32-0.75,0.75c-0.04,0.8-0.67,0.91-1.88,0.34l-1.86,0.41c0.62,0.21,0.68,0.53,0.17,0.95
		c0.05,0.14-0.03,0.32-0.02,0.47c0.03,0.56-0.52,0.69-1.65,0.37c-1.26,0.1-2.52,0.13-3.74,0.36c0.27,0.76-0.87,0.51-1.56,0.3
		c-0.47,1.07-15.4,1-14.79-0.32c-1.04-0.89-2.55-1.22-3.82-0.68c-1.29-0.99-2.9-1.58-4.53-1.62l-1.64-0.44
		c-1.31-0.76-1.84-2.27-3.08-3.35c-0.59-0.52-2.11-0.15-2.06-1.21l0.79-0.81l-3.13-2.25c-0.27-0.43-0.55-0.98-0.61-1.5
		c-0.25-1.01-0.75-1.76-1.5-2.25c-0.65-0.21-0.64-0.46,0-0.75l-0.75-0.75c-0.86-0.16-0.96-1.31,0-1.5l-0.75-0.75
		c-0.45-0.1-0.53-0.6-0.23-1.5c0.22-0.34,0.01-1.08,0.06-1.5l-0.62-3.74c1.62-6.6-3.67-3.15,0.54-19.66
		c8.47-33.23,27.45-62.14,53.25-84.5c11.68-10.12,30.95-12.51,41.03,1.17c7.7,10.45,8.35,22.8,5.03,35.11
		C241.03,152.09,234.84,178.42,233.7,204.95z"/>
	<path style="fill:#004680;" d="M229.16,296.69c20.57-1.79,39.68-7.56,56.77-18.33c3.31-2.09,6.68-2.8,10.03-4.38
		c6.63-3.11,11-9.3,16.99-13.54c-5.69,11.27-24.83,22.59-35.97,27.46c-4.03,1.76-8.3,2.33-12.21,4.45
		c-10.77,5.86-22.58,7.52-34.85,8.74c-27.15,2.71-58.19-8.86-79.6-25.47c-32.17-24.95-47.8-64.65-43.83-104.76
		c0.95-9.56,2.69-17.39,5.66-26.44c6.16-18.78,16.55-34.9,31.27-48.21c6.76-6.11,13.74-9.92,21.54-14.42
		c49.99-28.85,109.33-18.47,147.37,24.43c7.45,8.4,13.8,17.43,18.7,27.59c5.05,10.48,13.31,38.53,6.88,49.78
		c-1.59-25.47-14.3-54.63-30.89-74.24c-7.65-9.05-17.17-15.48-27.04-21.7c-6.32-3.99-12.73-6.22-19.55-8.94
		c-27.71-11.05-55.69-10.07-82.77,2.24c-37.26,16.94-62.68,52.39-65.85,93.47c-2.01,26.03,4.84,49.73,18.83,71.58
		c15.14,23.65,38.71,40.09,65.93,46.98C207.4,295.71,217.64,297.69,229.16,296.69z"/>
	<path style="fill:#2A6494;" d="M244.64,205.28c1.05,0.23,0.99,0.26,0.02,0.63c3.92,0.19,7.73,0.41,11.42,0.66
		c1.5-0.35,2.5-0.11,3,0.75c4.01,0.6,8.1,0.61,12.24,0l0.49,0.74c0.02,0.52,0.04,1.19-0.25,1.52c-0.57,0.65-8.89,0.44-8.65,0.47
		c-7.08-0.78-16.26,0.56-23.77,0.08c2.98-1.03,8.58-1.29,12.4-1.56c-2.24-1.44-5.39,0.36-7.98-0.89c-5.99-2.89-10,0.53-9.86-2.74
		L244.64,205.28z"/>
	<path style="fill:#5E89AE;" d="M220.48,213.31c-3.26,0.92-6.7,1.37-10.08,1.62c-1.1,0.19-2.43-0.72-3-1.62
		c0.13-0.66,0.93-0.69,1.5-0.75c1.69,0.36,3.44,0.36,5.24,0c0.52,0.3,0.97,0.26,1.5,0c1.25-0.4,1.5-0.65,0.75-0.75
		c0.66-0.25,1.57-0.95,2.62-0.83C220.15,211.12,220.52,212.08,220.48,213.31z"/>
	<path style="fill:#8AAAC4;" d="M277.8,205.83c0.42,0.35,0.17,0.59-0.75,0.75c0.37,1.34-0.52,1.75-1.5,0.75
		c-0.89,0.26-1.89,0.51-3,0.75h-0.75l-11.27,0.01c-0.77,0-1.51-0.18-1.46-0.76l0.34-0.75c3.48,0.45,6.86,0.45,10.15,0
		c1.61-0.21,3.35-0.45,5.24-0.75c-0.65-0.21-0.64-0.46,0-0.75C275.88,205.08,277.01,204.97,277.8,205.83z"/>
	<path style="fill:#DCE5ED;" d="M301.07,213.98l-2.3-0.66c-0.36-0.38-0.48-0.39-0.75,0.06c-0.8,0.02-1.5-0.3-2.18-0.66
		c-0.71,0.4-1.2,0.36-1.45-0.14l-0.11-0.75c0.12-0.63,1.1-0.55,1.5,0c0.79-0.39,2.05-0.76,3-0.75c2.07,0.16,4.87,1.12,6.51,2.31
		C303.66,214.14,302.36,214.22,301.07,213.98z"/>
	<path style="fill:#7298B8;" d="M288.28,210.32c0.32,0.2,0.29,0.45,0,0.75c0.55,0.52,0.97,0.51,1.5,0c0.22-0.59,0.47-0.58,0.75,0
		c0.21-0.64,1.14-0.57,1.5,0c0.65,0.21,0.64,0.46,0,0.75c-0.14,0.48,0.11,0.48,0.75,0c0.21-0.65,0.46-0.64,0.75,0l0.86,0.75
		c0.43,0.15,1.05-0.08,1.45,0.14c-1.79,2.36-9.55-1.27-13.61-0.96c0.12-1.4,0.98-0.7,1.56-0.68c0.67-0.24,1.42-0.49,2.25-0.75
		C285.83,209.25,287.46,209.81,288.28,210.32z"/>
	<path style="fill:#ECF0F5;" d="M283.04,207.32c0.19-0.62,1.1-0.54,1.5,0c1.03,0.79-0.92,1.38-1.73,1.33
		c-0.22-0.01,3.47-1.71,3.23,0.17c1.99-0.21,3.24,0.04,3.74,0.75c0.54,0.19,0.79,0.44,0.75,0.75c0.65,0.21,0.64,0.46,0,0.75h-0.75
		c-0.22,0.48-0.47,0.47-0.75,0l-0.75-0.75h-2.25c-0.72,0.48-1.65,0.68-2.25,0c-1.78-1.24-4.04-0.68-5.99-1.5
		c-0.65-0.21-0.64-0.46,0-0.75c1.28-0.62,2.53-0.87,3.74-0.75C281.52,206.24,282.54,206.46,283.04,207.32z"/>
	<path style="fill:#1C598D;" d="M263.57,204.33c0.65,0.21,0.64,0.46,0,0.75c-0.24,0.6-1.13,0.54-1.5,0
		c-5.38,0.67-11.84,0.63-17.44,0.21c-0.05-0.33,0.31-0.96,1-0.96L263.57,204.33z"/>
	<path style="fill:#246091;" d="M149.01,200.59l0.75,0.75v1.5l0.75,0.75v0.75c1.09,0.26,1.33,1.39,0.75,2.25
		c-0.15,1.22-0.94,0.45-1.03-0.44c-0.88-2.46-2.82-4.88-1.44-7.05L149.01,200.59z"/>
	<path style="fill:#86A6C2;" d="M199.18,214.81c1.22-0.47,2.78,0.15,3,1.5c-0.42,0.35-0.93,0.75-1.5,0.75
		c-0.91-0.17-1.66-0.42-2.25-0.75c-1.1,0.04-2.61-0.33-2.25-1.5C197.06,215.09,198.34,214.41,199.18,214.81z"/>
	<path style="fill:#4F7EA6;" d="M200.67,214.06c2.17,0.18,3.66,0.93,4.49,2.25h-3c-0.89-0.67-2-1.02-3-1.5
		C199.32,214.18,200.09,213.97,200.67,214.06z"/>
	<path style="fill:#A3BBD0;" d="M207.41,213.31c1.1,0.29,2.33,0.71,3,1.62c-0.45,0.04-0.94,0.75-1.5,0.63
		c-2.35-0.36-3.85-1.11-4.49-2.25C205.38,213.46,206.48,213.06,207.41,213.31z"/>
	<path style="fill:#5583A9;" d="M204.42,213.31c1.19,1.42,3.58,0.44,4.49,2.25c-0.69-0.16-1.59,0.26-2.25,0
		c-1.18,0.56-3.3-0.43-3.74-1.5C203.06,213.43,203.84,213.22,204.42,213.31z"/>
	<path style="fill:#A4BCD1;" d="M202.92,214.06l3.74,1.5c-0.15,0.69-0.9,0.75-1.5,0.75l-4.49-2.25
		C201.37,214.17,202.27,213.8,202.92,214.06z"/>
	<path style="fill:#CCD9E5;" d="M293.52,208.82v0.75c0.65,0.21,0.64,0.46,0,0.75c0.68,0.08,0.64,0.34,0,0.75
		c0.66,0.14,0.64,0.39,0,0.75h-0.75c-0.22,0.51-0.47,0.5-0.75,0v-0.75l-1.5-0.75c-0.39-0.11-0.87-0.25-0.75-0.75l2.25-0.75
		C292.18,208.15,292.94,208.46,293.52,208.82z"/>
	<path style="fill:#A5BDD1;" d="M286.78,207.32l-0.75,0.75c0.67,0.18,0.66,0.43,0,0.75c-1.24-0.17-2.58,0.41-3.78-0.36
		c1.04-0.58,1.81-0.53,2.28-1.13c-0.47-0.32-0.22-0.57,0.75-0.75C285.91,206.57,286.29,207.17,286.78,207.32z"/>
	<path style="fill:#A2BBD0;" d="M290.53,208.07c0.21,0.31-0.04,0.56-0.75,0.75c0.66,0.14,0.64,0.39,0,0.75
		c-1.31,0.08-2.75,0.25-3.74-0.75l2.25-0.75c-0.38-0.36-0.13-0.61,0.75-0.75C289.59,207.44,290.11,207.68,290.53,208.07z"/>
	<path style="fill:#81A3BF;" d="M269.56,205.08l-0.75,0.75c-0.99,0.66-2.82,0.6-3-0.75c-0.65-0.21-0.64-0.46,0-0.75
		C267.13,204.33,268.56,204.07,269.56,205.08z"/>
	<path style="fill:#BCCEDD;" d="M277.05,206.57c0.65,0.21,0.64,0.46,0,0.75l0.75,0.75v0.75c-0.4-0.17-1.06,0.03-1.5,0
		c-0.64-0.11-0.89-0.36-0.75-0.75c-0.65-0.21-0.64-0.46,0-0.75C275.97,207.08,276.47,206.55,277.05,206.57z"/>
	<path style="fill:#B7CADA;" d="M155.75,210.32c-0.18,0.51-0.44,0.48-0.75,0c-1.03-0.44-1.79-1.31-2.38-2.25
		C154.01,208.09,155.35,208.95,155.75,210.32z"/>
	<path style="fill:#6690B2;" d="M195.43,215.56c0.65,0.21,0.64,0.46,0,0.75c0.65,0.21,0.64,0.46,0,0.75h-0.75
		c-0.19-0.3-0.49-0.51-0.75-0.75c-0.75,0.51-1.79,0.82-2.25,0C192.37,215.02,194.18,215.65,195.43,215.56z"/>
	<path style="fill:#B7CADA;" d="M170.09,218.43l-3.82-0.68c0.12-0.82,1.21-0.8,1.79-0.72C168.88,217.16,170.12,217.45,170.09,218.43
		z"/>
	<path style="fill:#E7EDF2;" d="M148.83,197.59c-0.73-0.83-0.9-2.61-0.62-3.74C149.61,194.44,148.96,196.37,148.83,197.59z"/>
	<path style="fill:#396E9B;" d="M293.52,208.82h-1.5c-0.65,0.46-1.67,0.64-2.25,0c0.06-0.39,0.38-0.66,0.75-0.75
		C291.55,208.11,293.04,207.71,293.52,208.82z"/>
	<path style="fill:#2F6896;" d="M280.79,205.83c0.65,0.21,0.64,0.46,0,0.75c-0.21,0.65-0.46,0.64-0.75,0c-0.94,0.34-2.21,0.77-3,0
		l0.75-0.75H280.79z"/>
	<path style="fill:#759AB9;" d="M283.04,206.57c0.65,0.21,0.64,0.46,0,0.75h-1.5c-0.95,0.27-1.3,0.12-0.75-0.75v-0.75
		C281.62,205.83,282.46,205.92,283.04,206.57z"/>
	<path style="fill:#BECFDE;" d="M298.76,211.07c-0.8,0.37-1.91,1.17-3,0.75c-0.65-0.21-0.64-0.46,0-0.75
		c0.65-0.28,1.4-0.53,2.25-0.75C298.38,210.43,298.68,210.69,298.76,211.07z"/>
	<path style="fill:#98B3CB;" d="M198.43,217.05c0,0.85-0.9,0.7-1.5,0.75l-1.5-0.75v-0.75C196.02,215.06,197.6,216.02,198.43,217.05z
		"/>
	<path style="fill:#2A6494;" d="M289.03,207.32l-0.75,0.75c-0.95,0.51-1.7,0.51-2.25,0c-0.08-0.49,0.25-0.84,0.75-0.75
		C287.47,207.53,288.32,207.18,289.03,207.32z"/>
	<path style="fill:#A8BFD3;" d="M152,206.57h-0.75c-0.09-0.79-0.35-1.55-0.75-2.25c0.58-0.14,1.19-0.02,1.4,0.48
		C152.16,205.44,151.94,206.03,152,206.57z"/>
	<path style="fill:#7FA2BE;" d="M275.55,208.07c0.37,0,0.66,0.43,0.75,0.75c-1.01-0.07-2.51,0.42-3-0.75
		C273.57,207.43,275.02,207.53,275.55,208.07z"/>
	<path style="fill:#18568B;" d="M274.8,205.08v0.75c-0.91,0.44-2.24,0.8-3,0c-0.65-0.21-0.64-0.46,0-0.75H274.8z"/>
	<path style="fill:#4B7CA4;" d="M271.81,205.08v0.75c-0.36,0.65-2.3,0.53-3,0c0.15-0.34,0.41-0.6,0.75-0.75H271.81z"/>
	<path style="fill:#E9EEF3;" d="M275.55,207.32v0.75h-2.25h-0.75C273.03,206.92,274.54,207.43,275.55,207.32z"/>
	<path style="fill:#F1F4F7;" d="M298.01,210.32c-0.3,0.95-1.44,0.75-2.25,0.75c-0.64-0.19-0.63-0.44,0-0.75H298.01z"/>
	<path style="fill:#C2D2E0;" d="M301.07,213.98c-0.79-0.15-1.8,0.3-2.3-0.66C299.47,213.43,300.99,212.94,301.07,213.98z"/>
	<path style="fill:#4678A1;" d="M265.82,204.33v0.75c0.01,1.19-1.2,1.14-1.5,0h-0.75v-0.75H265.82z"/>
	<path style="fill:#276292;" d="M285.29,206.57c-0.18,0.31-0.54,0.47-0.75,0.75h-1.5v-0.75H285.29z"/>
	<path style="fill:#376D9A;" d="M286.03,210.32c-0.34,0.91-1.43,0.78-2.25,0.75v-0.75C284.4,210.5,285.37,210.32,286.03,210.32z"/>
	<path style="fill:#094C84;" d="M193.93,216.3c-0.31,0.85-1.24,1.06-2.07,0.95c-0.1-0.31-0.22-0.62-0.17-0.95H193.93z"/>
	<path style="fill:#EDF1F5;" d="M295.77,210.32c-0.22,0.65-1.72,0.54-2.25,0v-0.75C294.32,209.55,295.59,209.27,295.77,210.32z"/>
	<path style="fill:#2B6494;" d="M200.67,217.05h-2.25c-0.44-0.22-0.43-0.47,0-0.75C199.16,216.57,200.31,216.04,200.67,217.05z"/>
	<path style="fill:#2F6796;" d="M196.93,217.8c-0.85,0.06-1.74,0.06-2.25-0.75h0.75C196.03,217.05,196.75,217.14,196.93,217.8z"/>
	<path style="fill:#145489;" d="M191.85,217.73c1.23,0.47,0.07,1-0.54,0.89c-0.4-0.07-0.82-0.52-1.12-0.52L191.85,217.73z"/>
	<path style="fill:#064A82;" d="M186.45,218.46c0.24-0.1,0.93,0.42,0.66,0.61c-0.93,0.64-1.71,0.08-2.22-0.31L186.45,218.46z"/>
	<path style="fill:#0D4F85;" d="M161.74,216.14c-0.74-0.02-1.03-0.08-1.64-0.44C160.64,215.72,161.55,215.43,161.74,216.14z"/>
	<path style="fill:#DCE5ED;" d="M154.96,211.13l0.04-0.81c0.21,0.09,0.52-0.05,0.75,0C155.88,210.78,155.49,211.39,154.96,211.13z"
		/>
	<path style="fill:#BECFDE;" d="M298.76,213.31c-0.24-0.04-0.5,0.05-0.75,0.06C297.98,212.5,298.6,212.44,298.76,213.31z"/>
	<path style="fill:#FEFEFE;" d="M186.87,211.9c-6.76,1.11-12.96,0.95-18.94-0.87c-11.38-3.46-14.4-15.44-12.47-26.31
		c6.07-34.08,26.1-63.58,51.31-86.5c7.71-7.01,21.55-10.51,27.58-0.92c4.75,7.54,6.09,16.45,3.51,25.21
		c-8.09,27.49-13.39,55.18-16.64,83.57c-2.33,1.41-4.64,0.92-7.09,1.33L186.87,211.9z"/>
	<path style="fill:#C0D1DF;" d="M216.4,211.81c0.77,0.07,1.68-0.34,2.31,0.52c-1.31,0.51-2.2,0.11-3.06,0.23
		c-0.5,0.28-0.99,0.31-1.5,0c-1.59,0.73-4.04,1.56-5.24,0L216.4,211.81z"/>
	<path style="fill:#2F6796;" d="M198.43,216.3v0.75c-0.9-0.54-1.95-0.76-3-0.75v-0.75l0.75-0.75
		C196.9,215.24,197.62,216.01,198.43,216.3z"/>
	<path style="fill:#296393;" d="M150.5,203.58c-0.37-0.1-0.62-0.4-0.75-0.75C150.07,203.01,150.33,203.27,150.5,203.58z"/>
	<path style="fill:#296393;" d="M149.76,201.34c-0.33-0.16-0.58-0.42-0.75-0.75C149.38,200.68,149.63,200.98,149.76,201.34z"/>
	<path style="fill:#225E90;" d="M262.07,205.83c0.22-0.49,0.47-0.48,0.75,0c2.12-0.14,4.12,0.11,5.99,0.75
		c0.25-0.47,0.5-0.47,0.75,0c0.06,0.61-0.68,0.75-1.46,0.75l-9.02,0c-1.19,0-2.07-0.31-3-0.75l1.5-0.75
		C258.6,205.23,260.93,205.26,262.07,205.83z"/>
	<path style="fill:#FDFDFD;" d="M262.07,205.08c0.65,0.21,0.64,0.46,0,0.75h-4.49c-4.16,0.58-8.69,0.64-12.92,0.09
		c-0.53-0.14-0.4-0.37-0.02-0.63L262.07,205.08z"/>
	<path style="fill:#004680;" d="M257.58,205.83c-0.24,0.61-0.9,0.77-1.5,0.75c-3.78-0.54-7.86,0.97-11.42-0.66L257.58,205.83z"/>
	<path style="fill:#5784AA;" d="M215.65,212.56l-0.58,0.46c-0.25,0.2-0.68-0.2-0.91-0.46H215.65z"/>
	<path style="fill:#E8EEF3;" d="M271.81,205.83h3c-1.12,1.62-3.52,0.42-5.24,0.75c-0.24,0.04-0.51,0.02-0.75,0
		c-0.65-0.21-0.64-0.46,0-0.75H271.81z"/>
	<path style="fill:#FCFCFD;" d="M295.77,211.07v0.75c-0.45-0.17-1.03,0.1-1.5,0c-0.21,0.36-0.46,0.34-0.75,0
		c-0.06-0.23,0.02-0.51,0-0.75C293.74,210.42,295.25,210.52,295.77,211.07z"/>
	<path style="fill:#BECFDE;" d="M294.38,212.57c-0.36-0.12-0.75-0.37-0.86-0.75c0.25,0,0.51-0.05,0.75,0L294.38,212.57z"/>
	<path style="fill:#FDFDFE;" d="M292.02,211.07h-1.5v-0.75C290.86,210.32,293.56,209.96,292.02,211.07z"/>
	<path style="fill:#245F91;" d="M289.78,211.07c0.1,0.39-0.15,0.67-0.4,0.75c-0.65,0.22-1.22-0.15-1.1-0.75
		c0.23-0.4,0.48-0.39,0.75,0H289.78z"/>
	<path style="fill:#2C6594;" d="M292.77,211.81c0.19,0.3-0.35,0.82-0.58,0.99c-0.22,0.17-0.52-0.19-0.87-0.58
		c-0.18-0.2,0.28-0.51,0.7-0.41H292.77z"/>
	<path style="fill:#CCD9E5;" d="M289.03,211.07h-0.75c0.05-0.24-0.03-0.5,0-0.75C288.65,210.32,288.94,210.74,289.03,211.07z"/>
	<path style="fill:#9CB6CD;" d="M281.54,207.32c-0.99,0.99-2.44,0.85-3.74,0.75c-0.33-0.16-0.75-0.36-0.75-0.75
		c0.93-0.3,1.93-0.55,3-0.75h0.75C281.22,206.57,281.65,206.85,281.54,207.32z"/>
	<path style="fill:#D9E3EB;" d="M263.57,205.08h0.75c0.59,1.32-0.31,1.19-1.5,0.75h-0.75v-0.75H263.57z"/>
	<path style="fill:#A5BDD1;" d="M295.77,210.32c0.04,0.24,0,0.51,0,0.75h-2.25c-0.02-0.25,0-0.5,0-0.75H295.77z"/>
	<path style="fill:#F6F8FA;" d="M292.02,208.82c-0.31,0.99-1.45,0.7-2.25,0.75c0.06-0.24-0.04-0.5,0-0.75H292.02z"/>
	<path style="fill:#F1F4F7;" d="M288.28,208.07c-0.64,0.64-1.36,0.86-2.25,0.75c-0.02-0.25,0.04-0.5,0-0.75H288.28z"/>
	<path style="fill:#A4BCD1;" d="M265.82,205.08c0.9,0.55,1.95,0.75,3,0.75v0.75c-2.03-0.21-4.35,0.7-5.99-0.75
		c0.6,0.02,1.26-0.14,1.5-0.75H265.82z"/>
	<path style="fill:#F5F7F9;" d="M280.04,206.57c-0.77,0.83-1.93,0.88-3,0.75v-0.75H280.04z"/>
</g>
</svg>
