<?xml version="1.0" encoding="utf-8"?>
<!-- Generator: Adobe Illustrator 30.2.1, SVG Export Plug-In . SVG Version: 9.03 Build 0)  -->
<svg version="1.1" id="Layer_1" xmlns="http://www.w3.org/2000/svg" xmlns:xlink="http://www.w3.org/1999/xlink" x="0px" y="0px"
	 viewBox="0 0 460.5 364.5" style="enable-background:new 0 0 460.5 364.5;" xml:space="preserve">
<g>
	<rect style="fill:#FEFEFE;" width="460.5" height="364.5"/>
	<path style="fill:#A9A8AA;" d="M203.81,108.59c0.33,3.85-4.76,9.7-8.46,10.54l-1.67,0.65c-7.68-16.28-24.51-24.06-42.01-24.59
		l-49.07-0.04l-0.48,0.52l0.21,89.83l53.47-0.5c7.07-0.66,14.08-2.69,19.93-6.79l2.35,0.1c1.01-1.82,4.11-5.64,6.34-4.64l1.15-2.66
		c9.28-9.58,12.55-23.14,11.53-36.21l0.91-4.47c0.13-4.92,4.86-11.6,9.39-13.5c3.9,9.33,4.23,19.78,3.38,30.18
		c-1.47,18.14-11.24,33.32-25.98,43.19l-0.33,1.84c-2.03,0.86-4.05,1.44-6.07,1.75c-11.08,4.09-22.36,6.38-34.66,6.36l-43.02-0.06
		l-0.15,70.87c-4.38,0.27-8.09,0.43-12.37-0.07l-0.03-190.3l63.75,0.07c9.73,0.01,18.62,2.15,27.29,5.86
		C189.72,91.29,198.52,98.69,203.81,108.59z"/>
	<path style="fill:#094C84;" d="M300.14,200.67c1.7-0.3,3.24-0.08,4.61,0.66c0.73-0.65,2.84-0.55,3.74,0c3-0.67,7.32-0.61,10.48,0
		c1.59,1.97,0.38,1.95-1.5,0.75c-4.99,0.22-4.99,0.47,0,0.75c2.16-1.69,4.02,0.15,1.5,1.5l-0.57,0.78L307.67,205
		c-3.23,1.04-9-1.29-11.35,1.96c-2.45,3.38-0.2,9.17-1.65,12.86c-0.89,2.26-1.26,3.76-1.21,6.22c0.21,11.26,1.04,21.97,3.1,32.66
		c-1.27-0.75-1.86-2.69-2.88-1.38c0.76,3.45,2.26,6.05,1.92,9.08c-0.08,2.2-1.48,1.94-2.09,0.03c-2.93-2.21-3.83-6.53-5.01-10.44
		c-4.35-14.4-5.04-29.22-4.03-44.23c0.11-1.7,0.04-2.79-1.22-3.77c-0.86-0.67-2.15-0.73-3.65-0.48l-7.73,1.27
		c-1.15,1.54-3.17,1.55-6.05,0.04c0.8,0.92,0.36,1.13-0.75,0.65c-1.1,0.83-2.09,1.75-2.97,2.77c-3.73,1.18-7.78,1.82-12.07,0.73
		c-2.96,2.13-6.8,2.33-9.53-0.11c-5.98,0.94-10.72-1.6-15.06-4.76c-1.69-1.23-2.78-1.17-3.26-3.8c-0.44-2.41-3.64-4.19-4.23-6.55
		c-0.3-1.18,0.56-2.35,0.55-3.16c-1.61-0.11-1.17-1.58,0.16-2.24c0.29-1.15-1.28-1.91-1.27-3.07l0.07-7.72
		c0.01-1.66-0.37-4.19,0.07-6.18c7.11-31.69,25.04-59.38,49.33-80.7c11.22-9.84,29.24-12.07,38.58,1.08
		c6.8,9.58,7.48,20.95,4.31,32.17c-6.55,23.2-11.12,46.33-13.52,70.33c-0.13,1.29,0.41,2.76,1.33,2.8
		C298.26,201.1,299.5,201.25,300.14,200.67z"/>
	<path style="fill:#064A82;" d="M207.4,116.81c-3.45,4.46-6.47,8.66-9.39,13.5l-0.88,4.54c-6.06,11.1-9.9,23.35-11.07,35.95
		l-1.64,2.84c-2.09,1.57-3.38,4.64-6.34,4.64c-0.73-0.92-1.31-1.94-1.46-3.11c-0.7-5.22,1.09-15.4,2.32-20.87
		c1.53-6.78,10.72-31.58,14.76-34.35c0.51-0.35,1.07-0.61,1.65-0.85c2.69-3.41,6-6.85,8.46-10.54c1.77-2.65,6.09-4.66,8.28-7.23
		c5.35-6.27,12.29-8.56,18.99-12.61c34.87-21.07,78.74-20.37,112.61,2.86c9.14,6.27,17.41,13.64,24.42,22.34
		c5.49,6.81,10.57,13.69,14.29,21.62c4.09,8.71,12.55,36.27,5.18,44.94c-1.91-22.32-14.23-49.39-28.49-66.29
		c-7.34-8.7-16.73-14.56-26.26-20.42c-4.93-3.03-9.98-4.43-15.18-6.59c-24.88-10.36-49.88-9.66-74.27,1.63
		C229.13,95.42,216.71,104.77,207.4,116.81z"/>
	<path style="fill:#094C84;" d="M184.81,190.18c0.64,14.7,8.16,32.92,16.23,45.92c17.51,28.2,46.97,43.44,79.76,46.55
		c4.82,0.46,8.71-0.42,13.54-0.92c18.28-1.86,35.33-8.49,50.7-18.23c1.76,0.68,3.49,0.74,4.97-0.39l15.64-11.9
		c-4.35,9.12-21.46,19.55-29.86,23.08l-4.65,1.96c-5.26,2.21-10.26,3.93-15.48,6.15c-8.05,3.42-16.87,4.07-25.61,5.09
		c-24.2,2.84-53.02-8.53-72.21-23.32c-22.41-17.26-35.79-42.86-39.44-70.4C179.42,191.1,182.89,191.46,184.81,190.18z"/>
	<path style="fill:#FCFDFD;" d="M349.77,205.98c0.76-0.42,1.73-0.72,2.9-0.91c0.22-0.47,0.47-0.46,0.75,0c0.5,0.57,1,0.57,1.5,0
		c-0.65-0.17-0.63-0.43,0-0.75c1.56,0.45,2.7,2.01,4.4,2.38c0.6-0.1,1.27-1.23,1.49-0.32c0.15,0.63,0.27,1.19,0.71,1.58
		c1.51-1.49,2.15-0.31,0.62,0.4c-0.9,0-1.23,0.44-1.06,0.72c0.21,0.32,0.54,0.44,1.3,0.96c-1.4,0.34-3.62,1.57-4.83,0.18
		c-0.3-0.35,0.48-1.31-0.29-1.13c-0.32,0.07-0.6,0.1-1.07,0.94c-1.26-1.96-4.16-2.64-6.5-1.7
		C349.3,207.14,349.77,206.57,349.77,205.98z"/>
	<path style="fill:#B8CBDB;" d="M337.7,202.08c0.66,0.17,0.63,0.41-0.02,0.7l1.52,0.8c1.29,0.33,2.02,0.57,0.75,1.5
		c1.78,2.09-9.61,1.05-9.78,0.09c-1.06-1.15,0.27-2.51,1.55-1.36c-0.23-0.83,0.63-1.29,2.59-1.37c0.84-1.02,1.47-1.13,1.9-0.36
		C336.39,201.47,337.3,201.54,337.7,202.08z"/>
	<path style="fill:#B8CBDB;" d="M318.98,204.33c0.88-1.86,1.39-1.86,2.25,0c0.09-1.26,2.48-1.02,3,0c0.65,0.21,0.64,0.46,0,0.75
		c-2.82,1.05-14.56,1.32-16.55-0.07C311.34,203.82,315.13,204.46,318.98,204.33z"/>
	<path style="fill:#5482A9;" d="M295.6,266.4c-0.09,0.77-0.16,1.74,0.39,2.42c0.37,0.46,1.06,0.54,2.06,0.91
		c-0.16,0.94-1.01,1.08-1.57,1.75c1.6,0.55,2.84-0.48,3.29,1.37c-3.11,0.79-4.58-1.41-5.49-3.89c-0.33-0.9-1.81-1.53-0.78-2.54
		L295.6,266.4z"/>
	<path style="fill:#366D9A;" d="M324.22,199.84c0.65,0.21,0.64,0.46,0,0.75c0.08,1.18-1.98,1.08-2.25,0
		c-4.03,0.62-9.29,0.58-13.48,0c-0.65-0.21-0.64-0.46,0-0.75H324.22z"/>
	<path style="fill:#366D9A;" d="M330.96,202.08c1.27,0.31,1.77,0.73,0.76,1.73c-0.63,0.28-1.08,0.89-1.55,1.36
		c-1.61,0.19-4.37-0.68-5.95-0.09v-0.75l0.11-0.84c2.1-0.04,3.81-0.51,5.13-1.41C329.8,201.44,330.38,201.6,330.96,202.08z"/>
	<path style="fill:#91AEC7;" d="M271.87,208.78c0,0.53,0.2,1.25-0.11,1.83c-0.4,0.73-1.48,0.52-2.19,0.46
		c-0.65-0.57-1.6-0.46-2.31-0.03c-2.01-0.38-3.41,0.65-5.15,1.2c0.05-0.65-0.26-1.65,0.1-2.12c0.58-0.76,2.03-0.64,2.87-0.65
		c0.61,0.23,0.86,0,0.75-0.65C268.05,208.73,269.68,209.14,271.87,208.78z"/>
	<path style="fill:#91AEC7;" d="M328.69,200.48c1.3,0.27,1.32,0.52,0.02,0.85c0.65,0.21,0.64,0.46,0,0.75
		c-0.21,0.65-0.46,0.64-0.75,0c-1.24,0.56-2.24,0.56-3,0c-1.17-0.29-1.77-0.59-0.75-1.5v-0.75
		C325.89,199.84,327.15,199.99,328.69,200.48z"/>
	<path style="fill:#FCFDFD;" d="M342.19,203.58c2.05-0.24,3.3,0.01,3.74,0.75c0.42,0.78-0.08,1.28-1.5,1.5l-1.2,1.52
		c-0.4-1.3-0.58-2.15-1.39-2.31c-0.65-0.13-1.27-0.02-1.9,0.04l-0.75-1.5C339.85,202.33,341.76,201.93,342.19,203.58z"/>
	<path style="fill:#FCFDFD;" d="M344.44,202.83c1.9,1.2-0.8,1.46-2.25,0.75c-0.65-0.21-0.64-0.46,0-0.75
		C342.31,202.08,343.9,202.27,344.44,202.83z"/>
	<path style="fill:#91AEC7;" d="M336.2,201.34c0.65,0.21,0.64,0.46,0,0.75c-1.32,1-3.02,1.07-4.48,1.73
		c-0.48-0.45-0.7-1.08-0.76-1.73c1.16-0.23,2.41-0.48,3.74-0.75c-0.65-0.21-0.64-0.46,0-0.75
		C335.25,200.68,335.79,201.08,336.2,201.34z"/>
	<path style="fill:#B8CBDB;" d="M348.18,203.58c0.23-0.32,0.48-0.32,0.75,0h0.75c0.68,0.08,0.64,0.34,0,0.75
		c0.64,0.56,1.6,0.56,2.25,0c-0.65-0.25-0.65-0.5,0-0.75l0.75,0.75c0.65,0.21,0.64,0.46,0,0.75c-0.64,0.61-1.97,1.31-2.9,0.91
		c-0.75-0.33-1.3-1.34-2.34-0.91c-0.32,1.37-0.52,1.96-1.5,0.75c-0.46,0.15-1.03-0.1-1.5,0c0.53-0.46,1.05-0.94,1.5-1.5
		c-0.65-0.21-0.64-0.46,0-0.75c0.22-0.49,0.47-0.48,0.75,0C347.23,204.1,347.65,204.08,348.18,203.58z"/>
	<path style="fill:#91AEC7;" d="M345.94,202.83c0.65,0.21,0.64,0.46,0,0.75v0.75c-1.31,0.1-2.75,0.23-3.74-0.75l1.83,0
		c0.26,0,0.49-0.32,0.42-0.75c-0.67-0.18-0.66-0.43,0-0.75C345,202.12,345.52,202.45,345.94,202.83z"/>
	<path style="fill:#91AEC7;" d="M342.17,201.93c1.3,0.22,1.32,0.56,0.02,0.9v0.75h-3c-0.6,0-1.53-0.04-1.52-0.8l2.26-0.7
		c-0.32-0.37-0.07-0.62,0.75-0.75C341.25,201.34,341.67,201.9,342.17,201.93z"/>
	<path style="fill:#91AEC7;" d="M303.26,199.84l1.5,0.75c0.65,0.21,0.64,0.46,0,0.75c-1.54,0-3.46,0.49-4.61-0.66
		C301.12,199.78,301.97,199.84,303.26,199.84z"/>
	<path style="fill:#B8CBDB;" d="M218.67,192.35c-0.18,0.7-0.17,1.51-0.16,2.24c-0.52,0.44-1.8,0.52-2.03-0.39
		c-0.11-0.41,0.54-1.22,0.72-1.56C217.38,192.29,218.25,192.44,218.67,192.35z"/>
	<path style="fill:#366D9A;" d="M334.7,200.59v0.75c-1.75,0.66-4.35,0.6-5.99,0l-0.02-0.85
		C330.54,201.07,332.81,200.26,334.7,200.59z"/>
	<path style="fill:#5482A9;" d="M308.5,199.84v0.75c-0.69,0.64-2.79,0.56-3.74,0c-0.59,0-1.35-0.06-1.5-0.75H308.5z"/>
	<path style="fill:#FCFDFD;" d="M345.94,205.83c0.52-0.17,0.99-0.54,1.5-0.75c-0.21,0.76,0.63,2.83-0.72,2.99
		C345.52,208.22,345.99,206.35,345.94,205.83z"/>
	<path style="fill:#366D9A;" d="M340.7,201.34c-0.16,0.32-0.58,0.46-0.75,0.75c-0.71,0.37-1.67,0.67-2.25,0h-1.5v-0.75H340.7z"/>
	<path style="fill:#5482A9;" d="M348.93,203.58h-0.75c-0.32,0.59-1.13,0.54-1.5,0h-0.75v-0.75
		C346.96,202.87,348.45,202.47,348.93,203.58z"/>
	<path style="fill:#366D9A;" d="M344.44,202.08c0.02,0.25-0.04,0.5,0,0.75h-2.25l-0.02-0.9L344.44,202.08z"/>
	<path style="fill:#366D9A;" d="M351.93,203.58c0.02,0.25-0.03,0.5,0,0.75c-0.49,0.61-1.7,0.55-2.25,0c0.03-0.25-0.02-0.5,0-0.75
		H351.93z"/>
	<path style="fill:#366D9A;" d="M269.56,211.07c-0.76-0.06-1.56,0.11-2.31-0.03c-0.01-0.63,0.69-0.71,1.19-0.74
		C268.94,210.26,269.68,210.38,269.56,211.07z"/>
	<path style="fill:#5482A9;" d="M354.92,204.33c-0.01,0.24,0.03,0.53,0,0.75c-0.01,1.57-1.19,1.55-1.5,0h-0.75v-0.75
		C353.38,204.48,354.24,204.13,354.92,204.33z"/>
	<circle style="fill:#FCFDFD;" cx="363.91" cy="210.69" r="0.48"/>
	<circle style="fill:#FCFDFD;" cx="348.56" cy="206.2" r="0.37"/>
	<path style="fill:#FEFEFE;" d="M195.35,119.12c-4.74,8.05-8.75,16.35-11.57,25.54c-1.55,5.07-3.77,9.58-4.4,14.91
		c-0.76,6.41-1.32,12.59-1.29,18.72c-7.22,5.81-17.24,8.37-27.05,8.42L100.68,187l-0.06-93.36l49.85,0.03
		c9.09,0.01,17.5,2.15,25.51,5.96c7.89,4.02,14.18,9.97,18,17.94C194.36,118.35,194.73,118.92,195.35,119.12z"/>
	<path style="fill:#FCFDFD;" d="M184.42,173.65c0.73-15.34,5.76-30.34,13.59-43.34C200.67,144.92,196.65,164.45,184.42,173.65z"/>
	<path style="fill:#FCFDFD;" d="M255.92,206.55c-5.36,0.87-10.48,1.08-15.74,0.49c-9.71-1.09-15.94-8.2-16.12-18.23
		c0.34-11.72,3.9-22.94,8.82-33.83c9.09-20.14,21.92-37.45,38.3-52.3c7.82-7.09,20.39-10.25,25.95-1.39
		c4.33,6.91,5.65,15,3.31,22.99c-7.43,25.46-12.42,51-15.47,77.55L255.92,206.55z"/>
	<path style="fill:#FCFDFD;" d="M321.98,200.59c0.65,0.21,0.64,0.46,0,0.75c-1.1,1.91-2.21,2.27-3,0H308.5
		c-0.65-0.21-0.64-0.46,0-0.75H321.98z"/>
	<path style="fill:#366D9A;" d="M321.98,201.34c0.65,0.21,0.64,0.46,0,0.75c0.18,0.23-0.07,0.48-0.75,0.75c1.99,0.24,1.9,0.93,0,1.5
		c-0.73,0.11-1.51-0.03-2.25,0c0.09-0.51,0.09-1.17-0.43-1.4c-0.36-0.16-0.75-0.07-1.07-0.1c-0.65-0.21-0.64-0.46,0-0.75
		c0.59-0.06,1.35-0.02,1.5-0.75H321.98z"/>
	<path style="fill:#5482A9;" d="M317.48,202.08v0.75c-2.51-0.24-5.03,0.51-7.56-0.39C312.71,201.61,315.12,202.31,317.48,202.08z"/>
	<rect x="304.75" y="200.59" style="fill:#B8CBDB;" width="3.74" height="0.75"/>
	<path style="fill:#5482A9;" d="M265.07,209.47c0.09-0.31,0.4-0.64,0.75-0.65c0.15,0.54,0.59,0.67,1.55,0.96
		c-0.27,0.82-1.08,0.66-1.64,0.36C265.48,210.01,265.34,209.65,265.07,209.47z"/>
	<path style="fill:#FEFEFE;" d="M354.92,205.08c-0.08,0.58,0.46,2.27-0.75,2.27c-1.21,0-0.66-1.71-0.75-2.27H354.92z"/>
	<path style="fill:#FCFDFD;" d="M339.95,202.08c-0.48,0.8-1.41,0.85-2.26,0.7l0.02-0.7H339.95z"/>
	<path style="fill:#5482A9;" d="M329.46,202.08c0.69,2.65-3.07,0.67-5.24,2.25c-0.87,0.29-2.08-0.14-3,0v-1.5
		c2.19-0.23,4.43-0.48,6.74-0.75h0.75C328.93,201.59,329.19,201.6,329.46,202.08z"/>
	<path style="fill:#B8CBDB;" d="M324.22,200.59c0.41,0.4,0.65,0.93,0.75,1.5c-0.31,0.75-2.24,0.51-3,0v-0.75v-0.75H324.22z"/>
	<path style="fill:#FCFDFD;" d="M334.7,201.34c-0.62,1.38-2.51,0.61-3.74,0.75c-0.49,0.05-1,0-1.5,0h-0.75v-0.75H334.7z"/>
	<path style="fill:#094C84;" d="M324.97,202.08h3c-1.87,1.55-4.47,0.46-6.74,0.75c0-0.45,0.31-0.75,0.75-0.75H324.97z"/>
	<path style="fill:#FCFDFD;" d="M351.93,204.33c0.09,0.78-0.53,0.78-1.12,0.78c-0.59,0-1.21,0-1.12-0.78H351.93z"/>
	<path style="fill:#FCFDFD;" d="M348.18,203.58c0.1,0.39-0.15,0.67-0.4,0.75c-0.64,0.22-1.24-0.16-1.1-0.75H348.18z"/>
</g>
</svg>
