<?xml version="1.0" encoding="utf-8"?>
<!-- Generator: Adobe Illustrator 30.2.1, SVG Export Plug-In . SVG Version: 9.03 Build 0)  -->
<svg version="1.1" id="Layer_1" xmlns="http://www.w3.org/2000/svg" xmlns:xlink="http://www.w3.org/1999/xlink" x="0px" y="0px"
	 viewBox="0 0 1298.25 686.25" style="enable-background:new 0 0 1298.25 686.25;" xml:space="preserve">
<g>
	<rect style="fill:#FEFEFE;" width="1298.25" height="686.25"/>
	<path style="fill:#AAA9AB;" d="M655.87,231.72c-1.5-1.77-1.87-4.3-1.11-7.61c-0.47-2.22-0.12-3.88,1.03-4.99
		c0.26-0.93,0.94-1.54,2.36-1.54l92.11,0.15c9.69,0.02,18.39,1.7,27.35,4.8c41.28,14.31,55.07,58.93,43.42,98.49
		c-9.56,28.18-30.7,43.16-59.62,48.69l71.42,112.91l-20.42,0.21l-69.07-109.73l-71.09-0.06l-0.18,23.08l-15.95-4.57L655.87,231.72z"
		/>
	<path style="fill:#AAA9AB;" d="M1044.61,217.15l20.9,0.42l-94.69,117.51l98.86,148.86l-21.04,0.24l-89.33-134.78l-53.99,66.84
		l-0.07,67.75c-5.24,0.49-10.52,0.26-16.12,0.12l0.01-266.81c5.96-0.07,10.88-0.33,16.11,0.15l0.11,174.28
		c4.14-3.49,6.15-7.31,9.04-10.95l12.84-16.16l9.7-12.28l11.26-14.23l12.89-16.33l79.32-100.46
		C1041.71,219.66,1041.91,217.88,1044.61,217.15z"/>
	<path style="fill:#A9A8AA;" d="M434.74,255.89l0.83,1.62c-3.76,5.31-7.65,10.52-11.69,15.63l-1.75-0.08l-2.18-1.59
		c-9.19-23.51-34.73-35.08-58.82-35.81l-70.25-0.18c-0.83,41.91-0.84,86.3,0.01,128.2l67.98-0.29c12.68-0.05,25.31-3.25,36.14-9.94
		l2.99-0.16c1.01-2.17,5.12-6.09,7.24-7.36l1.92,0.3l1.52-3.47c12.81-13.14,17.6-31.89,16.18-49.87l0.96-4.74
		c-0.07-0.64-0.12-1.28-0.06-1.91c0.26-2.88,9.88-17.19,12.45-18.54c0.56-0.29,1.17-0.5,1.79-0.68c-0.67,1.72,0.42,3.21,0.9,5.17
		c8.99,37.01-0.46,76.43-33.97,97.03c-0.52,2-2.25,3.41-5.2,4.23c-1.3,1.22-2.52,1.52-3.67,0.91c-13.08,5.28-26.61,9.02-41.32,9.07
		l-67.79,0.2l-0.09,99.7l-17.39-0.02l-0.04-267.58l89.76,0.1c13.08,0.01,25.09,2.87,36.82,7.75
		C414.02,230.23,425.96,241.56,434.74,255.89z"/>
	<path style="fill:#064A82;" d="M591.39,395.46c0.99-1.29,3.79-1.57,4.49-0.06c10.96-0.03,21.94-0.52,32.87,0.41
		c0.99-0.99,2.93-0.5,3.95,0.39c2.02,2.55-1.56,3.6-3.78,4.24c-2.48,0.14-4.69-0.61-6.63-2.24c1.2,0.41,1.01,1.25,0.27,2.27
		c-11.34-0.19-22.64,0.37-33.91,1.7c-2.31-0.6-4.1-0.19-5.39,1.24c-1.13,6.27-1.31,12.85-1.39,19.6c-0.02,2.04-1.45,2.63-1.83,4.04
		c-1.17,4.39-0.07,9.21-0.08,13.93c-0.02,14.84,1.88,29.03,4.95,43.35c-1.52,0.4-2.55-4.97-4.16-3.26
		c-2.73,2.89,10.63,21.48,7.1,23.3c-4.37-1.01-6.98-4.69-9.07-8.63c-6.34-11.97-9.3-24.52-11.51-37.97
		c-2.84-17.28-2-34.32-1.59-51.43c-0.8-0.9-1.54-1.49-2.23-1.76c-5.79,1.12-11,1.98-15.62,2.58c-0.2,0.7-1.58,0.64-2.15,0.09
		c-0.63,1.07-1.13,0.82-1.5-0.75c-0.75,0.7-2.69,0.46-3.75,0c0.69,1.11,0.43,1.47-0.75,0.75c-0.75,0.64-2.17,0.51-3,0l-0.75,2.25
		c-0.22,0.65-1.73,0.54-2.25,0c-0.32,0.99-0.6,1.6-1.5,0.84c-0.72,0.02-1.96-0.28-2.28,0.64c-4.04,1.13-11.63,2.16-17.03,2.27
		c-0.39,0.01,7.88-1.22,7.31,0.19c-22.64,5.35-51.12-0.49-57.42-27.33c-3.14-13.38-0.27-30.19,3.71-43.43
		c7.64-25.38,19.37-48.9,35.26-70.11c11.13-14.85,23.16-27.96,37.07-40.09c17.47-15.25,45.49-18.33,59.46,2.08
		c9.42,13.76,11.28,30.4,6.81,46.4c-10.17,36.44-18.55,75.68-21.36,113.26C586.72,394.79,589.31,394.39,591.39,395.46z"/>
	<path style="fill:#064A82;" d="M655.8,219.12c1.02,4.15,0.07,8.41,0.07,12.6c-4.21-2.07-8.5-4.37-12.78-6.84
		c-7.01-4.05-14.31-5.65-21.73-8.49c-18.11-6.93-36.62-11.23-56.16-10.61c-25.58,0.81-37.57,3.33-60.89,12.92
		c-25.26,10.39-47.72,27.1-64.31,48.32c-5.35,6.84-9.92,13.57-14.17,21.12c-0.14,1.9-0.56,3.71-1.25,5.45
		c-8.01,15.35-13.6,31.95-15.57,49.19l-1.84,3.44c-2.91,2.53-5.58,5.51-9.16,7.06c-0.36-0.7-0.69-1.41-0.92-2.15
		c-0.22-0.72-0.4-1.43-0.4-2.14c0.13-21.8,7.95-44.35,17.3-63.82c1.58-3.29,3.18-6.56,5-9.73c0.3-0.52,0.8-0.92,1.34-1.33
		c0.55-0.42,1.16-0.75,1.8-1.05c1.56-2.56,11.34-14.25,12.61-17.17c2.24-0.24,2.7-2.87,4.16-4.29l6.7-6.54l15.12-12.69
		c7.16-6.01,15.23-8.48,23.2-12.86c28.91-15.89,60.29-24.2,93.43-22.65C605.31,198.16,631.6,205.91,655.8,219.12z"/>
	<path style="fill:#064A82;" d="M661.7,499.63c-2.13,1.82-5.53,4.01-8.15,4.95c-0.06,0.02,0.04-0.5,0.18-1.17
		c-0.16,0.4-0.32,0.8-0.49,1.2c-0.34,0.79-14.81,5.89-15.99,5.99c-0.28,0.02-0.58-0.28-0.9-0.67c-2.19,1.15-5.28,0.89-7.46,2.25
		l-1.52,1.7c-2.36-0.04-4.14,1.87-6.29,2.42c-2.03,0.52-3.78,0.93-5.76,1.68c-11.85,4.49-24.27,5.44-36.81,6.76
		c-12.06,1.28-29.46,0.65-41.12-2.15c-2.05-0.49-3.77-2.46-6.21-0.62l-19.09-6.39l-15.56-6.09c-6.43-2.52-29.35-15.76-34.66-19.95
		l-7.45-5.89c-2.47-1.95-4.14-4.3-7.07-5.93c-1.67-0.93-3.67-3.11-4.79-4.72c-2.05-2.97-4.43-4.96-6.63-7.72l-3.03-3.8
		c-20.07-25.23-32.55-55.23-34.86-87.11c2.31-2.56,5.95-3.34,8.87-5.14c0.4,8.72,1.28,17.25,3.66,25.93
		c9.06,33.11,26.81,63.04,53.51,84.85c14.66,11.98,30.48,21.16,48.58,27.25c12.59,4.23,25.1,7.56,38.29,9.49
		c7.23,1.06,14.36,1.06,21.57,1.43c4.71,0.24,8.99-1.54,13.69-1.91c29.16-2.34,54.36-12.52,79.45-27.19
		c2.38-1.39,0.29,5.64,18.75-8.89l14.28-11.24C694.02,479.79,671.33,494.99,661.7,499.63z"/>
	<path style="fill:#AAA9AB;" d="M672.21,482.7l-16.08,0.16l-0.06-66.42c5.61,0.62,10.66,2.03,16.09,3.94L672.21,482.7z"/>
	<path style="fill:#80A2BF;" d="M638.51,396.92c1.6-0.22,2.65,0.23,3.12,1.37c1.29,0.31,3.08,0.18,3.8,1.39l-6.05,1.61
		c-14.47,1.52-14.83-0.19-26.98,0.25l-17.33,0.63c-4.08,0.15-7.94,1.4-11.82,1.26c0.13-0.7-0.11-1.73,0.2-2.28
		c0.27-0.5,1.93-0.96,2.54-0.6c3.48,2.04,6.57-0.18,9.82-0.3l27.21-0.97c-4.52-0.25-8.56-0.58-12.92-1.38
		c-5.59-1.03-11.2,1.66-17.03-0.4c3.46-1.4,6.85-0.46,10.31-0.51c6.76-0.1,13.42-0.88,20,0.35c1.76,0.33,2.86,2.4,5.13,1.65
		c1.33-0.44,3.58-0.85,4.17-2.79C634.07,395.58,638.19,394.99,638.51,396.92z"/>
	<path style="fill:#80A2BF;" d="M649.87,399.75c0.92,0.54,2.17,0.9,3.75,1.07c3.18,0.33,7.82,0.99,11.21,2.09
		c1.85,0.6,4.03-0.58,4.53,1.45c0.63,0.26,0.61,0.5-0.06,0.73c-4.9,0.96-9.75-1.28-15.02-1.66c-2.88-0.21-5.54-0.88-7.93-2.21
		l-2.53,1.3c-0.28,0.15-0.98-0.96-1.45-1.06c0.16-1.07,1.41-1.66,3.76-1.79C646.95,399.19,648.84,400.6,649.87,399.75z"/>
	<path style="fill:#AFC4D7;" d="M661.7,499.63c1.22,2.7-21.84,12.43-23.44,11.87c0.79,1.8-0.81,2.04-1.12,0.8
		c0.27-1.35,0.06-2.19-0.79-2.38c4.42-2.33,19.7-7.8,17.17-6.34C656.34,501.96,659.04,500.91,661.7,499.63z"/>
	<path style="fill:#80A2BF;" d="M565.69,406.34c-5.74,0-11.32,2.41-17.01,2.41c-0.65-0.21-0.65-0.46,0-0.75l-0.84-0.84
		c-1.55-1.95,9.88-3.02,11.32-3.15c2.29-0.21,4.68-2.07,6.83,0.2C565.9,404.88,565.7,405.89,565.69,406.34z"/>
	<path style="fill:#80A2BF;" d="M638.63,394.5c0.65,0.21,0.65,0.46,0,0.75c-0.91,0.94-4.65,0.73-6,0c-1.12,0.54-3.03,0.29-3.75-0.75
		c-8.28-0.51-16.55,1.08-25.4-0.82C611.07,392.32,632.73,392.68,638.63,394.5z"/>
	<path style="fill:#80A2BF;" d="M529.91,410.98c-0.32,0.9-0.77,1.59-1.44,1.92c-1.05,0.51-2.21-0.43-3.17-0.24
		c-2.05,0.41-3.28,1.29-5.1,0.79c-1.17-0.32-18.88,1.36-22.92,0.33c1.79-3.67,7.26,1.28,15.5-1.23
		C507.99,413.99,533.11,409.28,529.91,410.98z"/>
	<path style="fill:#80A2BF;" d="M685.1,405.75c-1.14,0.59-2.02-0.33-2.25-1.5c1.96-1.79,22.26,7.75,25.3,10.76
		C702.88,414.33,691.13,406.06,685.1,405.75z"/>
	<path style="fill:#AFC4D7;" d="M669.3,405.09l0.06-0.73l6.69,0.25c-0.26,1.5-1.76,1.53-1.89,3.46L669.3,405.09z"/>
	<path style="fill:#AFC4D7;" d="M595.87,395.4c-1.69,0-2.8,0.92-4.49,0.06c0.14-0.56-0.17-1.36,0.07-2.08
		c0.15-0.46,3.99,0.07,4.16,0.3C596,394.2,595.87,394.89,595.87,395.4z"/>
	<path style="fill:#AFC4D7;" d="M641.63,398.29c-0.77-0.19-1.69,0.43-2.69,0.24c-0.48-0.09-0.45-1.04-0.43-1.61
		c-1.83-0.94-1.93-1.1,0.13-1.67v-0.75c0.87,0.27,2.75-0.91,3.53,0.31L641.63,398.29z"/>
	<path style="fill:#AFC4D7;" d="M649.77,396.5c-1.53-0.09-2.04,0.93-3.03,2.06c-1.72-0.99-0.12-2.31-1.25-3.85
		C647.07,394.72,648.09,395.25,649.77,396.5z"/>
	<path style="fill:#AFC4D7;" d="M653.62,400.82c-1.64,0.78-3.62,0.58-6.09,0.23c0.74-0.96,1.83-0.46,2.34-1.3
		C651.47,398.44,652.7,400.29,653.62,400.82z"/>
	<path style="fill:#80A2BF;" d="M533.69,409.5c0.65,0.21,0.64,0.46,0,0.75c0.65,0.21,0.64,0.46,0,0.75
		c-0.2,0.36-0.53,0.64-0.79,0.39c-0.42-0.39-0.6-0.72-0.71-1.05C532.62,410.09,533.1,409.5,533.69,409.5z"/>
	<path style="fill:#80A2BF;" d="M536.69,407.25c0.65,0.21,0.65,0.46,0,0.75c0.58,0.14,0.83,0.39,0.75,0.75
		c0.65,0.21,0.65,0.46,0,0.75c0.65,0.21,0.65,0.46,0,0.75h-0.75h-0.75c-0.65-0.21-0.64-0.46,0-0.75c-1.04-1.96-3.04,0.11-5.28-0.18
		C532.46,407.96,534.63,407.77,536.69,407.25z"/>
	<path style="fill:#AFC4D7;" d="M632.63,395.25c1.25,0.52,1.39,0.59,0.06,0.96c-1.24,0.18-2.71-0.29-3.95-0.39l0.15-1.31
		C630.44,394.6,631.26,394.66,632.63,395.25z"/>
	<path style="fill:#AFC4D7;" d="M653.13,395.88c1.51,0.6-1.22,3.05-1.31,3.1c-0.23,0.12-0.75-0.28-0.97-0.54
		c-0.43-0.49,1.04-2.51,0.9-2.46C652.18,395.81,652.55,395.65,653.13,395.88z"/>
	<path style="fill:#AFC4D7;" d="M662.35,398.49c-0.48,0.94-1.87,0.4-2.32-0.22c-0.26-0.36-0.68-0.39-0.85-0.96
		c1.3,0.03,2.13-0.78,2.64-0.26C662.13,397.37,662.55,398.09,662.35,398.49z"/>
	<path style="fill:#80A2BF;" d="M541.19,407.25c0.65,0.21,0.64,0.46,0,0.75c0.48,0.1,0.81,0.18,0.75,0.75
		c0.65,0.21,0.64,0.46,0,0.75l-0.75,0.75c-0.49-0.01-0.74-0.26-0.75-0.75c-0.49-0.1-0.82-0.19-0.75-0.75
		c-0.65-0.21-0.65-0.46,0-0.75c-0.65-0.21-0.65-0.46,0-0.75l0.75-0.75C540.92,406.6,541.25,406.68,541.19,407.25z"/>
	<path style="fill:#AFC4D7;" d="M685.1,405.75c-0.46,0.28-1.18,1.29-1.89,0.74c-0.71-0.55-0.26-1.6-0.36-2.24
		C683.73,404.54,684.57,404.97,685.1,405.75z"/>
	<path style="fill:#80A2BF;" d="M682.06,403.22c-1.26,0.64-2.92,0.55-3.73-0.98C679.65,401.46,680.26,402.22,682.06,403.22z"/>
	<path style="fill:#80A2BF;" d="M545.68,407.25c0.65,0.21,0.65,0.46,0,0.75c0.65,0.21,0.65,0.46,0,0.75h-0.75h-0.75
		c-0.65-0.21-0.64-0.46,0-0.75c-0.65-0.21-0.64-0.46,0-0.75c-0.65-0.21-0.64-0.46,0-0.75C544.8,406.5,545.19,407.11,545.68,407.25z"
		/>
	<path style="fill:#AFC4D7;" d="M667.28,399.15c0.84-0.99,1.97,1.08,2.01,0.97c-0.25,0.71-0.85,0.35-1.13,0.41
		C667.48,400.67,666.54,400.01,667.28,399.15z"/>
	<path style="fill:#064A82;" d="M645.43,399.67c0.23-0.03,0.46,0.01,0.69-0.01c-1.21,0.7-2.91,0.59-3.76,1.79
		c-0.91-0.18-2.06-0.28-2.98-0.18C640.97,399.85,643.39,399.97,645.43,399.67z"/>
	<path style="fill:#064A82;" d="M540.44,409.5c0.23,0.27,0.54,0.46,0.75,0.75h-3.75v-0.75C537.86,408.8,539.59,409.02,540.44,409.5z
		"/>
	<path style="fill:#AFC4D7;" d="M670.28,399.9c0.88-0.97,1.96,1.09,2,0.97c-0.26,0.75-0.85,0.34-1.13,0.41
		C670.48,401.43,669.52,400.75,670.28,399.9z"/>
	<circle style="fill:#AFC4D7;" cx="657.43" cy="397.47" r="0.87"/>
	<path style="fill:#AFC4D7;" d="M664.66,399.99c-1,0.55-1.6,0.4-0.78-0.36c0.39-0.56,0.1-1.2,0.61-1.38
		c0.45-0.16,0.9-0.03,1.13,0.39C665.87,399.09,665.67,399.66,664.66,399.99z"/>
	<path style="fill:#064A82;" d="M548.68,408v0.75h-3V408C546.1,407.39,547.97,407.32,548.68,408z"/>
	<path style="fill:#064A82;" d="M544.19,408.75h0.75c-0.48,1.11-1.97,0.71-3,0.75v-0.75C542.16,408.1,543.66,408.21,544.19,408.75z"
		/>
	<path style="fill:#064A82;" d="M535.94,410.25h0.75c-0.47,1.12-1.99,0.69-3,0.75v-0.75C533.91,409.6,535.42,409.71,535.94,410.25z"
		/>
	<path style="fill:#AFC4D7;" d="M672.99,400.95c0.77-0.9,1.41-0.5,1.62-0.07c0.2,0.42,0.03,0.9-0.38,1.12
		C673.79,402.24,673.08,402.15,672.99,400.95z"/>
	<path style="fill:#AFC4D7;" d="M628.89,512.17c0.05,0.51,0,1.15-0.47,1.43c-0.31,0.18-0.72,0.28-1.05,0.27
		c-0.05-0.34,0.02-0.71,0.14-1.14C627.67,512.12,628.48,512.42,628.89,512.17z"/>
	<path style="fill:#AFC4D7;" d="M676.42,401.34c0.11-0.2,0.67,0.57,0.98,0.75c0.74,0.43-2.04,1.47-1.88,1.11
		C675.82,402.48,676.07,401.96,676.42,401.34z"/>
	<circle style="fill:#AFC4D7;" cx="635.63" cy="513.38" r="0.48"/>
	<circle style="fill:#AFC4D7;" cx="626.64" cy="516.38" r="0.48"/>
	<circle style="fill:#80A2BF;" cx="531.82" cy="412.12" r="0.37"/>
	<circle style="fill:#AFC4D7;" cx="680.98" cy="405.38" r="0.37"/>
	<circle style="fill:#AFC4D7;" cx="678.73" cy="404.62" r="0.37"/>
	<path style="fill:#FEFEFE;" d="M738.16,355.31l-1.17-3c1.4-14.73-1.8-29.29-6.24-43.26c-3.95-12.46-7.88-20.8-15.43-31.78
		c-9.67-14.06-20.52-26.95-33.83-37.58c0,0-0.55-1.11-1.64-3.32c0.11-0.5,0.63-0.96,1.57-0.96l68.08,0.16
		c26.58,0.06,50.67,13.37,57.15,40.28c7.67,31.84-4.32,64.68-37.14,75.62C759.1,354.93,748.75,355.34,738.16,355.31z"/>
	<path style="fill:#FEFEFE;" d="M734.03,355.36l-61.82-0.24l-0.02-108.32c0-1.5,0.08-2.41,0.95-3.01c0.52-0.09,1.05-0.16,1.56-0.13
		c3.45,0.22,14.69,12.35,17.62,15.71c15.12,17.32,27.18,39.12,35.04,60.7c2.68,7.37,8.64,25.58,7.96,32.8
		C735.24,353.84,734.65,354.66,734.03,355.36z"/>
	<path style="fill:#064A82;" d="M679.86,236.36c7.39,6.12,14.67,12.42,21.18,19.92c9.43,10.87,17.31,22.11,24.65,34.52
		c8.17,20.66,15.35,42.56,12.47,64.51l-3.13,5.28c-0.27-1.76-0.89-3.53-1.01-5.22c-2.45-35.93-30.71-90.74-60.89-111.57
		c-1.28-2.62-1.21-5.7-0.82-8.49C675.51,234.99,677.9,234.74,679.86,236.36z"/>
	<path style="fill:#FEFEFE;" d="M422.14,273.06c-5.97,9.81-10.34,20.32-14.33,31.34c-2.84,7.84-6.19,14.98-7.41,23.34
		c-1.27,8.68-2.11,17.13-2.39,25.55c-11.21,7.63-24.95,11.54-39.11,11.6l-69.98,0.3l-0.01-131.22l70.82,0.17
		c12.55,0.03,24,3.13,35.07,8.41C407.65,249.08,417.62,259.74,422.14,273.06z"/>
	<path style="fill:#FEFEFE;" d="M407.17,346.23c1.69-20.51,8.64-40.29,18.66-58.08C428.89,308.72,423.23,332.26,407.17,346.23z"/>
	<path style="fill:#FEFEFE;" d="M510.63,404.32c-2.73,0.55-5.78,0.56-8.44,0.08l-3.06-0.3c-3.64,0.18-7.47-0.99-10.95-2.81
		c-18.46-9.67-16.5-30.4-11.32-47.38l-0.32-0.66c1.28-6.54,3.18-13.16,6.25-19.41c0.46-0.94,2.47-0.73,1.71-3.06
		c-0.56-1.72,0.21-4.94,2.51-4.88c-0.32-0.77-0.78-1.52-0.34-2.52c0.33-0.75,0.74-2.3,1.74-0.5c0.34-2.19,2.59-4.07,2.71-6.49
		c0.36-7.33,4.61-7.44,5.28-10.68c0.49-2.37,1.77-3.05,2.86-4.87c13.31-22.25,29.75-42.27,49.63-59.05
		c9.16-7.73,28.02-12.13,36.3,0.74c6.94,10.79,8.54,23.53,4.94,35.83c-6.05,20.66-11.45,40.84-15.04,62.12l-6.81,40.45
		c-0.18,1.04,0.92,2.02,0.54,3.02c-0.25,0.65-0.93,1.17-0.82,1.63c0.07,0.3,1,1.06,0.86,1.38c-0.96,2.09-1.92,3.85-1.86,6.24
		c0.08,3.1-2.79,4.43-5.57,4.23c-3.2-0.23-6.24,1.03-9.34,1.21C536.24,399.55,523.57,403.99,510.63,404.32z"/>
	<path style="fill:#AFC4D7;" d="M499.13,404.09c-1.4,0.19-2.55,1.09-4.47,0.79c0.34-0.88,1.59-0.21,1.77-1.61
		c-4.04,2.19-9.74-2.18-13.02-4.02c-4.73-2.66-9.85-10.3-10.67-16.5c-1.06-8.01-0.79-16.46,1.76-23.85c0.65-1.89,1.69-3.8,2.05-5.65
		c0.54-0.18,0.81,0.12,0.84,0.52c0.27,3.72-3.82,13.59-2.81,24.55C475.99,393.76,487.48,402.94,499.13,404.09z"/>
	<path style="fill:#AFC4D7;" d="M481.25,407.79c-15.39-6.29-20.38-27.8-17.37-43.2c2.09,5.92,0.06,11.36,1.01,16.99
		C466.31,392.64,472.27,401.52,481.25,407.79z"/>
	<path style="fill:#AFC4D7;" d="M493.02,412.04c-4.3,0.28-8.29-1.11-11.48-3.85C485.74,409.1,489.08,410.29,493.02,412.04z"/>
	<path style="fill:#AFC4D7;" d="M510.63,404.32c1.39,0.76-10.09,2.2-8.44,0.08C504.71,403.22,508.21,404.38,510.63,404.32z"/>
	<path style="fill:#AFC4D7;" d="M544.19,406.5v0.75c-0.41,0.66-2.28,0.56-3,0l-0.75-0.75H544.19z"/>
	<path style="fill:#AFC4D7;" d="M547.84,407.16c0.3,0.06,1-0.15,1.56,0.43c0.14,0.15-0.22,0.5-0.72,0.42h-3v-0.75
		C546.34,407.43,547.2,407.03,547.84,407.16z"/>
	<path style="fill:#AFC4D7;" d="M539.69,407.25V408c-0.41,0.68-2.22,0.52-3,0v-0.75C537.63,407.01,538.73,407.43,539.69,407.25z"/>
	<circle style="fill:#AFC4D7;" cx="511.95" cy="405.27" r="0.48"/>
	<circle style="fill:#80A2BF;" cx="546.81" cy="405.38" r="0.37"/>
	<path style="fill:#FEFEFE;" d="M638.63,395.25l-0.13,1.67c-1.87-0.96-3.8-1-5.81-0.71l-0.06-0.96
		C634.35,395.98,636.83,394.72,638.63,395.25z"/>
	<path style="fill:#AFC4D7;" d="M539.69,408.75c0.33,0.17,0.52,0.48,0.75,0.75h-3v-0.75C537.66,408.1,539.17,408.21,539.69,408.75z"
		/>
	<path style="fill:#064A82;" d="M539.69,408v0.75h-2.25c-0.41,0-0.75-0.34-0.75-0.75H539.69z"/>
	<rect x="533.69" y="409.5" style="fill:#AFC4D7;" width="2.25" height="0.75"/>
	<path style="fill:#064A82;" d="M544.19,407.25V408c-0.43,0.72-2.12,0.45-3,0v-0.75H544.19z"/>
	<polygon style="fill:#AFC4D7;" points="544.19,408 544.19,408.75 541.94,408.75 541.19,408 	"/>
</g>
</svg>
