<?xml version="1.0" encoding="utf-8"?>
<!-- Generator: Adobe Illustrator 30.2.1, SVG Export Plug-In . SVG Version: 9.03 Build 0)  -->
<svg version="1.1" id="Layer_1" xmlns="http://www.w3.org/2000/svg" xmlns:xlink="http://www.w3.org/1999/xlink" x="0px" y="0px"
	 viewBox="0 0 3492.86279 1377" style="enable-background:new 0 0 3492.86279 1377;" xml:space="preserve">
<g>
	<defs>
		<path id="SVGID_1_" d="M1604.49683,1215.94568V26h803.27393v1189.94568H1604.49683z M1603.49683,896c12,0,15,0,25,1
			c20,4,40,10,60,12c20,1,30,2,40,4c40,5,70,10,100,17c30,11,70,25,100,33v-65c-30-10-70-22-100-31c-30-14-60-29-100-38
			c-10-2-20-4-40-7c-20-2-40-2-60-4c-10-1-13-2-25-2V896z"/>
	</defs>
	<clipPath id="SVGID_00000028302959538206397940000016109772380314835332_">
		<use xlink:href="#SVGID_1_"  style="overflow:visible;"/>
	</clipPath>
	<g id="R" style="clip-path:url(#SVGID_00000028302959538206397940000016109772380314835332_);">
		<path style="fill:#004680;" d="M1614.49683,1205.94568V36h451.29492c46.92236,0,89.4917,10.45162,127.74512,31.33499
			c38.23511,20.88337,71.37964,48.64176,99.43335,83.25531c28.03516,34.61354,49.96558,73.36003,65.79077,116.21964
			c15.80664,42.85959,23.71924,86.81204,23.71924,131.8772c0,58.25885-10.71606,112.6629-32.12988,163.21216
			c-21.43237,50.54932-51.25659,92.87244-89.51025,126.92957c-38.25342,34.07709-82.87012,54.96045-133.8501,62.65015
			l270.78076,454.46667h-90.2666l-263.12622-441.27301h-351.86169v441.27301H1614.49683z M1692.51624,687.21942h380.93005
			c46.90381,0,87.70239-13.73016,122.37769-41.21039s61.45654-63.20648,80.32495-107.17877
			c18.86865-43.95245,28.31201-90.66684,28.31201-140.14313c0-50.54929-10.97437-97.54184-32.90454-140.95779
			c-21.93042-43.41595-50.99854-78.58585-87.20459-105.52957c-36.2063-26.92385-76.74683-40.39571-121.62183-40.39571h-370.21375
			V687.21942z"/>
	</g>
</g>
<g>
	<path style="fill:#004680;" d="M96.77699,1205.94568V36h446.70233c45.8894,0,87.96088,10.45162,126.21436,31.33499
		c38.25342,20.88337,71.65607,48.64176,100.20782,83.25531s50.74023,73.36003,66.547,116.21964s23.71936,86.81204,23.71936,131.8772
		c0,62.65012-13.00323,121.72363-39.00964,177.22052c-26.00647,55.51678-61.71466,100.84027-107.08759,136.01019
		c-45.39142,35.16986-99.19342,52.75482-161.40601,52.75482H174.79636v441.27301H96.77699z M174.79636,687.21942h374.80649
		c47.93671,0,89.25195-13.73016,123.92719-41.21039c34.67529-27.48022,61.17975-63.20648,79.55023-107.17877
		c18.35211-43.95245,27.53735-90.66684,27.53735-140.14313c0-51.66202-10.97437-99.19104-32.9046-142.60699
		c-21.9303-43.41595-50.99847-78.30768-87.20465-104.69504c-36.20612-26.38737-76.23022-39.58105-120.07233-39.58105H174.79636
		V687.21942z"/>
</g>
<path style="fill:#A7A8AA;" d="M1378.10986,917.07111c-0.10986,2.65155-1.00073,12.76709-1.30249,16.37085l-0.96082,11.47119
	c-0.2052,2.44946-0.0929,4.85474-0.90552,7.14001c-0.63257,1.82922-1.39136,1.85651-1.97839-0.00702l-0.98132-5.05817
	c-0.49683-2.5614-0.68579-5.04425-0.93518-7.61542l-0.95581-9.85199l-0.93665-12.53467
	c-0.96655,3.02258-0.11816,6.21252-0.44739,9.73938l-0.3772,4.03918l0.13586,46.53198l0.59106,16.58221l0.36414,15.60223
	l0.57104,14.16449l0.3606,14.64026c0.11194,4.5437,0.2782,8.92859,0.87354,13.47827
	c0.72327,5.52673,0.31104,11.14185,0.77808,16.98425l0.99634,12.46423c0.58752,7.35132,1.10071,11.08765,1.95874,18.05029
	l0.84973,6.89514c0.29175,2.36743,0.42676,4.44604,0.81299,6.73828l0.96875,5.75c0.39465,2.34302,0.62012,4.37915,1.00732,6.74084
	l0.94385,5.7561l1.12842,6.70093c0.7655,4.54626,2.42639,8.92676,2.14465,13.44727c-0.13782,2.21228-0.76392,3.78772-0.08508,6.2677
	l8.28149,30.25635c0.37891,1.38416-0.45288,2.4729-1.55469,1.49451c-6.35669-9.16772-8.60596-14.89514-12.99658-24.24963
	c-0.7937-1.69092-2.53931-2.71838-3.79321-4.27686c-0.3147,3.07153,2.39905,10.75732,1.27637,11.63672
	c-2.48108,1.94348-6.26819-6.46301-6.64734-9.68054c-1.77112,0.51953,0.59473,6.94653,1.45435,9.73242
	c5.02258,16.27686,11.11804,31.51135,18.23303,46.97705c3.45789,7.51648,6.99072,14.27991,10.31506,21.4657l4.24634,9.17883
	c1.24634,2.69409,1.51941,5.10742,2.28052,7.6626c1.08423,3.64014,9.25159,13.0415,9.64331,14.18604
	c0.56616,1.65393,3.09509,1.88684,3.0105,4.38989c-3.8186-2.22339-6.27759-4.90222-8.93176-8.35974l-5.53271-7.20752
	c-7.52881-9.80774-7.43384-14.2417-12.64905-22.58826c-1.1394-1.82361-2.37769-3.26074-3.40332-5.21594
	c-5.15259-9.82349-9.83862-19.33533-13.91296-29.53479l-7.66211-19.18079c-1.03296-2.58569-1.86987-5.08228-2.69458-7.6543
	l-3.48364-10.86536c-0.93274-2.90894-1.05432-3.22253-1.87817-5.53906l-1.01489-2.85364
	c1.58789,4.46484-2.55737-11.00439-1.78491-7.79565l-0.93518-3.88489c-0.04724-0.19592-3.04443-10.79883-2.97961-10.60095
	c1.9314,5.89014-3.74854-17.45447-2.7854-12.15271l-0.70544-3.88293c-0.82251-4.52795-1.53552-6.62659-2.11804-10.23083
	c-0.33923-2.09949-0.13684-4.20825-1.49768-6.3573c0.724-1.46606-0.04797-2.5166-1.02649-1.55981
	c0.97705,1.94226,0.23669,3.12012-0.90588,1.69031c0.88477-0.93994-1.46912-11.51233-1.5636-11.83459
	c-0.70984-2.42261,0.07068-4.97205-0.39282-7.55212l-3.79187-21.10718l-0.97131-6.76416
	c-0.37146-2.58716-0.97363-4.87915-1.01135-7.42114c0.05298,3.5741-0.95081-6.51868-1.26843-7.37524
	c-1.38879-3.74524,1.36145-10.45642-2.22241-11.11194c-0.29541,7.63025,1.4104,7.71521,1.02661,17.05774
	c0.71948-1.66919,1.3103,8.38184,1.50867,10.12085l1.26685,11.10547l3.91846,27.01196l2.08984,12.42847l1.92883,9.63354
	l3.26477,14.64111c1.13733,5.10046,3.47571,13.2417,5.2312,18.07703c-0.43347,2.22021,0.91785,2.24561,0.9646,0.07751
	l-1.16138-1.97485c2.92688,4.97729-9.21448-33.99951-2.87378-25.17822c-0.87207,0.00854,1.41467,11.03174,1.00562,9.69043
	l0.81531,2.67383c0.53406,1.75146,0.65198,2.93848,0.8938,3.92908l0.94031,3.85022l0.95764,3.84314l0.96545,3.84705l0.94055,3.88257
	c1.86499,7.69885,6.73584,23.12036,10.02283,31.66553l3.95093,10.27124c7.63989,19.86145,16.68359,38.66101,27.61902,57.0481
	c1.18945,1.99988,9.82532,15.16174,7.32385,16.11145c-1.80786-0.8988-2.70605-2.69177-4.07825-4.30164
	c-7.27344-8.5332-13.0144-17.75415-18.68909-27.19812c-1.55945-2.59509-3.49792-4.84412-4.39478-7.99817
	c-0.30029-1.0564-3.07666-5.42151-4.19971-6.54724c0.14966-1.3042-0.20374-2.33044-1.20068-1.10571
	c0.14062,1.23425,0.82349,1.56433,1.1731,2.21069l0.98901,1.82812c-1.60864-2.97339,5.85376,13.51416,5.24255,12.28967
	l12.1543,24.34448c0.43237,0.86609-0.48499,2.09827-1.14966,1.20215c-1.20471-0.84595-1.72852-1.83325-2.47351-2.7876
	l-2.95813-3.78906l-3.63196-4.94104c-17.19702-23.39465-33.02234-63.26978-41.36816-91.26477
	c-4.58508-15.38-12.36255-47.07617-14.33765-62.56079l-0.74048-5.80566c-0.28723-2.25183-1.4812-8.70215-2.20056-10.3219
	c-0.09631-0.21692-2.375-16.24451-2.67285-18.47131l-1.32605-9.91602c-0.38721-2.89514-0.66321-5.67236-0.94092-8.63721
	l-0.98596-10.52271c-0.40662-4.33972-0.51733-8.60645-0.89685-13.18903l-0.55652-6.72192l-0.48523-14.6449
	c-0.10071-3.03857-0.47961-6.07904-0.47937-9.39508l0.00366-45.04028c0.00024-3.64081,0.38428-6.99194,0.4823-10.35596
	l0.48242-16.5661l0.55847-11.51892c0.37878-7.81049-0.03979-15.26935,0.86023-22.77985
	c0.53748-4.48511,0.58655-8.84607,0.58838-13.3476c-1.71606-1.12115-10.04736,0.61896-6.86755,0.3255l-6.0835,0.56146
	c11.12585-1.02679-16.94702,2.34613-6.46912,1.34222l-6.00232,0.57507c11.01611-1.05548-16.93079,2.38336-6.47961,1.35187
	l-5.92419,0.58472c1.74976-0.17273-11.89014,2.58301-10.64746,1.896c-0.19019,0.1051-12.60168,2.60736-14.72864,2.99982
	l-21.07971,3.88983l-8.56763,1.64832c-2.35815,0.45367-4.49243,1.00146-6.47937,1.31543l-4.15479,0.65662l-4.79321,1.02179
	l-5.8009,1.03668l-3.79871,0.85724l-5.81506,1.06372l-3.78979,0.88446l-6.72485,1.16071l-29.75842,5.80518l-14.65723,2.30859
	l-24.70947,3.45459c-14.5802,2.03839-45.00122,3.0578-59.54321,1.76923l-10.57617-0.93719
	c-16.16711-1.43262-37.30505-6.53027-52.04401-12.44861c-4.513-1.81219-10.89093-5.28156-15.38391-7.74921
	c-9.52771-5.23279-16.51428-10.05249-24.6261-17.61407l-4.34509-4.05035c-10.99719-10.25128-21.46088-28.55847-27.29547-42.20679
	c-6.19562-14.49255-11.11292-39.12555-13.10797-55.51111c-1.09631-9.00421-2.35834-50.52399-1.271-56.38794l0.58038-3.13
	c0.72009-3.88342,0.29407-7.60571,0.72833-11.57928l1.2558-11.49121c0.99915-9.14307,6.80206-41.22064,9.04602-50.47101
	l0.56677-2.33643c2.44128-10.06354,4.68109-19.95667,7.64807-29.9433l7.90576-26.61029
	c1.75964-5.92279,3.85205-11.45709,5.90961-17.12317l6.35608-17.50299l5.86743-14.37067
	c1.51923-3.72101,2.84521-7.29193,4.474-10.83234l10.01508-21.76904l4.02087-8.4989l0.90814-1.91058l9.16632-18.57504
	l11.17285-21.27399l11.44434-19.37653l8.10565-13.9902l1.09058-1.88998c5.64252-9.77835,11.77057-19.37033,18.11945-28.88776
	l2.01038-3.01367c16.75-25.10934,44.24329-61.85214,63.81067-84.69855l5.76404-6.73004l5.78296-6.70883
	c2.11279-2.45099,3.98242-4.83344,6.56042-7.10867c0.59802-0.5278,0.62354-1.28708,1.06238-1.76132l7.77454-8.4035
	c8.93274-9.65543,13.39307-15.04665,23.17554-24.8313l25.15234-25.1579c8.27966-8.28142,14.45508-13.9021,23.32263-21.77684
	l9.17432-8.14719l6.74866-5.75931l5.77661-4.79852l4.81152-3.87172c-1.1731,0.94395,7.5896-5.51855,5.81335-4.41747l7.69788-4.77171
	l15.9137-9.233c6.39087-3.7079,12.89746-6.47058,20.05933-8.7811c9.77747-3.15433,19.24829-6.35968,29.63013-7.99786
	c4.93396-0.77853,12.47644-2.42607,17.28699-2.76636l8.60547-0.60878c7.49487-0.53019,22.57239-0.0128,29.07849,1.05229
	l5.77808,0.94591c3.73657,0.61168,7.29761,1.33531,11.34827,2.59476l1.896,0.58951
	c28.16895,8.7585,47.89246,22.04974,66.73511,45.3562c17.59631,21.76492,30.01599,51.43735,36.03809,78.9012l0.49902,2.27585
	c0.39246,1.78992,0.80212,3.52051,1.11597,5.35794l1.02063,5.97443c0.32458,1.90057,0.68994,3.70157,0.91992,5.51959
	l1.10962,8.77042l0.74927,7.96497c1.02417,10.88574,0.38513,24.09119-0.96509,34.96942l-0.84827,6.83411l-1.08118,6.44733
	c-1.25757,7.49933-3.45093,16.9769-5.45776,24.51559l-8.15906,30.64874l-12.1001,45.98816l-1.11853,4.90527
	c-0.96643,4.23871-1.40479,5.37552-2.41809,9.62476l-13.25879,55.59784l-7.65149,34.61163l-1.18872,5.76959l-0.87109,3.79608
	l-1.03564,4.82379l-1.02881,4.86194l-11.30164,57.4873l-5.72021,32.71143l-1.10059,6.70691l-0.94775,5.75616l-0.97266,5.76105
	c-0.38696,2.29181-2.48755,17.14655-2.66504,17.49957c0.07239-0.1441-2.66797,17.86243-2.93652,19.96393l-0.98291,7.68958
	c-0.28638,2.24115-0.62756,4.41992-0.92798,6.7124l-3.55078,27.09326l-1.0083,8.39569l-0.97717,8.63885l-0.98328,8.63989
	l-0.85754,8.8855l-1.16736,12.2373l-0.81799,8.6463c-0.23474,2.48157-1.40527,14.18335-1.01172,15.13306
	c0.67578,1.63074,7.19287,0.50507,7.229,0.48871c0.43042-0.19507,30.76587-2.31012,34.34045-2.45325l12.72046-0.50958
	l9.36877-0.50391l11.76294-0.40985l17.03223-0.58655c1.32117-0.04553,2.51794-0.05212,3.86328-0.05328l42.19226-0.0365
	c-5.0365,0.00433,12.33704,0.28998,5.75342,0.01825l16.0896,0.664c4.9967,0.20618,46.81018,2.07703,48.09998,2.86053
	c-1.06445-0.64661,60.61328,5.60052,70.02197,8.58282c0.99829,0.31647,1.88831,0.36694,3.04724,0.5448l7.81567,1.19928
	l7.32642,1.21222c2.09314,0.34637,5.40076,1.06366,7.92847,1.52179l18.46692,3.3468
	c1.11694,0.20245,2.30029,0.49402,3.50903,0.74207l5.48767,1.12628l29.21448,7.45544
	c42.81384,10.92596,83.30115,27.46033,122.02893,48.28369c9.60156,5.16266,17.37891,12.60168,27.07605,16.62109l1.31396,0.54468
	c-1.72522-0.71509,3.83923,2.89056,3.41101,2.44244l0.96765,1.01288l1.41064,0.37054c0.98608,0.74219,1.599,1.95325,0.28516,1.30939
	c-3.15161-1.24561-6.29675-3.56732-7.62244-4.28522l-7.56262-4.09515l-6.6427-3.94427
	c-3.62964-2.15515-14.29016-8.31757-17.61646-9.94427l-13.03992-6.37708c-2.90479-1.42059-5.4502-2.81464-8.21301-4.03577
	l-18.08777-7.99445l-21.09131-8.42639l-2.23108-0.88031l-3.63855-1.31104c-16.49939-5.94489-32.63135-11.08154-49.42139-15.70129
	c-2.76367-0.76038-4.08459-1.30646-6.66492-1.93268l-10.19031-2.47296c-0.81702-0.19824-1.38098-0.52808-1.96118-0.64288
	c-2.78381-0.55109-34.39172-7.6571-34.04297-7.39587c-0.65686-0.49213-1.24939-0.4726-2.24878-0.62958l-19.14722-3.00732
	c-7.61279-1.19568-10.37-1.9342-18.047-3.03467l-13.4707-1.93097l-8.86438-1.06183l-7.67834-0.99133l-9.59741-0.94812
	l-8.40027-0.84644l-11.51514-0.97913l-11.53577-0.92157l-16.30334-0.96625l-19.18469-0.99475
	c-3.8645-0.20038-7.6521-0.54016-11.85315-0.53967l-70.88708,0.00824c-4.19861,0.00049-7.98804,0.32294-11.84924,0.50293
	l-21.10535,0.98413l-18.22693,0.8894c-4.77222,0.23291-11.65698,0.98877-17.04285,1.32227l-10.85718,0.67236l-1.9541,0.42566
	c-0.61438,0.13379-1.1134,3.47528,0.3147,3.46997c3.95911-0.01489,7.58911,0.23907,11.51819-0.32349
	c6.38049-0.91351,12.68665-0.64874,20.45703-1.21356c11.89709-0.86481,24.44739-0.10754,35.54407-0.92242
	c9.70044-0.71234,19.39441-0.39307,29.44055-0.41425l19.21387-0.04059c8.75952-0.01849,17.15247,0.02814,25.63098,0.43451
	l7.00879,0.33594l22.74866,0.57666c4.2168,0.10693,8.35535,0.1748,12.7854,0.61707l8.60522,0.85901l6.72852-0.00867
	c1.52893-0.00195,2.5791,0.54456,3.85632,0.9101c3.57104,1.02216,7.00134-0.65411,10.63525,0.7984
	c-4.91394,1.17792-9.70312-0.15875-15.16406,0.46259c-1.16199,2.43927,5.47229-0.87103,6.35913,2.6001
	c-4.85779,0.93323-2.45178,0.20361-5.68396,0.16461l-1.90027-0.02295l-2.79944-0.01172
	c-1.30933,0.37708-1.33264,0.8316,0.00073,1.17584c2.15942-0.32404,2.46069,0.0556,3.71606,0.15894l15.38647,1.26624
	c3.02881,0.24927,5.46411,0.5694,8.58142,0.89233l8.69836,0.90112c2.93762,0.30438,5.64941,1.30811,9.18213,0.95575
	c2.41736,0.91718,0.74329,2.09668-1.35059,1.64246c1.01855,0.6319-5.75171-0.90527-4.04065-0.29291l-1.13647-0.40674
	l-16.1416-1.65613l-2.79565-0.25403l-16.65759-1.83649c-1.36084-0.15002-2.79126,0.02222-4.51611-0.09827
	c-5.88696-0.41113-2.01196-1.35004-6.68506-1.30768l-8.68298,0.0788c-3.11243,0.0282-4.76233-0.91266-4.73059-0.90942
	c-5.8479-0.59882-11.32031,0.51886-17.20471-0.40985c-1.94446-0.30688-3.71619-0.83337-5.83081-0.83636l-41.30164-0.05829
	l-1.89954-0.60596l-9.68335,0.08752c-0.97046,0.00873-1.79333,0.34485-2.86011,0.35004l-29.7345,0.14514
	c-4.21936,0.02063-32.06262,1.26245-35.27527,1.57416c-4.52417,0.4389-8.94775,0.68329-13.45447,0.98401l-13.41724,0.89526
	c-0.94543,0.06311-3.98193,0.48761-4.34387,0.67743c-0.46973,0.24634-0.29663,1.16858-0.05188,1.74646
	c0.26917,0.63556,1.07336,1.16968,2.25085,0.7923c5.81226-1.86279,9.98657,0.12292,14.99219-1.16345
	c3.8219-0.98218,10.21106-0.48199,15.69531-0.56671c1.1366-0.01758,1.85144-0.64185,2.79248-0.75812
	c5.22388-0.64551,13.15564,0.7464,18.98596-0.57349c3.96631-0.89783,28.52246-0.02942,36.82605-0.75433l3.01074-0.26288
	c6.19275-0.54065,12.23767-0.30908,18.35767-0.02142l3.54053,0.16638l40.28052,0.80609l22.10742,1.13007
	c4.38489,0.22418,8.48279,0.53461,12.67834,0.86499l12.29565,0.96838c9.80896,0.77258,10.63855,0.8927,20.19751,1.8725
	l9.58142,0.98212c4.91125,0.50348,9.5343,0.83221,14.1366,1.67834l3.85876,0.70941l20.28699,2.97278
	c1.08972,0.15967,1.92517,0.43671,2.95923,0.61072l13.56335,2.28217l3.76685,0.8457c5.83472,1.31,14.02734,2.34674,21.05798,3.76318
	l6.47949,1.30542c10.27417,2.06989,20.05908,4.66498,29.75012,8.7948c0.03149,0.01343,9.99207,2.77539,5.51245,2.40967
	c-0.74438-0.06079-1.58496,0.30988-2.05408-0.23969c-1.33765-1.56696-3.43176-0.09546-4.73804-0.94891
	c-0.17615-0.11511-12.46826-3.14166-13.80127-3.41565l-12.78894-2.62805c-5.63831-1.15863-20.73865-4.82147-25.73022-5.23804
	c-2.54944-0.21277-18.25085-3.45496-23.15002-4.15674l-18.01428-2.58063l-2.17725-0.4411l-56.32495-5.9306l-13.47986-0.82257
	l-7.60364-0.51105l-9.66516-0.38507l-8.79114-0.42114l-17.88086-0.46167c-0.52051-0.01343-1.10327-0.97705-2.16162-0.72583
	c-2.27112,0.53906-21.55103-0.75446-24.09924,0.61292c7.45203,1.52997,14.11938,0.21295,20.99939,0.85327
	c2.33179,0.21704-0.7323,0.2843,6.10571,0.48706l20.0033,0.59326l5.80127,0.28064c1.93677,0.09369,7.89124,0.6582,9.82727,0.75708
	l9.37646,0.47882l13.39417,1.1601l11.78882,1.05859l9.12073,0.88208l17.87561,2.02655
	c31.0155,3.51617,61.25281,9.02594,91.82056,16.50726c15.18591,3.71667-16.34241-0.88733-7.63806-0.52771l-1.86316-0.07703
	c-0.54211-0.0224-0.85779-0.44421-1.30249-0.51929l-4.3197-0.72937c1.71521,0.28961-28.57373-5.9527-24.95642-4.81134
	c-3.07422-0.96997-10.99622-1.8053-11.42725-1.95721c-2.76184-0.97375-22.03857-3.08105-26.36316-3.6803l-8.24719-1.14282
	l-8.64465-0.95947l-8.66199-0.95575c-9.32361-1.02881-13.33154-1.33734-22.57922-2.0072l-11.93127-0.86432
	c-0.67761-0.04907-1.15649-0.64954-2.23425-0.58032c-5.8772,0.37744-11.40662-0.4505-17.29089-0.62732l-37.42578-1.12439
	l-36.47302,0.02594l-24.00513,0.55109l-20.39771,0.82318l-18.25574,0.99017l-15.37292,0.9588
	c-2.58301,0.16107-19.16626,1.22754-19.87097,1.78998c-1.88367,1.50354,0.12781,4.78375-0.24963,4.50769
	c1.38684,1.0144,4.68481-0.48401,11.7384-0.14862c1.09912,0.05225,1.60547-0.72034,2.19348-0.80762
	c3.96704-0.58868,7.93958-0.23816,12.22021-0.17969c1.05798,0.01447,1.60327-0.69696,2.17676-0.77887
	c4.98389-0.71185,14.66919,0.56885,15.32812-1.19501l18.04907-0.00488c0.57153-0.00018,0.88123-0.46375,1.1626-0.99835
	l25.66907,0.13171c1.5929,0.00812,2.62756-0.97168,3.76953-0.97546l50.34558-0.16797
	c1.22791,0.73077-0.04468,1.30292-1.28918,0.96954l-47.75171,0.19446l-2.18359,0.88879l-25.67529,0.07739
	c9.08679-0.0274-2.63098,0.81818-4.09497,0.8158l-1.89368-0.00305c-3.6781-0.00598-6.94336,0.19055-10.58691-0.13068
	c-1.08289-0.09546-1.6156,0.75275-2.17578,0.8222c-5.22095,0.64752-14.995-0.54724-16.29199,1.12585l-12.01428,0.18512
	c0.43628,1.51398-8.83521,0.61658-12.87708,1.04327c2.13721-0.22565-6.45764,1.47363-6.41125,1.43365
	c-0.40466,0.34924-0.90967,1.09601-0.47302,1.92853c0.11157,0.21289-1.28125,12.41089-1.32666,13.74719l-0.39209,11.51093
	c-0.0564,1.65796-1.22046,13.35547-1.3446,16.35278L1378.10986,917.07111z M1787.55652,1145.13318l6.82507-5.71228l8.66382-7.6958
	c5.60181-4.97595,11.06689-9.86926,16.06104-15.66956c2.00024-2.32312,3.68518-2.6394,2.34766-4.17566l-6.88562,6.19104
	c-2.85425,2.56628-5.88879,4.89673-8.81323,7.68372c-9.74548,9.2876-19.52625,17.79419-30.32031,25.96655
	c-2.09802,1.58838-8.70105,5.82373-6.05737,8.22546c0.98303,0.89307,4.01514-2.66138,7.35681-5.52844L1787.55652,1145.13318z
	 M1553.25891,1309.12866l2.63672-1.396c2.24512,0.30286,2.31128-0.89514,0.00781-1.12866
	c-1.19458,1.27539-14.45605,4.98254-15.34204,5.14404c-5.18372,0.94495-9.65295,3.05823-14.70068,4.22485l-5.49329,1.26953
	c-2.01489,0.4657-3.3844,1.41211-4.6925,2.97253c-1.47107-0.07812-1.42712,1.17322-0.19067,1.36523
	c7.86951-2.3197,19.1051-5.04871,25.95605-8.23694C1545.45129,1311.47681,1549.62854,1311.05078,1553.25891,1309.12866z
	 M1084.08081,1248.60474l-3.39917-1.17944c-0.87805-0.30469-1.77808,0.27332-2.41492-1.12585
	c-1.69739-0.09656-1.75977,1.07715,0.04651,1.16089c1.58679,1.08667,2.95813,1.77014,4.68994,2.43445l2.72852,1.04663
	c4.26477,1.63586,27.8418,13.65991,30.23108,9.10413C1104.54077,1255.22131,1095.14368,1252.44348,1084.08081,1248.60474z
	 M1401.00256,1306.15747l-11.16565-0.53894c4.66589,0.22522-8.64746-2.46301-10.71289,0.60645
	c-2.81763,4.18713,22.77185,0.85046,24.99048,1.28418L1401.00256,1306.15747z M1235.77954,1295.66614
	c0.58655,0.17834-16.34509-1.85608-17.93982-1.08667c7.73389,4.75635,9.28918,1.05554,13.88367,2.31287
	c2.76001,0.75525,5.60266,0.41199,8.24951,0.04895L1235.77954,1295.66614z M1640.75366,1273.47021l-14.1344,7.21069
	c6.36414-3.2467-7.69373,3.02271-4.59521,1.53333c0.64209,1.17932,1.40918,0.71265,2.39478-0.16663
	c3.02454-0.94043,19.19189-6.4519,19.56763-9.90393C1643.09058,1273.53247,1641.71167,1272.98145,1640.75366,1273.47021z
	 M927.98767,1164.75134l-3.86188-2.84021l-4.65808-3.91626c-1.18915-0.13074-1.61194-1.31665-2.79883-0.95239
	c-0.78986-1.27539-1.40601-2.32812-3.11688-1.73523c0.40723,0.81274,0.91095,1.70276,2.08484,1.703
	c1.58179,0.57776,1.9967,2.55701,3.79236,2.91565l4.60193,3.98584l2.13269,0.78821l2.75043,2.04541
	c1.02045-0.24939,0.97949,1.14001,2.07404,0.69727C930.10999,1166.36829,929.45099,1165.22412,927.98767,1164.75134z
	 M1992.27515,860.86353c0.52576-1.5401,0.60864-2.74078-0.28113-4.25781c0.13147-1.47424-0.68408-2.59564-1.28418-1.23792
	c-3.41882,6.48676,2.21631,1.58746-1.07068,9.13947c0.48901,1.03522,1.12451,0.78381,1.48181-0.26294L1992.27515,860.86353z
	 M1177.69556,1283.83093c-1.05408-0.10266-1.724,1.01782-2.05786,1.79529c1.72864,0.35535,3.12439-0.59753,4.1687,0.94006
	c1.44043,0.1853,2.81042,0.21387,4.37317,0.00464C1198.05347,1286.73767,1164.5979,1282.55554,1177.69556,1283.83093z
	 M898.19647,1139.90796c0.47235,2.58618,2.56879,4.19141,4.88745,4.20105
	C902.14441,1141.49353,900.55627,1140.03479,898.19647,1139.90796z M1602.80151,835.03717
	c2.93164,0.73468,5.46863,0.80792,7.87061-0.07428C1607.74048,834.22827,1605.20349,834.15497,1602.80151,835.03717z
	 M1614.34033,836.01355c1.91052,0.72607,3.59338,0.78973,4.95288-0.10706
	C1617.38281,835.18048,1615.69995,835.11682,1614.34033,836.01355z M1240.88806,1297.95959
	c1.73279,0.37878,2.91016,0.57532,3.9209-0.18408C1242.52014,1296.93445,1241.42603,1296.82373,1240.88806,1297.95959z
	 M1623.92798,837.15961c1.73291,0.37872,2.91028,0.57538,3.92102-0.18414
	C1625.56018,836.1344,1624.46606,836.02374,1623.92798,837.15961z M1631.60803,838.11957
	c1.73279,0.37878,2.91016,0.57538,3.9209-0.18408C1633.24023,837.09442,1632.146,836.9837,1631.60803,838.11957z
	 M1343.04163,1110.9198c-0.50769,1.68188-0.63318,3.01245,0.14929,3.92249
	C1344.20691,1112.58398,1343.9939,1111.5531,1343.04163,1110.9198z M1343.61658,1118.86414
	c0.14026,2.3125,0.98938,1.90283,1.48828-0.67993C1344.49341,1116.15967,1343.40686,1116.76636,1343.61658,1118.86414z
	 M1715.94666,870.16888c1.11438-0.10681,1.54773-0.63116,0.53198-1.16632
	C1713.99878,868.85803,1713.70496,870.02002,1715.94666,870.16888z M1342.83838,1107.7301
	c-0.24805-0.34595-0.82642-1.05322-1.06335,0.22046c-0.19031,1.02258,0.01746,2.23511,0.55103,1.98022
	C1343.42676,1109.40466,1343.26624,1108.32678,1342.83838,1107.7301z M1720.01685,869.73621
	c-0.43286,0-0.78381,0.35095-0.78381,0.78381c0,0.43292,0.35095,0.78387,0.78381,0.78387s0.78381-0.35095,0.78381-0.78387
	C1720.80066,870.08716,1720.44971,869.73621,1720.01685,869.73621z M1630.73682,843.81622
	c-0.43286,0-0.78381,0.35089-0.78381,0.78381s0.35095,0.78387,0.78381,0.78387s0.78381-0.35095,0.78381-0.78387
	S1631.16968,843.81622,1630.73682,843.81622z M1289.93677,1306.53625c-0.43286,0-0.78381,0.35083-0.78381,0.78381
	c0,0.43286,0.35095,0.78381,0.78381,0.78381c0.43298,0,0.78381-0.35095,0.78381-0.78381
	C1290.72058,1306.88708,1290.36975,1306.53625,1289.93677,1306.53625z M1723.85681,870.69623
	c-0.43286,0-0.78381,0.35089-0.78381,0.78381s0.35095,0.78381,0.78381,0.78381s0.78381-0.35089,0.78381-0.78381
	S1724.28967,870.69623,1723.85681,870.69623z M1741.13684,870.69623c-0.43286,0-0.78381,0.35089-0.78381,0.78381
	s0.35095,0.78381,0.78381,0.78381s0.78381-0.35089,0.78381-0.78381S1741.5697,870.69623,1741.13684,870.69623z
	 M1727.69678,871.65619c-0.43286,0-0.78381,0.35095-0.78381,0.78387c0,0.43286,0.35095,0.78381,0.78381,0.78381
	c0.43298,0,0.78394-0.35095,0.78394-0.78381C1728.48071,872.00714,1728.12976,871.65619,1727.69678,871.65619z
	 M1731.53687,872.61621c-0.43298,0-0.78394,0.35095-0.78394,0.78381c0,0.43292,0.35095,0.78387,0.78394,0.78387
	c0.43286,0,0.78381-0.35095,0.78381-0.78387C1732.32068,872.96716,1731.96973,872.61621,1731.53687,872.61621z
	 M982.49304,1198.38928c-1.11688-0.41589-2.34058,0.51147-0.94501,0.81995l4.49176,2.81934
	c1.18481,0.61316,1.9884-0.30176,0.6507-1.16882C984.50446,1200.48987,983.30646,1199.90576,982.49304,1198.38928z
	 M1344.63391,1350.0072c4.37646,0.24377,7.53455-0.82263,12.52917-1.54785l6.71472-0.97485l5.73438-0.97339
	c-2.72327,0.46228,13.23645-0.96179,11.52185-0.87329l10.58521-0.54675c3.19397-0.16492,21.41113-2.59668,26.86292-3.20837
	l7.87305-0.88342l12.27954-2.0647l10.55212-1.92664l6.71008-1.14539l8.66577-1.74963l23.04211-5.66382
	c1.19275-0.29309,17.68713-5.32324,17.34094-5.13489l9.99695-5.43726c2.63599-1.43372,4.02222-3.41223,7.0127-4.57703
	l27.34814-10.65222l41.21582-13.62854l31.6488-11.47742l24.85913-9.83594l11.60242-4.95691
	c1.55505-0.66443,3.00659-0.81287,4.55896-1.51624c-0.80408,3.50854,0.33899-1.46875-4.28699,3.87158
	c1.67529,2.35754,7.31824-1.35474,9.61621-3.00293c4.02734-2.88855,8.41663-4.69446,12.37708-7.52893l3.45801-2.47485
	c2.6283-1.8811,5.88147-2.95105,8.90137-4.21338c10.10461-4.22363,19.39929-9.08618,28.87122-14.48486
	c17.10168-9.74719,67.51685-44.73987,80.52246-57.56897l13.80676-13.61926c1.85425-1.8291,3.25513-3.78516,4.91406-5.66797
	l8.4425-9.58142c2.02673-2.30005,4.27039-4.09924,5.98047-6.75183c1.0376-1.6095,2.40015-3.23914,3.70154-4.91565
	c3.82959-4.93298,3.92871-6.54126,7.29456-11.05322c-0.44995-1.125-0.90784-0.66589-1.52295-0.03784
	c-2.73035,1.34473-4.61401,3.52808-6.73083,5.35449l-7.70801,6.65027l-6.27649,5.29089l-5.69727,4.85364
	c-2.37695,2.0249-4.38745,3.98071-6.74976,5.9292l-5.78052,4.76831c-1.76367,1.45483-3.70227,2.76636-5.25171,4.05688
	l-3.82068,3.18213l-6.32751,5.00085l-4.22754,3.40503l-4.3512,3.44641c-2.23706,1.77185-4.328,3.31494-6.67712,4.97864
	l-4.38586,3.10608l-15.1676,10.82397l-11.61389,7.49524c-0.65857,0.42505-1.60107,0.84949-2.61035,1.31201l-19.06775,8.73694
	c-2.56628,1.17578-11.53723,5.72229-12.17065,4.31055c-0.22827-0.50879,0.04126-0.96545,0.49121-1.48315
	c4.74207-5.45679,11.02856-9.17566,17.36646-15.22852c1.5813-1.51025,6.44165-4.04504,8.62952-7.10303
	c-0.16431-0.70508-0.67444-0.56653-1.08154,0.32141c-3.09851,0.86584-5.49963,2.92188-8.51709,4.63928l-21.38086,12.16895
	l-36.47803,19.99622c-29.91223,16.39709-60.65356,30.79578-92.97644,42.34692l-26.422,9.44238
	c-10.91333,3.90002-21.63062,7.3064-32.96509,10.26514l-23.93066,6.24695l-8.02539,1.99072
	c-1.69287,0.4198-3.50464,0.83533-5.46509,1.23438l-23.97668,4.88074l-14.4458,2.54919l-7.62634,1.26294
	c-10.43359,1.72791-24.98608,3.59192-35.55908,4.60046l-8.79492,0.83899c-11.00134,1.04944-10.56274,1.09863-21.15356,2.9248
	l-5.82239,1.00391c-15.16235,2.61438-24.45837,3.5415-40.01013,1.88635l-19.5166-2.07703
	c-7.46436-0.79431-15.00671,0.39417-22.74011-0.83203c-5.50378-0.87268-10.8656,0.104-16.03394-1.01526
	c-1.36426-0.29541-15.78699-1.28357-17.24561-1.84741c-0.3335-0.12891-6.93994-1.21484-8.98523-1.65198l-4.77661-1.021
	c-1.09143-0.23328-9.02466-1.96985-8.61584-1.89539l-10.64404-1.94055c0.13086,0.02393-6.46582-1.66809-7.72595-1.92529
	c-23.47375-4.79272-46.05115-10.67493-68.93921-17.12244c-1.12012-0.31555-1.88721-0.50488-2.89526-0.82959l-7.58081-2.44104
	c-0.58875-0.18958-1.12268-0.23169-1.979-0.49268l-2.98364-0.90955c-3.60217-1.09802-5.0697-1.62915-8.6991-2.88733
	l-15.99426-5.54443c-0.96167-0.33337-1.93262-0.54773-2.79492-0.88l-21.28308-8.20056l-3.10315-1.00952
	c-0.93933-0.30554-1.7594-0.7738-2.62402-1.14832l-21.36328-9.25159l-31.73523-15.25745l-2.54718-1.30176
	c-3.88684-1.98657-20.58051-11.0011-23.34589-13.04211l-3.3291-2.45728c-1.73114-1.27771-3.32983-2.49353-4.88824-3.92114
	l-5.87817-5.38489c-2.74316-2.51282-10.19562-8.21179-13.46527-10.83655l-12.77899-10.25891l-14.85327-11.95264l-8.12799-7.25769
	l-22.17932-21.72803c-4.44757-4.35706-8.83423-8.35986-13.26105-12.88098l-10.83569-11.06677
	c-1.63922-1.67407-3.61493-3.41541-5.05469-5.33276c-6.46674-8.6123-12.92651-16.80994-20.53961-24.54065
	c-1.26807-1.2876-2.2594-2.95923-3.32391-4.30322l-3.81427-4.81555c-1.44153-1.81995-3.11914-3.24573-4.52472-5.30334
	l-3.86237-5.6543c-1.77716-2.60168-3.75323-5.08179-5.87817-7.69373l-0.84192-1.03491
	c-1.61389-1.98364-2.86884-3.90747-4.93274-5.87585c-0.85919-0.81934-1.05731-2.0177-2.31836-3.24158l-1.38104-1.34033
	c-1.38525-1.34448-2.11462-3.00867-3.48022-4.33838c-5.26941-5.13123-5.51508-6.28357-9.87756-12.08374l-3.21173-4.27014
	l-2.32965-3.50696l-1.44269-2.57434c-3.53021-6.29932-7.58826-11.9248-11.11798-18.49066l-7.07599-13.16266l-7.09174-12.93237
	c-1.06122-1.9353-1.79004-3.58502-2.61664-5.05817l-6.91125-12.31677l-5.45862-14.78229
	c-1.14233-3.09344-3.08771-5.83209-4.87189-8.73932c-1.9176-3.12457-3.08478-6.30255-4.52112-9.76044l-1.14008-2.74457
	l-1.3111-4.07123c-0.53986-1.67639-0.69495-3.1499-1.35956-4.72369l-4.85126-11.48694
	c-0.75793-1.79456-2.17609-4.97839-2.77258-6.82678l-4.96539-15.38696l-1.04987-2.62897
	c-0.45966-1.151-6.51434-24.03308-7.59015-27.95117l-3.24493-11.8183l-4.9223-19.99023l-1.13361-5.74707l-2.26935-8.38708
	l-2.49677-12.7337c-0.35828-1.82703-0.00421-3.44305-0.75763-5.10699c-0.08911-0.19684-3.63556-20.71283-4.15936-23.6521
	l-0.85504-4.79877l-0.94696-4.80341c-0.07312-0.37085-1.76031-13.27026-1.87775-14.42719l-2.82629-27.84143l-0.6452-23.70801
	c-0.18457-6.78131-0.54553-13.40424-0.62817-20.43341c-0.0636-5.41119,0.47363-10.45038,0.66455-15.63531l0.5553-15.07935
	c0.12775-3.46796-0.06769-6.6535,0.44196-9.86536c0.48016-3.02655,0.16046-6.04614,0.43555-9.35309l0.64142-7.71069
	c0.50226-6.0376,0.78784-17.74963,2.62793-23.35333c-0.59137,1.80096,3.71606-29.46906,4.86035-34.49426l1.03247-4.53418
	c0.43414-1.90668,0.53235-3.45514,0.92517-5.22729l1.0094-4.55402c0.7677-3.4635,1.36481-6.80066,2.78833-10.10211
	c0.25098-0.58215-0.00684-1.29694,0.21783-2.12317l6.21082-22.84045c1.12555-4.13922,2.40863-7.93185,3.86713-12.7225
	l8.03455-26.39087c1.79205-5.88623,2.95728-9.8009,4.96057-15.94049l2.1709-6.65314l0.78674-1.96017
	c1.08722-2.70865,7.48712-17.16364,8.53088-19.21304l0.79572-1.56238c-0.36407,0.71494,6.30359-13.37949,5.77612-12.10141
	l0.58765-1.42389c0.35547-0.86142,0.75671-1.62427,1.22522-2.47748l3.06024-5.57355
	c1.46808-2.67368,2.56366-5.32971,3.60107-8.22171c2.99017-8.33551,11.39703-22.27063,16.88403-29.92734
	c0.6261-0.87369,0.82373-1.93372,1.27686-2.65085l4.45093-7.04434l2.91364-3.80902l10.20288-16.64661l1.33807-2.22034
	c1.23657-2.05197,11.18585-17.51788,11.80688-18.30627l5.00171-6.34967c0.09503-0.12067,4.51184-6.06915,3.99677-5.63171
	l0.99182-0.84232c0.34625-0.29401,0.53815-0.64478,0.85968-1.04434l0.86792-1.07849l0.90399-1.40784l0.46246-1.1774
	c0.64661-1.64636,7.63562-7.01172,10.74762-12.17862c-2.81427,4.67255,8.19574-11.17697,6.54865-8.96729l2.87164-3.85251
	c2.00836-2.69421,4.74707-4.69452,6.89514-7.30966l3.8985-4.74609l14.80487-14.94427
	c0.67285-0.67914,1.40155-1.00551,2.1048-1.58322c4.38373-3.60156,7.75104-7.66748,11.69775-11.51413l5.35229-5.21652
	c5.32336-5.18835,10.40582-10.13893,16.51276-14.8887l25.94897-20.18234l4.18848-2.87112
	c0.72876-0.49959,1.11475-1.0842,1.83508-1.5544l10.62878-6.93813l17.73602-12.06203l9.98132-7.02042
	c0.46558-0.32747,0.77362-0.67627,1.13751-0.91061l8.18622-5.27147c2.73657-1.76221,6.27606-3.85802,8.8551-5.29596
	l15.42828-8.60219c1.86322-1.03885,2.41461-1.31842,4.42731-2.33734l16.84869-8.52972l20.74927-9.72966
	c6.36511-2.98465,11.62805-3.12016,12.10669-3.34013l26.94128-12.38112c3.66089-1.6824,7.00122-3.41797,10.71436-4.68457
	c5.38599-1.83727,16.41223-5.88311,21.4751-7.11966c16.54358-4.04062,32.38293-9.23904,48.67639-14.70071
	c3.84375-1.28844,7.7124-1.20989,11.58704-0.87575c4.36414,0.37635,8.28113-1.06611,12.479-1.90145l4.78308-0.95177
	c3.64551-0.72541,6.08228-1.28091,9.64136-1.78773l4.51379-0.64278c7.54004-1.07373,11.54211-2.03223,20.45105-3.15571
	l6.99231-0.88177c21.65369-2.73071,24.31799-2.19933,45.74878-2.68748l16.33508-0.37209l13.36987-0.44079
	c3.77319-0.1244,7.27539-0.26611,10.89636-0.13613l17.0094,0.61058l6.01392,0.34776l8.47778,0.41606l2.77441,0.67185
	c-3.99683-0.96786,22.66992,1.94667,18.57117,1.78683c5.91138,0.23053,29.78906,4.05781,37.1908,5.50239
	c23.19885,4.52769,45.64038,9.81435,67.80383,17.25958l2.16223,0.72634c15.03125,5.04935,29.34009,10.35101,43.64282,16.79604
	c3.38892,1.52711,7.32324,1.49041,11.11975,2.60118l13.2262,3.86968c9.58374,2.80398,18.68054,6.16568,28.04578,10.19964
	l15.43518,6.64851l28.15051,14.0712c1.38599,0.69275,4.34399,2.36134,6.28601,3.46747l10.92407,6.22223
	c0.49194,0.2802,0.94751,0.37375,1.41528,0.63792l2.31934,1.30969l22.125,14.35088l7.65674,4.83131
	c1.0354,0.65329,1.92529,1.25053,2.83838,1.98962c4.59985,3.72304,9.14526,5.5612,14.38647,9.70897
	c0.30627,0.24242,0.58838,0.51715,1.00769,0.78877l12.33447,7.99019l24.19836,15.94595
	c2.06946,1.36371,2.84387,2.06244,5.6665,4.0332l6.73584,4.70303c4.9248,3.43855,12.4718,8.84363,17.13147,12.79823l6.27222,5.32324
	c1.56604,1.32901,10.2616,9.07312,11.64099,10.4523l19.52734,19.52409c-0.45654-0.45639,10.83032,11.99527,10.0293,10.94876
	l2.57263,3.36069c0.60352,0.78839,7.11304,8.4841,8.7124,10.41956l3.43591,4.15793l5.07935,6.6442l1.63049,2.00006l4.46985,6.00266
	l3.69006,4.98029l8.5293,11.85315l1.98584,2.80762l2.69531,3.91907l0.90613,1.03503l15.37903,23.07391l2.6554,4.19077
	l1.87036,2.89136c0.66431,1.02698,1.20764,1.93246,1.84412,2.95163l9.20752,14.74344
	c0.66052,1.05774,1.16504,2.01324,1.75879,3.02219l4.16931,7.08569l13.42004,23.98618l1.82678,2.96573l0.66541,1.5502
	l6.89294,13.24582l1.58008,3.02664l1.31482,2.61206l9.40479,19.49847l5.66504,12.487l5.45996,13.54816l1.56921,3.32297
	l4.71094,10.87198c10.76282,24.83881,18.85718,50.49396,25.46851,76.92236l0.98389,3.93304
	c3.97253,15.87994,7.72961,31.26105,10.21692,47.16803l0.56873,3.6366l2.3092,16.05756
	c0.26819,1.86481,0.4729,3.92206,0.88281,5.70227c2.43884,10.59497-3.77917,7.88654-1.8988,17.21429
	c2.71375-0.15979,0.95093-6.12073,2.53674-4.30432c0.8208,4.6756,0.55457-0.91571,0.91479,4.69611l0.11816,1.841l0.08508,2.03601
	c0.09644,2.30603,1.01575,5.12714,1.18872,5.96606l0.34619,1.67889c0.13269,0.64362,0.7196,5.73987,0.75806,6.71838l0.0752,1.92023
	c0.11987,3.05914,2.20288,14.95947,2.14954,13.427l0.06738,1.93433l0.1427,1.94611c-0.10303-1.40424,0.87878,5.18304,0.43579,2.8396
	l0.58203,3.07867c0.12939,0.68463,0.94788,0.95679,1.52124,0.62848c0.84766-3.466,1.72522-6.73541,2.32983-10.39862l1.42676-8.64337
	l2.63354-18.24103l0.24939-2.88379l0.88281-9.56812l0.97229-10.56989c0.12708-1.38245,0.52686-2.48511,0.52014-3.90625
	l-0.23633-49.57739l-0.89978-12.75531c-1.078-15.28064-5.84558-43.2345-9.63098-58.52026l-1.03186-4.1665
	c-4.06409-16.41089-9.71289-32.08224-13.99377-48.67032l-0.78748-3.05148c-6.45691-25.02005-13.45154-50.08142-26.77954-72.30365
	l-21.55261-35.93549c0.45496,0.75876-7.82434-11.43869-8.55371-12.51874l-12.31665-18.2399l-0.92529-1.35458l-0.75952-0.83255
	l-13.02063-17.95639c-2.74194-3.78131-8.55383-11.25589-11.70752-15.17447l-9.40991-11.69254
	c-0.54834-0.6813-12.67297-15.37302-11.84814-13.9072l-0.75403-1.33984c1.11926,1.98898-8.60791-10.63034-6.68909-8.70163
	l-27.32288-27.46313c-4.88721-4.91232-8.97888-10.20552-14.63452-14.25073l-2.14539-1.5345
	c3.15479,2.25647-13.29761-12.31265-12.47278-11.57677l-12.67688-11.31038c-0.75488-0.67357-1.70532-0.7702-2.37317-1.66991
	c-1.7937-2.41666-12.00452-9.59584-14.66577-11.8685l-6.78955-5.79788c3.16016,2.69859-9.96436-7.89677-6.31677-5.19034
	l-6.62109-4.91269c-1.21313-0.90019-2.48108-1.40543-3.38025-2.38206c-2.41663-2.62491-8.12097-5.31911-10.76819-7.83226
	c0.55737,0.5291-9.92822-7.2505-10.35156-7.52086l-2.36047-1.50768c2.17432,1.38875-6.37476-5.02113-5.83508-4.66173
	l-9.27808-6.17947c-4.16333-2.77296-5.62744-3.32455-9.48474-5.92485l-10.34814-6.97581l-8.77197-5.53661l-15.31323-8.66078
	c-6.81104-3.85217-10.08423-5.88036-17.31128-9.47836l-24.74475-12.31928c-1.35986-0.67704-9.28845-3.99027-9.74854-4.24834
	l-1.27429-0.71459l-10.21301-4.29891c-0.93445-0.39332-1.77686-0.81189-2.60547-1.14604l-14.40308-5.80849l-18.77527-7.02551
	c-1.85852-0.69543-22.59009-7.74326-22.65808-7.75189l-2.03577-0.25843c-1.35669-0.17223-2.40295-0.87968-3.56226-1.23985
	l-10.21753-3.17445c3.89111,1.20894-7.33447-2.09465-4.37939-1.2899l-10.60449-2.88789l-26.85815-6.69898
	c-2.72876-0.6806-15.18335-3.34907-18.16211-3.87859l-21.26404-3.78008c-0.66345-0.11793-1.19971,0.05821-1.95276-0.2163
	l-1.23718-0.45101c-0.91162-0.33232-5.9729-0.1728-6.45605-0.82738c-0.24219-0.32793-4.5509-0.59367-6.44312-1.0179
	c-6.6311-1.48673-51.82825-5.70528-60.04065-5.78418l-32.09875-0.30838c-0.30457-0.33397-0.59839-0.94722-1.18445-0.93984
	l-23.77478,0.29945c-0.5116,0.00644-1.11609,0.87172-2.1731,0.85875l-17.30151-0.21228l-11.47449,0.74748
	c-16.16748,1.05317-35.52637,2.96923-51.20508,5.53352l-8.36023,1.36732c-7.29028,1.19236-13.01855,2.00554-19.84644,3.35182
	l-10.20032,2.01128c-22.24768,4.38672-43.44702,11.62526-65.49353,17.12223l-2.3031,0.57424
	c-2.52258,0.62894-4.47632,1.3591-6.62744,2.11798l-16.49939,5.82065l-10.63586,3.81544l-28.42249,11.59985l-27.03137,12.42272
	c0.677-0.31109-7.29297,3.48002-5.91577,2.95037l-1.5636,0.60134c-0.28601,0.10995-0.21509,0.07844-1.31067,0.77435
	l-1.20953,0.62386l-11.62665,6.13164l-1.55951,1.08486l-13.27814,7.00207l-1.14697,0.62537
	c-4.03448,2.19982-7.82245,3.72435-11.39221,6.02316c-4.43176,2.8539-5.92987,3.37663-10.63788,6.51288l-9.9491,6.62759
	c-7.30109,4.86357-17.422,11.24089-23.97522,16.31795l-2.5694,1.9906c-3.12177,2.41855-11.4444,7.87724-15.72888,11.08952
	l-3.82935,2.87106c-6.67456,5.0042-9.72253,7.83144-15.95081,12.91968l-8.93121,7.29637l-8.7879,7.63512
	c-12.39069,10.7652-25.72516,23.4512-36.68463,35.56548c-1.68597,1.8636,0.97125-0.82686-2.66461,2.9814l-0.93561,0.98
	l-7.5434,8.06715l-0.57001,1.12309l-0.9787,0.96173l-0.95557,0.95529c-1.73193,1.73134-4.50366,4.62495-5.27191,5.98486
	c-0.25,0.44254-0.46967,0.82336-0.89789,1.19962l-1.18634,1.04239c-2.09869,1.84393-13.26019,15.30664-13.74457,15.75833
	c-6.27722,5.853-4.34186,5.09665-8.67389,9.59842l-8.51306,8.84665l-1.68036,2.38092
	c-2.38818,3.38385-4.4552,6.71683-6.56152,10.32123l-3.65051,6.24677c-0.65784,1.12573-3.73444,5.72403-4.48413,6.83176
	l-3.92828,5.80466c-0.37622,0.55594-0.35901,1.28714-0.94531,1.8779l-0.94739,0.95456l-14.84259,24.69733l-9.38647,16.44278
	c-0.27704,0.48529-0.47357,0.905-0.64941,1.25287l-1.27899,2.52997c-0.60638,1.19958-1.16876,2.0788-1.70648,3.04025
	l-2.12366,3.79715c-0.49829,0.89093-0.909,1.7131-1.35724,2.55966l-5.53033,10.44473
	c-0.29236,0.55219-1.76501,3.16879-1.79974,3.24042l-9.80023,20.18713c-0.36737,1.31039-1.80981,3.76749-1.77344,3.68066
	l-8.51312,20.32993c-0.25732,0.61447-0.36475,1.1557-0.55219,1.64554l-7.87683,20.58609l-2.64734,6.32147
	c-0.33679,0.80423-0.73126,1.57825-1.01953,2.42859l-0.99359,2.93054c-0.31036,0.91537-0.56177,1.87537-0.98242,2.80109
	c-2.76855,6.09262-6.7514,18.33981-9.01996,25.56702l-2.74817,8.7551l-0.94556,2.85971l-0.99207,2.95728l-3.06372,11.45605
	c-0.27356,1.02283-0.85236,1.73627-0.79822,2.91174c-0.12653-2.74768-5.90326,24.42059-6.02002,24.92224l-0.67786,2.91248
	l-4.94635,26.81641l-1.315,7.66028l-1.87219,12.51678l-1.86938,16.29504c-0.37646,3.28149-0.74066,6.3717-1.06989,9.5816
	l-0.8905,8.68341c-1.00317,9.78162-1.31604,12.15118-1.65588,22.07837l-0.50281,14.68805
	c-0.56482,16.49829-0.69427,32.84857-0.03687,49.34027l0.50903,12.76917c0.13196,3.30981,0.85516,6.31958,1.00342,9.59821
	l0.34711,7.6781l1.05206,7.35406l1.34113,6.1087c-1.04205-4.74628,2.40723,21.9494,2.19006,16.30029l0.06921,1.80084
	c0.12994,3.37915,2.38324,11.13611,2.76813,13.55737l2.24908,14.14764l2.22046,11.80341l1.31848,6.83893l4.43085,19.07782
	c1.47906,6.36829,4.04083,17.25201,6.06067,23.16058l2.33868,6.84149l5.06836,17.9856
	c0.37689,1.3374,0.47083,2.55853,1.19482,4.00989c1.55334,3.66711,1.84924,6.72852,3.48639,9.81659
	c1.55121,2.92596,3.21338,11.53125,6.54205,18.43628c0.3606,0.74792,0.45056,1.52582,0.8031,2.37604l2.35651,5.68298
	c2.81641,6.79218,5.11591,13.24689,8.39966,19.5423c1.83118,3.51062,2.64752,7.3855,4.47162,11.16345l1.48633,3.07837
	c0.45844,0.94946,2.6109,6.35468,3.01135,6.75702c1.25525,1.26135,3.68585,9.66949,4.77875,11.54669
	c1.26251,2.16858,2.72455,5.4165,4.12341,8.284l3.41217,6.99457l6.41309,12.086l5.29388,10.13617
	c-0.32709-0.62622,2.56604,3.79175,1.40588,2.32727c3.27734,4.13733,6.72186,12.67151,7.6037,13.60632
	c0.80145,0.84961,7.22815,11.58545,8.76367,13.33203c3.73633,4.24976,6.63409,8.70862,9.58551,13.55029
	c0.63416,1.04028,2.07806,1.53601,2.44727,3.05945c-0.0448-0.18469,9.32733,13.53381,10.50873,14.70544l0.81024,0.80359
	l3.71857,5.32043c0.37762,0.54028,0.51532,0.96912,0.76862,1.11621c0.78485,0.45605,13.03796,16.93469,15.52454,19.6759
	l7.34528,8.09778c3.12433,3.44446,5.83441,6.79187,9.57275,9.7688c0.71979,0.57312,1.46808,1.11597,2.09424,1.74121
	l25.91321,25.87256c4.25049,4.2439,7.51135,8.99463,11.92511,13.05042c3.32562,3.05579,6.18121,6.50916,9.81616,9.37341
	c5.78363,4.55725,7.24829,7.03088,11.90125,11.27722l0.92261,0.84192c2.87805,2.62646,2.99939,2.4364,5.20538,4.36365
	l8.26746,7.2229c2.77917,2.4281,1.69122,1.64038,5.24854,4.19775l11.23663,8.07825
	c11.51019,8.27502,6.65839,5.85535,20.073,12.66797c3.67938,1.86853,7.08252,3.86987,11.02362,5.45129
	c4.94653,1.98486,9.44385,5.54089,12.74548,7.35864l9.28973,5.11475c2.35638,1.29736,4.38446,2.65601,6.66791,3.99182
	l2.91974,1.70813c1.40106,0.8197,2.65082,1.72522,4.20569,2.56091l9.9104,5.32642l14.0437,7.12329l10.64142,5.7511
	c7.95251,4.29785,0.50568-0.39648,8.48706,2.97668l10.71899,4.53003l1.61304,0.64001l36.92883,15.55786
	c0.49951,0.21045,0.99011,0.19324,1.72522,0.57336l1.00842,0.52136c0.52747,0.27283,1.01038,0.49939,1.58276,0.70935
	l32.74194,12.01257c0.52856,0.19385,10.78357,3.2207,11.85889,3.53577l1.75134,0.51318
	c2.60986,0.76489,24.86975,8.02417,24.53992,7.745c0.86108,0.72852,4.32812,1.47937,5.90833,2.11426l1.15771,0.46509
	c-0.12427-0.04993,2.95264,0.55273,4.91162,1.33008l0.9762,0.38733c1.37744,0.54663,6.66443,2.61682,7.52722,0.85449
	c0.52625-1.07507-6.60901-3.55225-5.33411-1.82703c-0.47729-0.59155-0.69763-0.99573-1.24951-0.96973l-2.04736,0.09668
	c2.32605-0.10986-6.17126-1.45239-4.66492-2.64136c0.65259-0.53638,1.2207-0.52527,1.59851-0.09009
	c1.50732,1.73633,4.07654,0.11511,4.78796,0.94116c1.2146,1.41016,9.08582,1.99792,12.68567,2.77588l2.00049,0.43225
	c1.99182,0.43042,0.77368,0.16907,2.71497,0.53406l2.05591,0.38647c1.51868,0.28552,8.28247,1.52148,8.12036,1.43994
	c1.62939,0.81946-0.51465,0.32275-0.4873,0.63611c0.04138,0.47449,0.59192,2.26404-0.89893,1.07776
	c1.17114,0.77344,1.87244,1.11536,2.06641,1.17505l1.75793,0.54004c6.8114,2.09253,28.74707,4.86743,28.52185,4.77783
	c1.60303,0.63708,3.26709,0.1344,5.09644,0.48596l4.75073,0.91309c6.46887,1.24341,34.65918,3.15686,36.2865,3.51282
	c4.4491,0.97339,9.70178-0.10217,12.46204,0.53149c3.87561,0.88977-2.39343,0.76294,3.12634,0.76416l1.9231,0.00049l1.92004,0.00037
	h1.92004h1.91992h1.91992h1.92004h1.92004h1.91992h1.92004h1.92004h1.91992h1.92004l1.92004-0.00024l1.92322-0.00085
	c7.3551-0.00293-1.19128-0.91101,4.80786-0.948l1.90967-0.01184h1.91846l1.90967,0.01184
	c5.99365,0.03699-2.54395,0.94641,4.80774,0.948l1.92163,0.00049l1.9021-0.00378c2.5376-0.00513,5.32812-0.41089,4.81958,0.96436
	h1.92004C1342.57837,1349.97693,1343.5321,1349.9458,1344.63391,1350.0072z M1734.89685,873.88007
	c-0.26514,0-0.47998,0.2149-0.47998,0.47998s0.21484,0.47998,0.47998,0.47998c0.26501,0,0.47998-0.2149,0.47998-0.47998
	S1735.16187,873.88007,1734.89685,873.88007z M1620.65674,1282.84009c-0.26501,0-0.47998,0.21484-0.47998,0.47998
	c0,0.26501,0.21497,0.47998,0.47998,0.47998c0.26514,0,0.4801-0.21497,0.4801-0.47998
	C1621.13684,1283.05493,1620.92188,1282.84009,1620.65674,1282.84009z M1559.2168,1305.88
	c-0.26514,0-0.47998,0.21497-0.47998,0.47998c0,0.26514,0.21484,0.4801,0.47998,0.4801s0.47998-0.21497,0.47998-0.4801
	C1559.69678,1306.09497,1559.48193,1305.88,1559.2168,1305.88z M1572.65674,1308.76001c-0.26501,0-0.47998,0.21497-0.47998,0.47998
	c0,0.26514,0.21497,0.4801,0.47998,0.4801c0.26514,0,0.4801-0.21497,0.4801-0.4801
	C1573.13684,1308.97498,1572.92188,1308.76001,1572.65674,1308.76001z M1513.13684,1321.23999
	c-0.26514,0-0.4801,0.21497-0.4801,0.4801c0,0.26501,0.21497,0.47998,0.4801,0.47998c0.26501,0,0.47998-0.21497,0.47998-0.47998
	C1513.61682,1321.45496,1513.40186,1321.23999,1513.13684,1321.23999z M1231.77734,1341.1073
	c3.97034,0.53967-12.12646-1.76721-7.50378-1.32935l-6.01892-0.57007c-2.48535-0.23535-10.82288-2.86438-13.8158-1.24817
	c1.19019,0.51001,8.95081,2.22473,8.35217,1.73267c1.78821,1.46997,11.74011,1.70044,15.97607,2.37109
	c3.18787,0.50464,6.39819,0.5697,9.39978-0.08765L1231.77734,1341.1073z M1160.33679,1327.65625
	c-0.43286,0-0.78381,0.35095-0.78381,0.78381s0.35095,0.78381,0.78381,0.78381s0.78381-0.35095,0.78381-0.78381
	S1160.76965,1327.65625,1160.33679,1327.65625z M1202.57678,1336.29626c-0.43286,0-0.78381,0.35083-0.78381,0.78381
	c0,0.43286,0.35095,0.78381,0.78381,0.78381s0.78381-0.35095,0.78381-0.78381
	C1203.3606,1336.64709,1203.00964,1336.29626,1202.57678,1336.29626z M1091.13745,870.20972
	c5.21594,0.03326,3.41101-1.04803,4.58423-1.04456l10.86169,0.03223c1.23315,0.00366,1.96008-0.92883,2.57495-0.92554
	l5.01965,0.02704c1.34631,0.00726,2.0249-1.02576,2.69751-1.01758l4.28992,0.05243c2.00635-0.099,2.00818-1.24451,0.02551-1.30255
	c-1.85791,0.20648-3.72217-0.6507-5.11792,0.13422l-1.78247,1.00232c1.95166-1.09747-13.36133,0.98468-10.63318,0.94122
	c-3.57178,0.05688-6.95984-0.34241-10.19214,0.32721c-0.7002,0.14502-1.13525,0.53448-2.2019,0.534l-31.80444-0.01465
	c-1.09399-0.00055-1.43213-0.29437-2.18665-0.50653c-3.41418-0.96021-8.28186,0.32324-10.54993-0.97424
	c-1.78955-1.02368-4.22412,0.24603-6.07642-0.60931c-3.91443-1.8075-4.29053,0.50153-6.42188-1.3819
	c0.36462,0.3222-12.64209-2.34229-12.40112-2.25684l-2.83429-1.00537l-2.87445-0.96252l-2.87354-0.97546
	c-1.97382-0.6701-9.54785-2.47845-10.60895-4.04224c1.39069,2.04956-16.5741-8.45386-22.14923-13.73724
	c-3.71527-3.52094-8.09155-6.09937-9.9679-11.10858c5.17902,5.06836,9.28888,9.7002,15.27063,13.35736
	c2.00073,1.22327,8.11371,5.23315,8.70892,5.52966l7.7522,3.86139c1.94775,0.97021,8.21753,3.42627,10.22601,4.00067
	l14.41199,4.12146c2.43359,0.69592,4.68579,1.1156,6.98254,1.47809l5.80823,0.91675l7.60864,0.95599
	c15.7749,1.98212,31.42297,1.68695,47.75769,0.67682c2.92419-0.18085,21.81152-1.91077,23.08435-2.19543l2.9126-0.65118
	l4.76428-0.51398l2.1615-0.29767l8.44507-1.05103l5.79272-0.97388l19.13367-3.2688c0.89307-0.15259,1.474-0.37457,2.13281-0.4704
	l5.28845-0.76904c3.86304-0.56177,7.64612-1.42639,11.52515-2.11725l37.89612-6.74957l10.31152-1.66779
	c4.9657-0.80316,8.97461-1.62238,13.51843-2.28735l11.15979-1.63336c3.61694-0.52936,7.03674-1.09033,10.84839-1.67566
	l5.74792-0.88275c3.27197-0.5025,6.32117-0.76501,9.34705-1.28174l4.06689-0.6944c2.70154-0.46124,5.07397-0.54504,7.70862-0.93353
	l7.63989-1.12659c4.19543-0.61865,17.36963-1.4566,18.76074-3.00873c1.64124-1.83105,1.23633-5.46143,1.28381-8.01935
	c0.0437-2.34998,2.19043-21.97119,2.64844-26.03937l0.86462-7.68024l0.97839-8.63226l0.96533-7.68182l0.96082-7.66925
	l0.90674-6.72711l1.06311-7.67065l0.85864-5.76654l1.39209-9.65405l6.05261-35.67853l5.79443-35.9519
	c0.31689-1.96667,0.86377-3.83105,1.2356-6.07111l0.95764-5.76892c0.27124-1.63348,0.83801-3.1535,1.0946-4.74011l0.93359-5.77258
	l0.93005-4.77063c0.46741-2.39777,0.62341-4.44104,1.03333-6.78351c1.20056-6.86133,3.45813-13.31323,3.96033-20.1507
	c1.60278-21.82001,30.81873-144.40839,38.21667-171.6499l8.44824-31.1087l1.30737-4.62787l10.26282-35.46124l4.82812-19.23608
	c0.69312-2.76193,2.64563-13.29123,3.09167-16.30414l0.71533-4.83182c1.03125-6.96512,1.75476-19.76395,1.02502-26.76624
	l-0.80713-7.74463l-1.01807-6.73245l-0.97339-5.75891c-0.3252-1.92465-0.85608-3.73328-1.23999-5.52765
	c-4.8866-22.8438-12.62207-44.78415-26.92749-63.09398c-4.27832-5.47583-11.27087-12.30612-17.01074-16.14168
	c-20.33826-13.59093-45.93555-14.47961-69.37292-8.78787l-7.76514,1.88577c-5.70374,1.38513-12.93604,3.64159-18.39734,6.39941
	l-2.63062,1.32845l-12.47498,6.40842c-6.18811,3.17879-11.99634,7.62309-17.57983,12.4323l-7.25183,6.24608l-7.13757,6.25835
	l-11.51013,10.39796c-1.30627,1.17999-2.37024,2.16463-3.66663,3.46271l-41.83997,41.89369
	c-1.12354,1.12497-1.995,1.98645-2.95679,3.05511l-10.84998,12.05463l-6.76294,7.64899l-6.271,7.185l-13.98767,16.82684
	l-6.51636,7.72864c-3.43665,4.07605-4.55676,5.50394-7.7196,9.48251l-3.85815,4.85321
	c-4.25952,5.35797-8.62354,11.06879-12.50293,16.40411l-11.74365,16.15125l-5.58118,7.81802l-13.41699,20.1156
	c-4.79614,7.1907-6.88049,11.09402-11.37024,18.23938l-1.85046,2.94495l-3.91638,6.67609
	c-1.36096,2.31985-2.6875,4.3093-3.97522,6.64206l-5.23572,9.48398l-2.37073,3.98431
	c-1.70996,2.87393-2.03467,6.09064-5.03394,7.92209c1.10388-4.95081,3.97803-8.38104,6.39685-12.66833l7.59485-13.46152
	l3.90308-6.69666c1.93713-3.3237,3.82983-6.27054,5.85217-9.54843l4.56665-7.40176l7.08289-10.86917l12.9021-19.61206
	c1.20044-1.82477,3.54456-4.99457,5.18665-7.28662l2.89563-4.04175l4.9021-6.46054c1.10022-1.44986,1.99255-2.6171,2.97546-3.92035
	l2.89978-3.84488l2.8844-3.83951l2.88159-3.83972l2.88257-3.83969l2.89062-3.8418c0.98499-1.30911,1.84814-2.54132,2.94092-3.87497
	l4.63208-5.65308c0.84204-1.02771,1.60828-1.63776,1.89734-2.93594c-1.48108,1.13263-2.50989,2.41098-3.73022,3.8732
	l-4.7522,5.69397l-3.87061,4.81952l-3.81238,4.77515l-2.95044,3.88809l-3.77515,4.74985l-2.93689,3.86609
	c-1.72961,2.27679-5.26367,6.9079-6.09778,8.97952c0.52026-1.29211-5.01965,6.25519-5.11621,6.39215l-1.97095,2.79596
	c-22.45435,31.85492-30.1825,43.76859-49.24609,77.55249l-7.37891,13.07663c-13.58356,24.07251-25.38184,48.69736-35.54529,74.59512
	l-3.00232,7.65021c-1.54675,3.94128-3.16443,7.56207-4.63763,11.5567l-6.43848,17.45825l-2.31732,6.57666l-8.0376,25.41095
	l-5.02814,17.00317c-0.38849,1.31372-0.3855,2.53809-0.93988,3.88995c-0.77344,1.88629-5.76984,24.90106-6.72583,28.76947
	l-3.79657,15.36328l-1.05963,5.51849l-0.84686,5.97913c-2.86212,20.2077-4.95166,36.47375-3.8656,57.29553l0.65393,12.53784
	c0.4256,8.15955,1.65741,15.93628,3.0946,23.70483l0.76111,4.11444c1.86139,10.06165,7.13617,25.98419,12.80841,34.2262
	c4.81012,6.98938,15.09625,17.24872,22.40576,21.38324l12.84082,7.26318l3.50842,1.36664l6.75861,2.69666
	c1.16064,0.46313,2.1922,0.71301,3.95752,1.33759l2.95142,1.04425c2.63214,0.93134,14.22736,4.14484,16.40851,4.36615
	l5.12244,0.51971c0.77966,0.0791,1.11597,0.70239,2.24731,0.72034l3.89429,0.06189
	c-7.05505-0.11212,17.59668,1.60419,11.74438,1.77246L1091.13745,870.20972z M1305.53491,870.07812
	c1.13489,0.19873,12.31641-0.23743,8.97583-3.45038c-0.448-0.43103-1.64441-0.25116-2.49084-0.11688l-2.91492,0.46228
	c-1.99072,0.31573-3.85986-0.36298-5.39404,0.4801c-2.87793,1.58154-5.82446-0.052-7.62524,0.99237
	c-2.97424,1.72485-4.38379-0.48199-7.44849,1.31366c0.83325-0.48822-9.96191,1.25818-6.70386,0.95105l-6.078,0.57294
	c-0.75391,0.07111-1.12256,0.87653-2.24268,0.76819c-1.93994-0.18762-3.57214-0.4256-5.18396,0.56213
	c-1.71326,1.0498-4.20996-0.40051-6.01233,0.5755c-0.61963,0.33551-5.98132,1.37122-6.93518,1.526l-23.56531,3.82349
	l-35.06421,6.19153l-5.76575,0.99396c-9.2793,1.59967-11.05408,1.8407-20.00244,4.04413
	c-15.1134,3.72156-30.12549,6.17822-45.5238,7.88428l-15.15125,1.67865l-19.42175,1.19879
	c-8.19653,0.50592-16.27478,0.30554-24.46252-0.01733l-9.86414-0.38898l-6.50122-0.54376
	c-24.41113-2.04175-61.51599-11.12152-81.12311-26.07965l-4.94586-3.77319c-6.98895-5.33179-13.23279-10.73895-18.94196-17.9259
	l-3.44543-4.33728c-2.40643-3.0293-4.29919-6.40155-6.51654-9.78741c-8.99115-13.72968-17.0672-41.43573-18.90356-57.86859
	c-0.07819-0.69958-1.59058-12.81958-1.58289-12.58057l-0.46075-14.30109c-0.02722-0.84393-0.43127-1.55438-0.44421-2.19318
	c-0.14587-7.22974-0.26855-14.32056,0.06714-21.54163c0.33472-7.20178,0.50635-19.80664,1.16473-25.31976l0.93286-7.81104
	l1.17596-11.30756c0.27246-2.61945,0.30121-5.05261,0.74731-7.45123l2.03961-10.96771
	c0.1073-0.57709,3.15656-21.54468,2.43793-19.15869c0.36865-1.22406,1.9895-2.69281,0.12726-3.83429
	c-0.3847,1.55328-0.81049,2.26501-0.94489,3.39771l-0.48193,4.06036c0.36951-3.11322-4.15948,19.78174-4.16742,19.82025
	l-1.00391,4.88361c-0.38953,1.89471-0.03375,3.82471-0.81427,5.75531c-0.75159,1.85889-2.2923,14.61847-2.60437,17.64844
	l-0.99158,9.62689l-0.96814,15.3241c-0.49182,7.78387-1.02057,27.26617-0.35657,34.81219l1.38611,15.75452l0.78967,6.35162
	c1.03302,8.30859,4.76105,23.67877,7.5332,31.62738l3.02936,8.6861c0.80725,2.31458,1.88904,4.33759,2.7511,6.43921
	c3.75726,9.16046,8.74786,17.29663,15.11664,25.13647c4.45703,5.48663,16.11682,17.1524,21.79266,21.07172l6.22095,4.29565
	c11.13965,7.6922,23.59784,13.50916,36.98529,16.854l14.43384,3.60626l13.72894,2.5863
	c2.55981,0.48224,17.427,1.97339,20.79456,2.10431c5.69507,0.22144,38.82275,0.70007,41.03516-0.07196
	c2.53735-0.8855,5.20178-0.39026,7.98865-0.71814l28.04077-3.29901l9.23425-1.29279
	c8.26318-1.15692,15.9906-2.66388,24.08838-4.17444l9.60449-1.79163c2.33105-0.43481,16.66931-2.94275,16.92188-3.05457
	c1.64502-0.72839,3.27063-0.37775,5.20544-0.81427l3.78174-0.85321l7.39429-1.23395
	c8.15686-1.36127,14.37842-2.59766,22.70007-3.99182l27.52478-4.61145c-3.14612,0.86981,12.77332-1.63055,8.021-1.18884
	l6.08496-0.56561c-11.02039,1.02435,16.87549-2.35919,6.46802-1.34369l5.99365-0.58484
	c-3.15051,0.30743,7.29883-1.41052,6.66687-0.96649c2.54114-1.78528,3.60144,0.45477,7.42273-1.33606
	C1300.83215,870.38232,1306.00757,871.91394,1305.53491,870.07812z M1178.56409,884.12836
	c2.75146-0.49707,18.49927-2.84912,18.96167-3.18811c1.68542-1.23572,4.07703,0.31024,5.74744-0.66589
	c2.10156-1.22809,20.00208-3.2312,17.96655-2.4173c0.58081-0.23224,1.03955-1.62708,2.37732-1.09851
	c2.28564,0.90314,11.03125-0.45477,13.54358-0.88263l3.83716-0.65363c1.9624-0.33423,3.79187-0.71948,5.72913-1.00031
	l6.62695-0.96051c3.46729-0.50256,2.22729,0.69885,5.22522-1.02856c-1.37036,0.78961,18.99329-2.93756,18.29419-2.86914
	l5.94458-0.58148c-1.07922,0.10553,7.08789-1.07599,7.51038-1.31165c-0.78394,0.43732,10.19897-1.22076,7.61572-0.97662
	l6.07703-0.57434c0.74524-0.0705,1.11035-0.92242,2.26917-0.7583c2.85059,0.40381,5.67688,0.30627,8.13525-1.30298
	c1.10925-0.72607,1.01233-2.85962,1.15625-4.26904c-5.22266-0.47839-10.19519,0.72339-15.75525,1.37903l-7.93225,0.93542
	c-2.68628,0.31677-5.0752,0.71356-7.42395,1.03516l-6.78552,0.92908l-6.61719,0.93054l-6.68628,0.96027
	c-4.53699,0.65161-6.25525,0.9408-10.90906,1.72931l-6.729,1.14008l-37.2113,6.93164l-27.73999,5.48761l-4.151,0.77094
	c-2.0011,0.37164-3.73291,0.84839-5.48669,1.16132l-5.07141,0.90491l-5.53931,1.02942l-9.57117,1.90826l-5.67041,0.95667
	l-4.85217,0.92114c1.70422-0.32355-10.98669,1.54242-7.41614,1.20306l-6.01697,0.5719
	c2.77319-0.26361-6.1095,1.12537-6.48145,1.31403c-2.18188,1.10724-2.17627-0.68164-7.54175,1.08447
	c-2.37866,0.78296-4.80261-0.55432-7.50659,0.6936c2.73328,1.12061,5.49902,0.07916,8.78601,0.57446
	c0.57642,0.08685,0.79187-0.81879,1.14709-0.87836c4.8136-0.80731,3.24963,0.76459,8.65991-0.93951
	c2.32385-0.73199,4.87158,0.40802,7.10657-0.50623c3.86255-1.58008,5.54224,0.09229,7.69055-1.01703
	c0.78369-0.40466,10.23303-1.53143,12.54053-1.9483L1178.56409,884.12836z M1216.68689,863.78918l6.00537-0.91113
	c4.69299-0.71198,6.12659-0.87726,10.62524-1.67072l5.73914-1.01227l5.76868-0.93085
	c2.56873-0.41455,5.05029-0.85413,7.60522-1.20557l7.41882-1.02039c2.2168-0.30487,4.2168-0.72241,6.34973-1.0307l20.16821-2.91522
	l28.73596-3.84052c0.73523-0.09827,1.16296-0.95807,0.94421-1.22253c-0.14124-0.17065-0.44128-0.87732-1.16443-0.78497
	l-33.82202,4.31744l-12.25244,1.74335l-24.67566,3.82379c-4.43787,0.68774-8.23132,1.29291-12.48218,1.90564l-6.00635,0.86566
	l-5.52344,0.96918l-6.63135,1.01746c-1.33618,0.20502-16.4032,2.90607-16.39868,2.90393
	c-2.901,1.3786-4.08069-0.62695-6.3645,1.17181c-1.16467,0.9173-2.99536-0.6485-4.52368,0.83319
	c0.47473,1.20258,17.53735-0.79144,19.01123-1.04364L1216.68689,863.78918z M1138.91589,864.95197
	c0.55676-0.21497,8.44373-1.58533,6.43982-1.36456l4.98572-0.54919c-0.16833,0.01855,12.79993-2.38239,12.28455-2.32788
	l5.0675-0.53571c-10.85144,1.14709,16.87231-2.48938,6.46423-1.37695l5.04932-0.53967
	c-10.86475,1.16125,16.86121-2.49084,6.47144-1.38049l5.04944-0.53961c-10.84033,1.15845,16.92102-2.52338,6.47144-1.38556
	l4.99585-0.54395c-9.60828,1.0462,16.08911-2.25305,6.45703-1.36774l6.08984-0.55975
	c-2.021,0.18579,13.05603-2.50726,11.61841-1.93567c2.18298-0.86792,13.7749-2.2951,17.49695-2.85785l14.14734-2.13904
	l7.6709-0.89813l6.00293-0.86285l8.38721-1.06238l6.96448-0.91327c2.66589-0.34955,5.06116-0.60706,7.68384-0.91779l9.3363-1.10608
	l7.93677-0.88159c2.09167-0.2323,5.6145-0.37836,5.09412-2.30847c-0.36121-1.3396-7.41479,0.08923-9.57678,0.33936l-7.7168,0.89252
	l-7.66809,0.98077l-6.94409,0.97296c-2.04419,0.28644-3.80286,0.43494-5.77539,0.72894l-7.66187,1.14203l-6.79822,0.91974
	l-38.59705,6.00336c-0.64587,0.1004-13.49121,2.18988-11.66846,1.99176l-4.99585,0.54303
	c10.43127-1.13385-17.19702,2.49469-6.46167,1.37903l-5.12073,0.5321c3.1366-0.32593-4.98865,1.01251-5.49365,1.3974
	c1.0448-0.79633-16.44543,3.00323-15.3009,2.88422l-5.07153,0.5274c13.37061-1.39056-19.36853,2.84045-5.49756,1.38873
	l-5.0625,0.52985c13.3479-1.39703-19.35901,2.86066-5.49805,1.39142l-5.05347,0.53564c1.974-0.20923-5.97632,1.07837-6.47375,1.3623
	c-1.64087,0.93665-3.42969-0.59564-6.7146,0.93677c-2.14575,1.00104-4.52173-0.60303-7.67505,0.96899
	c-2.07666,1.03534-4.4989-0.57922-6.48047,0.82245c4.67029,1.11121,5.95264,0.28717,8.02222-0.33417
	C1134.13232,864.73328,1136.65662,865.82391,1138.91589,864.95197z M1325.08826,825.47333l0.67468-11.77661
	c-0.18494,3.22888,1.36694-9.67163,0.96851-8.61566c1.53113-4.05743-0.04358-6.31104,0.94238-9.62347
	c0.20667-0.69452,0.78162-1.07886,0.74817-2.22253l-0.16846-5.75085c-0.03345-1.14069,0.5249-1.52716,0.74475-2.22052
	c0.72571-2.28876,0.15686-4.71399,0.22827-7.43945c0.07959-3.03125,1.41846,3.09296,0.948-7.62799
	c-0.04907-1.12036,0.67639-1.46985,0.745-2.24316l0.61609-6.95007c-0.68335,7.70929,1.97974-15.41174,1.28979-7.50305
	l0.60876-6.97852c-0.28699,3.28986,1.36926-7.27106,0.94714-6.65344c0.34375-0.50299,1.38806-8.52319,1.3042-7.52246
	l0.65454-7.81549c0.14441-1.72357,0.91968-3.1228,0.41064-5.27087c-3.22473,1.49969-0.82178,5.03711-1.97424,7.42908
	c-0.34924,0.72473-1.48401,8.28204-1.32349,6.47241l-0.61682,6.95123c0.23425-2.63928-1.37244,8.27991-0.97693,7.60522
	c-1.72131,2.93658,0.44043,4.40259-1.2915,7.51501c-1.00366,1.80377,0.57605,3.80084-0.95984,7.60571
	c-0.76843,1.90369-0.16614,4.07489-0.23157,6.45764c-0.06885,2.5127-1.59241-2.37421-0.93945,7.62476
	c0.07324,1.12067-0.70984,1.52173-0.75623,2.21899l-0.59998,9.00519c-0.04578,0.68842-0.78601,1.08148-0.75122,2.22052
	l0.17737,5.82074c0.01733,0.57135-0.80408,0.7804-0.8645,1.13806c-0.41028,2.42755-0.15906,4.7226-0.10364,7.49652
	c0.01135,0.57385-0.80359,0.79041-0.8551,1.14374c-0.74329,5.09979,0.63806,4.20306-0.84387,9.64124
	c-0.81348,2.98517,0.43884,7.85181-1.35388,14.55951C1323.79065,839.58844,1325.22119,823.15338,1325.08826,825.47333z
	 M1329.23425,954.28369c0.09656-4.61041,0.1571-9.07104-0.08521-13.99768c-0.09399-1.91125,0.74072-3.68799,0.75281-5.31787
	l0.35876-48.57697c0.00793-1.0827,0.58594-1.64532,0.66589-2.2121c0.70459-4.99872,0.07617-9.77289,0.29785-15.10376
	c-3.42725-0.1499-1.20435,9.61688-2.21179,16.05585c-0.09143,0.58472-0.75378,1.12347-0.75476,2.18188l-0.01782,19.19928
	l-0.44006,5.80334l-0.29126,28.89417c-0.07642,7.58185-0.41772,14.79462,0.15295,22.02545
	C1329.35559,962.31378,1327.21252,953.25983,1329.23425,954.28369z M1319.52246,956.52985l0.14966-50.84021l0.61536-7.82703
	c0.42383-5.38971-0.09412-17.91223,1.01208-20.47107c0.80884-1.87115,0.09656-4.08728,0.31384-6.64777
	c0.06128-0.7215-3.04272-3.72107-1.81689,6.97729c0.1283,1.12024-0.58252,1.54205-0.75964,2.20532
	c-0.78699,2.94739-0.00061,6.04614-0.22559,9.24182l-0.68066,9.66888l-0.25818,6.86676l0.00171,39.91589
	c0,0.44464,1.78772,1.16681,0.67102,2.17603C1319.39197,950.75494,1317.6709,953.6629,1319.52246,956.52985z M1334.99622,813.34607
	c-0.00183-0.57349,0.66455-0.82623,0.87634-1.14587l0.21729-9.04865c1.24158,0.87726,1.1925-5.7345,0.41504-6.08264
	c-0.50012-0.224-1.46875-0.1098-1.46411,0.89807l0.0271,5.8512c0.00464,0.98206,0.26758,1.72552-0.97424,2.11902
	c0.75696,0.83948-0.86218,13.5376-0.6604,9.66943l-0.57153,10.95648c-0.03223,0.61639-1.09656,1.04742-0.76892,2.29889
	c0.24646,0.94135,0.92078,1.12518,1.5321,0.86829c1.38757-0.58307-0.65601-6.22314,1.40466-6.05042L1334.99622,813.34607z
	 M1322.58276,858.99915c-0.29822-0.53094-0.89026-0.71875-1.45129-0.48328c-0.59924,0.25146-0.55164,0.92914-0.49048,2.01855
	c0.05786,1.03003,0.59192,0.94189,1.24414,0.19427C1322.46606,860.06299,1322.93542,859.62726,1322.58276,858.99915z
	 M1320.12378,866.12085c-1.302,1.83282,0.58472,2.99054,1.93103,1.10895
	C1321.74268,865.08765,1321.06714,864.9917,1320.12378,866.12085z M1330.11829,859.27002
	c0.11169,1.4151,0.82922,1.2785,2.11292-0.14075C1332.49438,856.98444,1330.09265,856.77478,1330.11829,859.27002z
	 M1332.6532,834.51593c-0.53638,0.28381-0.81824,0.85712-0.26318,1.91956c0.34277,0.0636,0.58398-0.41895,1.61987-0.99762
	C1334.2594,834.46503,1333.17725,834.23865,1332.6532,834.51593z M1330.12793,865.47021
	c0.1488,2.24164,1.31091,1.94788,1.16638-0.53204C1330.75916,863.92255,1330.23474,864.35583,1330.12793,865.47021z
	 M1322.0968,846.21619c-0.43286,0-0.78381,0.35095-0.78381,0.78387c0,0.43286,0.35095,0.78381,0.78381,0.78381
	s0.78381-0.35095,0.78381-0.78381C1322.88062,846.56714,1322.52966,846.21619,1322.0968,846.21619z M1331.69678,845.25623
	c-0.43286,0-0.78381,0.35089-0.78381,0.78381s0.35095,0.78381,0.78381,0.78381s0.78381-0.35089,0.78381-0.78381
	S1332.12964,845.25623,1331.69678,845.25623z M1323.05676,835.65619c-0.43286,0-0.78381,0.35095-0.78381,0.78387
	c0,0.43286,0.35095,0.78381,0.78381,0.78381c0.43298,0,0.78381-0.35095,0.78381-0.78381
	C1323.84058,836.00714,1323.48975,835.65619,1323.05676,835.65619z M1350.89685,1152.45618
	c-0.43298,0-0.78394,0.35095-0.78394,0.78381c0,0.43298,0.35095,0.78394,0.78394,0.78394c0.43286,0,0.78381-0.35095,0.78381-0.78394
	C1351.68066,1152.80713,1351.32971,1152.45618,1350.89685,1152.45618z M1351.85681,1156.29626
	c-0.43286,0-0.78381,0.35083-0.78381,0.78381c0,0.43286,0.35095,0.78381,0.78381,0.78381s0.78381-0.35095,0.78381-0.78381
	C1352.64062,1156.64709,1352.28967,1156.29626,1351.85681,1156.29626z M1352.81677,1159.17615
	c-0.43286,0-0.78381,0.35095-0.78381,0.78394c0,0.43286,0.35095,0.78381,0.78381,0.78381c0.43298,0,0.78381-0.35095,0.78381-0.78381
	C1353.60059,1159.5271,1353.24976,1159.17615,1352.81677,1159.17615z M1330.73682,861.40002
	c-0.26514,0-0.47998,0.2149-0.47998,0.48004c0,0.26508,0.21484,0.47998,0.47998,0.47998s0.47998-0.2149,0.47998-0.47998
	C1331.2168,861.61493,1331.00195,861.40002,1330.73682,861.40002z M1321.13684,862.36005c-0.26514,0-0.4801,0.2149-0.4801,0.47998
	c0,0.26514,0.21497,0.48004,0.4801,0.48004c0.26501,0,0.47998-0.2149,0.47998-0.48004
	C1321.61682,862.57495,1321.40186,862.36005,1321.13684,862.36005z M1368.17676,1217.56006
	c-0.26501,0-0.47998,0.21484-0.47998,0.47998s0.21497,0.47998,0.47998,0.47998c0.26514,0,0.47998-0.21484,0.47998-0.47998
	S1368.44189,1217.56006,1368.17676,1217.56006z M1369.13684,1219.4801c-0.26514,0-0.4801,0.21484-0.4801,0.47998
	c0,0.26501,0.21497,0.47998,0.4801,0.47998c0.26501,0,0.47998-0.21497,0.47998-0.47998
	C1369.61682,1219.69495,1369.40186,1219.4801,1369.13684,1219.4801z M1034.76331,470.87366
	c1.15393-0.82623,0.56787-1.34207-0.50842-0.6442l-3.47424,7.2739c-0.42773,0.8956-1.91235,1.5249-0.45398,2.77396
	C1031.85046,476.51056,1033.66931,474.20215,1034.76331,470.87366z M955.37683,797.25623
	c-0.43292,0-0.78387,0.35089-0.78387,0.78381s0.35095,0.78381,0.78387,0.78381c0.43286,0,0.78381-0.35089,0.78381-0.78381
	S955.80969,797.25623,955.37683,797.25623z M968.35443,828.77771c0.24048,1.07727,0.8075,1.64423,1.88477,1.8847
	C969.99872,829.58514,969.4317,829.01813,968.35443,828.77771z M965.48132,824.94458
	c0.60144,1.42401,1.40692,2.22955,2.83099,2.83093C967.71088,826.3515,966.9054,825.54596,965.48132,824.94458z
	 M963.05682,819.16003c-0.26514,0-0.48004,0.2149-0.48004,0.47998c0,0.26514,0.2149,0.48004,0.48004,0.48004
	c0.26508,0,0.47998-0.2149,0.47998-0.48004C963.5368,819.37494,963.3219,819.16003,963.05682,819.16003z M964.97681,823.00006
	c-0.26508,0-0.47998,0.2149-0.47998,0.47998s0.2149,0.47998,0.47998,0.47998s0.47998-0.2149,0.47998-0.47998
	S965.24188,823.00006,964.97681,823.00006z M964.01678,821.08002c-0.26508,0-0.47998,0.2149-0.47998,0.48004
	c0,0.26508,0.2149,0.47998,0.47998,0.47998c0.26514,0,0.48004-0.2149,0.48004-0.47998
	C964.49683,821.29492,964.28192,821.08002,964.01678,821.08002z"/>
<g>
	<defs>
		<ellipse id="clip_x5F_front" cx="731.9397" cy="302.93051" rx="175" ry="188.0463"/>
	</defs>
	<clipPath id="clip_x5F_front_00000168816800277093515200000013825490129979865271_">
		<use xlink:href="#clip_x5F_front"  style="overflow:visible;"/>
	</clipPath>
	<g id="P_x5F_front" style="clip-path:url(#clip_x5F_front_00000168816800277093515200000013825490129979865271_);">
		<path style="fill:#004680;" d="M96.93971,1203.40369V36.44205h446.70233c45.8894,0,87.96088,10.42496,126.21436,31.25507
			c38.25342,20.8301,71.65607,48.51769,100.20782,83.04295s50.74023,73.17294,66.547,115.9232s23.71936,86.59061,23.71936,131.54083
			c0,62.49033-13.00323,121.41315-39.00964,176.76855c-26.00647,55.37512-61.71466,100.58301-107.08759,135.66321
			c-45.39142,35.0802-99.19342,52.6203-161.40601,52.6203H174.95908v440.14752H96.93971z M174.95908,686.00049h374.80649
			c47.93671,0,89.25195-13.69519,123.92719-41.10529c34.67529-27.41016,61.17975-63.04529,79.55023-106.90546
			c18.35211-43.8403,27.53735-90.43552,27.53735-139.78564c0-51.53024-10.97437-98.93805-32.9046-142.24326
			c-21.9303-43.30522-50.99847-78.10794-87.20465-104.42799c-36.20612-26.32007-76.23022-39.48009-120.07233-39.48009H174.95908
			V686.00049z"/>
	</g>
</g>
<g id="K">
	<path style="fill:#004680;" d="M2571.49683,1205.94568V36h78.01929v710.21344L3282.87476,36h90.24805l-451.29517,512.46722
		l474.2583,657.47845h-90.26636l-436.00464-604.74353l-220.29883,243.86456v360.87897H2571.49683z"/>
</g>
<g>
	<defs>
		<circle id="clip_x5F_R_x5F_weave_x5F_upper" cx="1648.49683" cy="141" r="100"/>
	</defs>
	<clipPath id="clip_x5F_R_x5F_weave_x5F_upper_00000119102942087496089420000004418797956953780391_">
		<use xlink:href="#clip_x5F_R_x5F_weave_x5F_upper"  style="overflow:visible;"/>
	</clipPath>
	
		<g id="R_x5F_weave_x5F_front" style="clip-path:url(#clip_x5F_R_x5F_weave_x5F_upper_00000119102942087496089420000004418797956953780391_);">
		<defs>
			<path id="SVGID_00000165207587296484016880000004280766813732530595_" d="M1604.49683,1215.94568V26h803.27393v1189.94568
				H1604.49683z M1603.49683,861c12,0,15,0,25,1c20,4,40,10,60,12c20,1,30,2,40,4c40,5,70,10,100,17c30,11,70,25,100,33v-30
				c-30-10-70-22-100-31c-30-14-60-29-100-38c-10-2-20-4-40-7c-20-2-40-2-60-4c-10-1-13-2-25-2V861z"/>
		</defs>
		<clipPath id="SVGID_00000083055230419771794690000014725886310391387817_">
			<use xlink:href="#SVGID_00000165207587296484016880000004280766813732530595_"  style="overflow:visible;"/>
		</clipPath>
		
			<g id="R_00000044170728001866244490000002499012621650167482_" style="clip-path:url(#SVGID_00000083055230419771794690000014725886310391387817_);">
			<path style="fill:#004680;" d="M1614.49683,1205.94568V36h451.29492c46.92236,0,89.4917,10.45162,127.74512,31.33499
				c38.23511,20.88337,71.37964,48.64176,99.43335,83.25531c28.03516,34.61354,49.96558,73.36003,65.79077,116.21964
				c15.80664,42.85959,23.71924,86.81204,23.71924,131.8772c0,58.25885-10.71606,112.6629-32.12988,163.21216
				c-21.43237,50.54932-51.25659,92.87244-89.51025,126.92957c-38.25342,34.07709-82.87012,54.96045-133.8501,62.65015
				l270.78076,454.46667h-90.2666l-263.12622-441.27301h-351.86169v441.27301H1614.49683z M1692.51624,687.21942h380.93005
				c46.90381,0,87.70239-13.73016,122.37769-41.21039s61.45654-63.20648,80.32495-107.17877
				c18.86865-43.95245,28.31201-90.66684,28.31201-140.14313c0-50.54929-10.97437-97.54184-32.90454-140.95779
				c-21.93042-43.41595-50.99854-78.58585-87.20459-105.52957c-36.2063-26.92385-76.74683-40.39571-121.62183-40.39571h-370.21375
				V687.21942z"/>
		</g>
	</g>
</g>
</svg>
