<?xml version="1.0" encoding="utf-8"?>
<!-- Generator: Adobe Illustrator 30.2.1, SVG Export Plug-In . SVG Version: 9.03 Build 0)  -->
<svg version="1.1" id="Layer_1" xmlns="http://www.w3.org/2000/svg" xmlns:xlink="http://www.w3.org/1999/xlink" x="0px" y="0px"
	 viewBox="0 0 1134.47156 1254.61694" style="enable-background:new 0 0 1134.47156 1254.61694;" xml:space="preserve">
<path style="fill:#004680;" d="M499.91336,809.2326c-0.10986,2.65155-1.00067,12.76709-1.30249,16.37085l-0.96082,11.47119
	c-0.20514,2.44946-0.0929,4.85474-0.90546,7.14001c-0.63257,1.82922-1.39142,1.85651-1.97845-0.00702l-0.98126-5.05817
	c-0.49689-2.5614-0.68579-5.04425-0.93524-7.61542l-0.95575-9.85199l-0.93671-12.53467
	c-0.96649,3.02258-0.1181,6.21252-0.44739,9.73938l-0.37714,4.03918l0.13586,46.53198l0.591,16.58221l0.3642,15.60223
	l0.57098,14.16449l0.3606,14.6402c0.11194,4.54382,0.27826,8.92865,0.8736,13.47839
	c0.72321,5.52667,0.31097,11.14178,0.77802,16.98419l0.99634,12.46423c0.58759,7.35132,1.10077,11.08765,1.9588,18.05029
	l0.84967,6.89514c0.29175,2.36743,0.42682,4.44604,0.81299,6.73828l0.96875,5.75c0.39471,2.34302,0.62018,4.37915,1.00739,6.74084
	l0.94385,5.7561l1.12836,6.70093c0.7655,4.54626,2.42645,8.92676,2.14471,13.44727c-0.13782,2.21228-0.76392,3.78772-0.08514,6.2677
	l8.28159,30.25635c0.37878,1.38416-0.45288,2.4729-1.55478,1.49451c-6.35669-9.16772-8.60596-14.89514-12.99658-24.24963
	c-0.7937-1.69092-2.53925-2.71838-3.79315-4.27686c-0.3147,3.07153,2.39899,10.75732,1.27637,11.63672
	c-2.48108,1.94348-6.26819-6.46301-6.64734-9.68054c-1.77118,0.51953,0.59467,6.94653,1.45435,9.73242
	c5.02258,16.27686,11.11798,31.51135,18.23297,46.97705c3.45786,7.51648,6.99069,14.27991,10.31503,21.4657l4.24646,9.17883
	c1.24634,2.69409,1.51929,5.10742,2.2804,7.6626c1.08435,3.64014,9.25171,13.0415,9.64343,14.18604
	c0.56616,1.65393,3.09509,1.88684,3.0105,4.38989c-3.8186-2.22339-6.27771-4.90222-8.93176-8.35974l-5.53284-7.20752
	c-7.52869-9.80774-7.43372-14.2417-12.64896-22.58826c-1.13947-1.82361-2.37775-3.26074-3.40332-5.21594
	c-5.15265-9.82349-9.83868-19.33533-13.91302-29.53479l-7.66211-19.18079c-1.0329-2.58569-1.86987-5.08228-2.69452-7.6543
	l-3.48364-10.86536c-0.93274-2.90894-1.05432-3.22253-1.87817-5.53906l-1.01489-2.85364
	c1.58789,4.46484-2.55743-11.00439-1.78497-7.79565l-0.93518-3.88489c-0.04718-0.19592-3.04443-10.79883-2.97955-10.60095
	c1.9314,5.89014-3.7486-17.45447-2.78546-12.15271l-0.70538-3.88293c-0.82257-4.52795-1.53552-6.62659-2.11804-10.23083
	c-0.33929-2.09949-0.1369-4.20825-1.49768-6.3573c0.724-1.46606-0.04797-2.5166-1.02649-1.55981
	c0.97705,1.94226,0.23669,3.12012-0.90588,1.69031c0.8847-0.93994-1.46912-11.51233-1.5636-11.83459
	c-0.70984-2.42261,0.07062-4.97205-0.39288-7.55212l-3.79181-21.10718l-0.97131-6.7641
	c-0.37152-2.58722-0.97369-4.87921-1.01141-7.4212c0.05304,3.5741-0.95074-6.51868-1.26837-7.37518
	c-1.38885-3.7453,1.36145-10.45648-2.22247-11.112c-0.29535,7.63031,1.4104,7.71521,1.02667,17.05774
	c0.71942-1.66913,1.3103,8.38184,1.50867,10.12085l1.26678,11.10547l3.91846,27.01202l2.08984,12.42841l1.92889,9.63354
	l3.26477,14.64111c1.13733,5.10046,3.47565,13.2417,5.2312,18.07703c-0.43353,2.22021,0.91779,2.24561,0.96454,0.07751
	l-1.16132-1.97485c2.92682,4.97729-9.21448-33.99951-2.87384-25.17822c-0.87201,0.00854,1.41467,11.03174,1.00568,9.69043
	l0.81531,2.67383c0.534,1.75146,0.65192,2.93848,0.8938,3.92908l0.94031,3.85022l0.95764,3.84314l0.96545,3.84705l0.94055,3.88257
	c1.86493,7.69885,6.73584,23.12036,10.02283,31.66553l3.95093,10.27124c7.63989,19.86145,16.68353,38.66101,27.61905,57.0481
	c1.18945,1.99988,9.82532,15.16174,7.32385,16.11145c-1.80798-0.8988-2.70605-2.69177-4.07825-4.30164
	c-7.27356-8.5332-13.0145-17.75415-18.68918-27.19812c-1.55939-2.59509-3.49792-4.84412-4.39471-7.99817
	c-0.30035-1.0564-3.07672-5.42151-4.19971-6.54724c0.14966-1.3042-0.20374-2.33044-1.20074-1.10571
	c0.14062,1.23425,0.82349,1.56433,1.1731,2.21069l0.98907,1.82812c-1.60864-2.97339,5.85376,13.51416,5.24249,12.28967
	l12.15436,24.34448c0.43237,0.86609-0.48505,2.09827-1.14966,1.20215c-1.20477-0.84595-1.72858-1.83325-2.47357-2.7876
	l-2.95807-3.78906l-3.63202-4.94104c-17.19702-23.39465-33.02228-63.26978-41.36816-91.26477
	c-4.58502-15.38-12.36255-47.07617-14.33759-62.56079l-0.74054-5.80566c-0.28717-2.25183-1.48114-8.70215-2.2005-10.3219
	c-0.09631-0.21692-2.37506-16.24451-2.67285-18.47131l-1.32611-9.91595c-0.38721-2.8952-0.66315-5.67236-0.94092-8.63721
	l-0.9859-10.52277c-0.40662-4.33972-0.5174-8.60645-0.89685-13.18903l-0.55658-6.72192l-0.48517-14.6449
	c-0.10071-3.03857-0.47968-6.07904-0.47943-9.39508l0.00372-45.04028c0.00024-3.64081,0.38428-6.99194,0.48224-10.35596
	l0.48248-16.5661l0.55847-11.51892c0.37872-7.81049-0.03979-15.26935,0.86017-22.77985
	c0.53748-4.48511,0.58655-8.84607,0.58838-13.3476c-1.71606-1.12115-10.0473,0.61896-6.86749,0.3255l-6.08356,0.56146
	c11.12592-1.02679-16.94696,2.34613-6.46906,1.34222l-6.00238,0.57507c11.01611-1.05548-16.93079,2.38336-6.47961,1.35187
	l-5.92419,0.58472c1.74976-0.17273-11.89014,2.58301-10.6474,1.896c-0.19019,0.1051-12.60175,2.60736-14.72864,2.99982
	l-21.07977,3.88983l-8.56763,1.64832c-2.35809,0.45367-4.49237,1.00146-6.47931,1.31543l-4.15485,0.65662l-4.79315,1.02179
	l-5.80096,1.03668l-3.79871,0.85724l-5.81506,1.06372l-3.78973,0.88446l-6.72491,1.16071l-29.75842,5.80518l-14.65717,2.30859
	l-24.7095,3.45459c-14.5802,2.03839-45.00128,3.0578-59.54327,1.76923l-10.57611-0.93719
	c-16.16708-1.43262-37.30505-6.53027-52.04404-12.44861c-4.513-1.81219-10.89093-5.28156-15.38391-7.74921
	c-9.52771-5.23279-16.51425-10.05249-24.6261-17.61407l-4.34506-4.05035c-10.99722-10.25128-21.46088-28.55847-27.2955-42.20679
	c-6.19562-14.49255-11.11288-39.12555-13.10794-55.51111c-1.09631-9.00421-2.35834-50.52399-1.271-56.38794l0.58035-3.13
	c0.72009-3.88342,0.2941-7.60571,0.72833-11.57928l1.2558-11.49121c0.99918-9.14307,6.80206-41.22064,9.04605-50.47101
	l0.56677-2.33643c2.44125-10.06354,4.68106-19.95663,7.64804-29.94327l7.90579-26.61029
	c1.75964-5.92279,3.85202-11.45709,5.90961-17.12317l6.35605-17.50302l5.86743-14.37064
	c1.51926-3.72101,2.84525-7.29196,4.47403-10.83234l10.01505-21.76904l4.02087-8.4989l0.90814-1.91058l9.16635-18.57504
	l11.17285-21.27399l11.44431-19.37653l8.10565-13.9902l1.09061-1.88998c5.64249-9.77835,11.77054-19.37033,18.11945-28.88776
	l2.01035-3.01367c16.75003-25.10934,44.24332-61.85214,63.81064-84.69855l5.7641-6.73004l5.78299-6.70883
	c2.11273-2.45099,3.98242-4.83345,6.56036-7.10869c0.59799-0.52779,0.6236-1.28705,1.06238-1.76131l7.77457-8.4035
	c8.93277-9.65543,13.39301-15.04665,23.17551-24.8313l25.1524-25.15791c8.2796-8.28142,14.45502-13.9021,23.32257-21.77684
	l9.17438-8.14719l6.7486-5.75931l5.77661-4.79852l4.81152-3.87172c-1.1731,0.94395,7.58966-5.51855,5.81335-4.41747l7.69794-4.77171
	l15.9137-9.23301c6.39081-3.70789,12.89746-6.47058,20.05933-8.7811c9.7774-3.15433,19.24829-6.35968,29.63013-7.99786
	c4.93396-0.77854,12.47644-2.42606,17.28699-2.76636l8.60541-0.60877c7.49493-0.5302,22.57239-0.01281,29.07855,1.05229
	l5.77808,0.9459c3.73651,0.61169,7.29761,1.33531,11.34821,2.59476l1.896,0.58951
	c28.16904,8.75851,47.89255,22.04975,66.73508,45.3562c17.59631,21.76492,30.01611,51.43735,36.03809,78.90121l0.49902,2.27585
	c0.39246,1.78992,0.80212,3.52049,1.11609,5.35793l1.02051,5.97444c0.32471,1.90056,0.68994,3.70157,0.92004,5.51961l1.10962,8.7704
	l0.74927,7.96497c1.02405,10.88574,0.38501,24.09119-0.96509,34.96942l-0.84827,6.83411l-1.08118,6.44733
	c-1.25769,7.49933-3.45093,16.9769-5.45789,24.51559l-8.15906,30.64874l-12.1001,45.98816l-1.11841,4.90527
	c-0.96643,4.23871-1.40479,5.37552-2.41809,9.62476l-13.25879,55.59784l-7.65149,34.61163l-1.18872,5.76959l-0.87122,3.79608
	l-1.03564,4.82379l-1.02869,4.86194l-11.30176,57.48727l-5.72009,32.71143l-1.10071,6.70691l-0.94775,5.75616l-0.97266,5.76105
	c-0.38696,2.29181-2.48743,17.14655-2.66504,17.49957c0.07251-0.1441-2.66797,17.86243-2.93652,19.96393l-0.98279,7.68958
	c-0.2865,2.24115-0.62769,4.41992-0.9281,6.7124l-3.55078,27.09326l-1.0083,8.39569l-0.97714,8.63885l-0.98322,8.63989
	l-0.8576,8.88556l-1.1673,12.23724l-0.81799,8.6463c-0.2348,2.48157-1.40527,14.18335-1.01172,15.13306
	c0.67578,1.63074,7.19278,0.50507,7.22891,0.48871c0.43054-0.19507,30.76599-2.31012,34.34045-2.45325l12.72058-0.50958
	l9.36865-0.50391l11.76294-0.40985l17.03235-0.58655c1.32104-0.04553,2.51794-0.05212,3.86328-0.05328l42.19226-0.0365
	c-5.0365,0.00433,12.33691,0.28998,5.75342,0.01825l16.0896,0.664c4.99658,0.20618,46.81018,2.07703,48.09998,2.86053
	c-1.06458-0.64661,60.61316,5.60052,70.02185,8.58282c0.99835,0.31647,1.88831,0.36694,3.0473,0.5448l7.81561,1.19928
	l7.32648,1.21222c2.09314,0.34637,5.40076,1.06366,7.92841,1.52179l18.46698,3.3468
	c1.11688,0.20245,2.30029,0.49402,3.50897,0.74207l5.48773,1.12628l29.21442,7.45544
	c42.8139,10.92596,83.30121,27.46033,122.02893,48.28369c9.60156,5.16266,17.37891,12.60168,27.07605,16.62109l1.31396,0.54468
	c-1.72516-0.71509,3.83929,2.89056,3.41107,2.44244l0.96765,1.01288l1.41064,0.37054
	c0.98602,0.74219,1.59894,1.95325,0.2851,1.30939c-3.15161-1.24561-6.29669-3.56732-7.62238-4.28522l-7.56262-4.09515
	l-6.64276-3.94427c-3.62958-2.15515-14.29016-8.31757-17.61639-9.94427l-13.03998-6.37708
	c-2.90479-1.42059-5.4502-2.81464-8.21295-4.03577l-18.08783-7.99445l-21.09131-8.42639l-2.23102-0.88031l-3.63861-1.31104
	c-16.49939-5.94489-32.63135-11.08154-49.42139-15.70129c-2.76367-0.76038-4.08453-1.30646-6.66492-1.93268l-10.19025-2.47296
	c-0.81708-0.19824-1.38104-0.52808-1.96124-0.64288c-2.78375-0.55109-34.39166-7.6571-34.04297-7.39587
	c-0.6568-0.49213-1.24939-0.4726-2.24872-0.62958l-19.14728-3.00732c-7.61279-1.19568-10.37-1.9342-18.04694-3.03467
	l-13.4707-1.93097l-8.86438-1.06183l-7.67828-0.99133l-9.59741-0.94812l-8.40039-0.84644l-11.51501-0.97913l-11.53577-0.92157
	l-16.30334-0.96625l-19.18481-0.99475c-3.8645-0.20038-7.65198-0.54016-11.85303-0.53967l-70.88721,0.00824
	c-4.19861,0.00049-7.98792,0.32294-11.84912,0.50293l-21.10547,0.98413l-18.22693,0.8894
	c-4.77222,0.23291-11.65698,0.98877-17.04285,1.32227l-10.85709,0.67236l-1.9541,0.42566
	c-0.61444,0.13379-1.11346,3.47528,0.3147,3.46997c3.95911-0.01489,7.58902,0.23907,11.5181-0.32349
	c6.38062-0.91351,12.68677-0.64874,20.45715-1.21356c11.89709-0.86481,24.44727-0.10754,35.54407-0.92242
	c9.70044-0.71234,19.39441-0.39307,29.44055-0.41425l19.21387-0.04059c8.75952-0.01849,17.15247,0.02814,25.63098,0.43451
	l7.00879,0.33594l22.74854,0.57666c4.2168,0.10693,8.35547,0.1748,12.7854,0.61707l8.60535,0.85901l6.72852-0.00867
	c1.52893-0.00195,2.57898,0.54456,3.8562,0.9101c3.57117,1.02216,7.00146-0.65411,10.63538,0.7984
	c-4.91394,1.17792-9.70312-0.15875-15.16406,0.46259c-1.16199,2.43927,5.47229-0.87103,6.35901,2.6001
	c-4.85779,0.93323-2.45178,0.20361-5.68384,0.16461l-1.90039-0.02295l-2.79944-0.01172
	c-1.3092,0.37708-1.33252,0.8316,0.00085,1.17584c2.15942-0.32404,2.46057,0.0556,3.71606,0.15894l15.38647,1.26624
	c3.02881,0.24927,5.46411,0.5694,8.58142,0.89233l8.69824,0.90112c2.93762,0.30438,5.64941,1.30811,9.18225,0.95575
	c2.41724,0.91718,0.74316,2.09668-1.35059,1.64246c1.01855,0.6319-5.75171-0.90527-4.04065-0.29291l-1.13647-0.40674
	l-16.1416-1.65613l-2.79565-0.25403l-16.65771-1.83649c-1.36084-0.15002-2.79126,0.02222-4.51599-0.09827
	c-5.88696-0.41113-2.01208-1.35004-6.68506-1.30768l-8.68311,0.0788c-3.11243,0.0282-4.76221-0.91266-4.73059-0.90942
	c-5.84778-0.59882-11.32031,0.51886-17.20459-0.40985c-1.94458-0.30688-3.71631-0.83337-5.83081-0.83636l-41.30164-0.05829
	l-1.89954-0.60596l-9.68335,0.08752c-0.97046,0.00873-1.79333,0.34485-2.86011,0.35004l-29.73462,0.14514
	c-4.21924,0.02063-32.06262,1.26245-35.27515,1.57416c-4.52429,0.4389-8.94788,0.68329-13.45459,0.98401l-13.41714,0.89526
	c-0.94543,0.06311-3.98193,0.48761-4.34393,0.67743c-0.46973,0.24634-0.29657,1.16858-0.05182,1.74646
	c0.26917,0.63556,1.0733,1.16968,2.25085,0.7923c5.81229-1.86279,9.98648,0.12292,14.9921-1.16345
	c3.82202-0.98218,10.21106-0.48199,15.69543-0.56671c1.1366-0.01758,1.85144-0.64185,2.79236-0.75812
	c5.22388-0.64551,13.15576,0.7464,18.98608-0.57349c3.96631-0.89783,28.52246-0.02942,36.82605-0.75433l3.01074-0.26288
	c6.19263-0.54065,12.23755-0.30908,18.35767-0.02142l3.54041,0.16638l40.28052,0.80609l22.10754,1.13007
	c4.38489,0.22418,8.48267,0.53461,12.67822,0.86499l12.29565,0.96838c9.80908,0.77258,10.63855,0.8927,20.19763,1.8725
	l9.5813,0.98212c4.91125,0.50348,9.53442,0.83221,14.13672,1.67834l3.8587,0.70941l20.28699,2.97278
	c1.08966,0.15967,1.92511,0.43671,2.95917,0.61072l13.56342,2.28217l3.76678,0.8457c5.83478,1.31,14.02734,2.34674,21.05798,3.76318
	l6.47949,1.30542c10.27423,2.06989,20.05908,4.66498,29.75012,8.7948c0.03156,0.01343,9.99207,2.77539,5.51251,2.40967
	c-0.74445-0.06079-1.58496,0.30988-2.05414-0.23969c-1.33759-1.56696-3.4317-0.09546-4.73798-0.94891
	c-0.17615-0.11511-12.46826-3.14166-13.80127-3.41565l-12.78894-2.62805c-5.63831-1.15863-20.73871-4.82147-25.73029-5.23804
	c-2.54944-0.21277-18.25079-3.45496-23.15002-4.15674l-18.01422-2.58063l-2.17725-0.4411l-56.32501-5.9306l-13.47974-0.82257
	l-7.60376-0.51105l-9.66504-0.38507l-8.79114-0.42114l-17.88086-0.46167c-0.52051-0.01343-1.10339-0.97705-2.16162-0.72583
	c-2.27112,0.53906-21.55103-0.75446-24.09924,0.61292c7.4519,1.52997,14.11938,0.21295,20.99939,0.85327
	c2.33167,0.21704-0.7323,0.2843,6.10559,0.48706l20.00342,0.59326l5.80115,0.28064c1.93677,0.09369,7.89124,0.6582,9.82727,0.75708
	l9.37646,0.47882l13.39429,1.1601l11.7887,1.05859l9.12085,0.88208l17.87561,2.02655
	c31.01544,3.51617,61.25275,9.02594,91.8205,16.50726c15.18585,3.71667-16.34247-0.88733-7.63806-0.52771l-1.86322-0.07703
	c-0.54205-0.0224-0.85779-0.44421-1.30243-0.51929l-4.3197-0.72937c1.71521,0.28961-28.57373-5.9527-24.95648-4.81134
	c-3.07422-0.96997-10.99615-1.8053-11.42725-1.95721c-2.76178-0.97375-22.03857-3.08105-26.36304-3.6803l-8.24731-1.14282
	l-8.64465-0.95947l-8.66187-0.95575c-9.32361-1.02881-13.33167-1.33734-22.57922-2.0072l-11.9314-0.86432
	c-0.67761-0.04907-1.15637-0.64954-2.23413-0.58032c-5.87732,0.37744-11.40662-0.4505-17.29102-0.62732l-37.42566-1.12439
	l-36.47314,0.02594l-24.005,0.55109l-20.39771,0.82318l-18.25586,0.99017l-15.3728,0.9588
	c-2.58301,0.16107-19.16629,1.22754-19.871,1.78998c-1.88373,1.50354,0.12781,4.78375-0.24963,4.50769
	c1.38684,1.0144,4.68481-0.48401,11.73831-0.14862c1.09924,0.05225,1.60559-0.72034,2.19348-0.80762
	c3.96716-0.58868,7.93958-0.23816,12.22034-0.17969c1.05798,0.01447,1.60327-0.69696,2.17664-0.77887
	c4.98389-0.71185,14.66931,0.56885,15.32825-1.19501l18.04895-0.00488c0.57166-0.00018,0.88123-0.46375,1.1626-0.99835
	l25.66907,0.13171c1.59302,0.00812,2.62769-0.97168,3.76953-0.97546l50.3457-0.16797
	c1.22791,0.73077-0.04468,1.30292-1.28918,0.96954l-47.75183,0.19446l-2.18347,0.88879l-25.67542,0.07739
	c9.08691-0.0274-2.63098,0.81818-4.09497,0.8158l-1.89368-0.00305c-3.67798-0.00598-6.94336,0.19055-10.58679-0.13068
	c-1.08301-0.09546-1.61572,0.75275-2.1759,0.8222c-5.22095,0.64752-14.995-0.54724-16.29187,1.12585l-12.01428,0.18512
	c0.43628,1.51398-8.83533,0.61658-12.87717,1.04327c2.1373-0.22565-6.45764,1.47363-6.41125,1.43365
	c-0.40466,0.34924-0.90961,1.09601-0.47302,1.92853c0.11163,0.21289-1.28119,12.41089-1.32666,13.74719l-0.39203,11.51093
	c-0.05646,1.65796-1.22046,13.35547-1.34467,16.35278L499.91336,809.2326z M212.94101,762.37122
	c5.21594,0.03326,3.41098-1.04803,4.58417-1.04456l10.86166,0.03223c1.23315,0.00366,1.96008-0.92883,2.57495-0.92554
	l5.01965,0.02704c1.34634,0.00726,2.02499-1.02576,2.69751-1.01758l4.28992,0.05243c2.00635-0.099,2.00818-1.24451,0.02554-1.30255
	c-1.85791,0.20648-3.72211-0.6507-5.11786,0.13422l-1.78247,1.00232c1.95166-1.09747-13.36133,0.98468-10.63324,0.94122
	c-3.57172,0.05688-6.95978-0.34241-10.19214,0.32721c-0.70016,0.14502-1.13528,0.53448-2.20193,0.534l-31.80444-0.01465
	c-1.0939-0.00055-1.43207-0.29437-2.18655-0.50653c-3.41422-0.96021-8.28186,0.32324-10.55002-0.97424
	c-1.78949-1.02368-4.22409,0.24603-6.07642-0.60931c-3.91434-1.8075-4.29047,0.50153-6.42184-1.3819
	c0.36465,0.3222-12.64209-2.34229-12.40112-2.25684l-2.83426-1.00537l-2.87445-0.96252l-2.87354-0.97546
	c-1.97385-0.6701-9.54788-2.47845-10.60895-4.04224c1.39069,2.04956-16.5741-8.45386-22.14923-13.73724
	c-3.7153-3.52094-8.09155-6.09937-9.9679-11.10858c5.17902,5.06836,9.28888,9.7002,15.27063,13.35736
	c2.00073,1.22327,8.11371,5.23315,8.70892,5.52966l7.75217,3.86139c1.94775,0.97021,8.21756,3.42627,10.22604,4.00067
	l14.41193,4.12146c2.43359,0.69592,4.68582,1.1156,6.98257,1.47809l5.80823,0.91675l7.60864,0.95599
	c15.77493,1.98212,31.42294,1.68695,47.75775,0.67682c2.92416-0.18085,21.81143-1.91077,23.08435-2.19543l2.91251-0.65118
	l4.76434-0.51398l2.16147-0.29767l8.44507-1.05103l5.79272-0.97388l19.13373-3.2688c0.89301-0.15259,1.47394-0.37457,2.13281-0.4704
	l5.28839-0.76904c3.86304-0.56177,7.64612-1.42639,11.52515-2.11725l37.89612-6.74957l10.31158-1.66779
	c4.96564-0.80316,8.97461-1.62238,13.51837-2.28735l11.15985-1.63336c3.61688-0.52936,7.03668-1.09033,10.84833-1.67566
	l5.74799-0.88275c3.27197-0.5025,6.32111-0.76501,9.34705-1.28174l4.06683-0.6944c2.70154-0.46124,5.07404-0.54504,7.70862-0.93353
	l7.63995-1.12659c4.19537-0.61865,17.36957-1.4566,18.76074-3.00873c1.64124-1.83105,1.23633-5.46143,1.28381-8.01935
	c0.04364-2.34998,2.19037-21.97119,2.64838-26.03937l0.86469-7.68024l0.97839-8.63226l0.96533-7.68182l0.96082-7.66925
	l0.90674-6.72711l1.06311-7.67065l0.85864-5.76654l1.39203-9.65405l6.05267-35.67853l5.79437-35.9519
	c0.31696-1.96667,0.86377-3.83105,1.2356-6.07111l0.9577-5.76892c0.27118-1.63348,0.83801-3.1535,1.0946-4.74011l0.93359-5.77258
	l0.93005-4.77063c0.46741-2.39777,0.62335-4.44104,1.03326-6.78351c1.20062-6.86133,3.45813-13.3132,3.96033-20.15067
	c1.60284-21.82001,30.81873-144.40839,38.21674-171.6499l8.44827-31.1087l1.30737-4.62787l10.26282-35.46124l4.828-19.23608
	c0.69324-2.76193,2.64563-13.29123,3.09167-16.30414l0.71545-4.83182c1.03125-6.96512,1.75464-19.76395,1.0249-26.76624
	l-0.80713-7.74463l-1.01807-6.73245l-0.97327-5.75891c-0.32532-1.92467-0.8562-3.73328-1.23999-5.52765
	c-4.88672-22.8438-12.62207-44.78416-26.92758-63.09399c-4.27832-5.47583-11.27087-12.30612-17.01068-16.14168
	C472.58524,74.4,446.98801,73.51131,423.55063,79.20306l-7.7652,1.88577c-5.70367,1.38513-12.93597,3.64159-18.39728,6.39941
	l-2.63068,1.32845l-12.47498,6.40842c-6.18805,3.17879-11.99628,7.62309-17.57983,12.4323l-7.25183,6.24608l-7.13757,6.25835
	l-11.51013,10.39797c-1.30621,1.17999-2.37018,2.16463-3.66663,3.46271l-41.83997,41.89369
	c-1.12354,1.12495-1.99493,1.98643-2.95679,3.05511l-10.84991,12.05463l-6.763,7.64899l-6.271,7.185l-13.98767,16.82684
	l-6.5163,7.72864c-3.43668,4.07605-4.55679,5.50394-7.71967,9.48251l-3.85818,4.85321
	c-4.25943,5.35797-8.62347,11.06879-12.50284,16.40411l-11.74368,16.15125l-5.58118,7.81802l-13.41696,20.1156
	c-4.79614,7.1907-6.88052,11.09402-11.3703,18.23938l-1.85046,2.94495l-3.91638,6.67609
	c-1.3609,2.31985-2.68744,4.3093-3.97525,6.64206l-5.23572,9.48398l-2.37064,3.98431
	c-1.70996,2.87393-2.03476,6.09064-5.03397,7.92209c1.10391-4.95081,3.978-8.38104,6.39685-12.66833l7.59479-13.46152
	l3.90308-6.69666c1.93716-3.3237,3.82993-6.27054,5.85223-9.54843l4.56665-7.40176l7.08282-10.86917l12.90213-19.61206
	c1.20047-1.82477,3.54462-4.99457,5.18668-7.28662l2.8956-4.04175l4.90216-6.46054c1.10016-1.44986,1.99249-2.6171,2.9754-3.92035
	l2.89975-3.84488l2.88449-3.83951l2.8815-3.83972l2.8826-3.83969l2.89062-3.8418c0.98502-1.30911,1.84818-2.54132,2.94095-3.87497
	l4.63202-5.65308c0.84207-1.02771,1.60837-1.63776,1.89734-2.93594c-1.48099,1.13263-2.50986,2.41098-3.73022,3.8732
	l-4.75217,5.69397l-3.87064,4.81952l-3.81229,4.77515l-2.95053,3.88809l-3.77505,4.74985l-2.93692,3.86609
	c-1.72961,2.27679-5.2637,6.9079-6.09781,8.97952c0.52026-1.29211-5.01968,6.25519-5.11624,6.39215l-1.97086,2.79596
	c-22.45438,31.85492-30.18256,43.76859-49.24612,77.55249l-7.37888,13.07663
	c-13.58362,24.07251-25.38187,48.69739-35.54535,74.59512l-3.00232,7.65021c-1.54672,3.94128-3.1644,7.56207-4.6376,11.5567
	l-6.43851,17.45825l-2.31732,6.57666l-8.03757,25.41095l-5.02817,17.00314c-0.38849,1.31372-0.3855,2.53809-0.93985,3.88995
	c-0.77347,1.88629-5.76987,24.90106-6.72583,28.76947l-3.7966,15.36328l-1.05963,5.51849l-0.84686,5.97913
	c-2.86212,20.2077-4.95163,36.47375-3.8656,57.29553l0.65393,12.53784c0.4256,8.15955,1.65744,15.93628,3.0946,23.70483
	l0.76114,4.11444c1.86139,10.06165,7.13617,25.98419,12.80838,34.2262c4.81015,6.98938,15.09625,17.24872,22.40579,21.38324
	l12.84079,7.26318l3.50845,1.36664l6.75858,2.69666c1.16064,0.46313,2.1922,0.71301,3.95752,1.33759l2.95142,1.04425
	c2.63217,0.93134,14.22736,4.14484,16.40848,4.36615l5.12253,0.51971c0.77966,0.0791,1.11588,0.70239,2.24725,0.72034
	l3.89429,0.06189c-7.05499-0.11212,17.59674,1.60419,11.74442,1.77246L212.94101,762.37122z M427.33841,762.23962
	c1.13489,0.19873,12.31641-0.23743,8.97589-3.45038c-0.44806-0.43103-1.64447-0.25116-2.49091-0.11688l-2.91486,0.46228
	c-1.99072,0.31573-3.85992-0.36298-5.39404,0.4801c-2.87793,1.58154-5.82452-0.052-7.62531,0.99237
	c-2.97424,1.72485-4.38373-0.48199-7.44849,1.31366c0.83331-0.48822-9.96185,1.25818-6.70386,0.95105l-6.07794,0.57294
	c-0.75391,0.07111-1.12262,0.87653-2.24274,0.76819c-1.93988-0.18762-3.57208-0.4256-5.18396,0.56213
	c-1.7132,1.0498-4.20996-0.40051-6.01227,0.5755c-0.61969,0.33551-5.98132,1.37122-6.93518,1.526l-23.56531,3.82349
	l-35.06427,6.19153l-5.76569,0.99396c-9.2793,1.59967-11.05408,1.8407-20.00244,4.04413
	c-15.1134,3.72156-30.12555,6.17822-45.5238,7.88428l-15.15125,1.67865l-19.42184,1.19879
	c-8.19653,0.50592-16.27469,0.30554-24.46246-0.01733l-9.8642-0.38898l-6.50122-0.54376
	c-24.4111-2.04175-61.51596-11.12152-81.12308-26.07965l-4.94586-3.77319c-6.98892-5.33179-13.23276-10.73895-18.94196-17.9259
	l-3.44543-4.33728c-2.40643-3.0293-4.29916-6.40155-6.51651-9.78741c-8.99115-13.72968-17.06723-41.43573-18.90359-57.86859
	c-0.07819-0.69958-1.59058-12.81958-1.58289-12.58057l-0.46075-14.30109c-0.02719-0.84393-0.43127-1.55438-0.44418-2.19318
	c-0.1459-7.22974-0.26855-14.32056,0.06711-21.54163c0.33475-7.20178,0.50635-19.80664,1.16476-25.31976l0.93283-7.81104
	l1.17599-11.30756c0.27243-2.61945,0.30121-5.05261,0.74728-7.45123l2.03961-10.96771
	c0.10733-0.57709,3.15656-21.54468,2.43793-19.15869c0.36865-1.22406,1.98953-2.69281,0.12726-3.83429
	c-0.38467,1.55328-0.81046,2.26501-0.94489,3.39771l-0.48193,4.06036c0.36951-3.11322-4.15945,19.78174-4.16739,19.82025
	l-1.00394,4.88361c-0.3895,1.89471-0.03372,3.82471-0.81427,5.75531c-0.75156,1.85889-2.2923,14.61847-2.60437,17.64844
	l-0.99155,9.62689l-0.96817,15.3241c-0.49179,7.78387-1.02054,27.26617-0.35657,34.81219l1.38614,15.75452l0.78967,6.35162
	c1.03299,8.30859,4.76105,23.67877,7.5332,31.62738l3.02936,8.6861c0.80725,2.31458,1.88904,4.33759,2.75107,6.43921
	c3.75726,9.16046,8.74786,17.29663,15.11664,25.13647c4.45706,5.48663,16.11682,17.1524,21.79269,21.07172l6.22092,4.29565
	c11.13968,7.6922,23.59784,13.50916,36.98529,16.854l14.43384,3.60626l13.72894,2.5863
	c2.55984,0.48224,17.427,1.97339,20.79456,2.10431c5.69513,0.22144,38.82281,0.70007,41.03516-0.07196
	c2.53732-0.8855,5.20175-0.39026,7.98862-0.71814l28.04086-3.29901l9.23419-1.29279
	c8.26324-1.15692,15.9906-2.66388,24.08844-4.17444l9.60449-1.79163c2.33099-0.43481,16.66931-2.94275,16.92181-3.05457
	c1.64502-0.72839,3.27063-0.37775,5.20544-0.81427l3.78174-0.85321l7.39429-1.23395
	c8.15692-1.36127,14.37848-2.59766,22.70013-3.99182l27.52472-4.61145c-3.14612,0.86981,12.77338-1.63055,8.021-1.18884
	l6.08502-0.56561c-11.02045,1.02435,16.87543-2.35919,6.46802-1.34369l5.99359-0.58484
	c-3.15051,0.30743,7.29889-1.41052,6.66687-0.96649c2.5412-1.78528,3.6015,0.45477,7.42279-1.33606
	C422.63565,762.54382,427.81107,764.07544,427.33841,762.23962z M300.36765,776.28986
	c2.75146-0.49707,18.49921-2.84912,18.96167-3.18811c1.68542-1.23572,4.07697,0.31024,5.74744-0.66589
	c2.10156-1.22809,20.00208-3.2312,17.96655-2.4173c0.58075-0.23224,1.03949-1.62708,2.37732-1.09851
	c2.28558,0.90314,11.03125-0.45477,13.54352-0.88263l3.83722-0.65363c1.9624-0.33423,3.79181-0.71948,5.72906-1.00031
	l6.62695-0.96051c3.46729-0.50256,2.22729,0.69885,5.22522-1.02856c-1.37036,0.78961,18.99335-2.93756,18.29425-2.86914
	l5.94458-0.58148c-1.07922,0.10553,7.08789-1.07599,7.51031-1.31165c-0.78394,0.43732,10.19897-1.22076,7.61572-0.97662
	l6.07703-0.57434c0.7453-0.0705,1.11041-0.92242,2.26917-0.7583c2.85059,0.40381,5.67688,0.30627,8.13525-1.30298
	c1.10925-0.72607,1.01233-2.85962,1.15625-4.26904c-5.22266-0.47839-10.19513,0.72339-15.75519,1.37903l-7.93231,0.93542
	c-2.68628,0.31677-5.07513,0.71356-7.42395,1.03516l-6.78552,0.92908l-6.61719,0.93054l-6.68622,0.96027
	c-4.53705,0.65161-6.25525,0.9408-10.90912,1.72931l-6.729,1.14008l-37.2113,6.93164l-27.73999,5.48761l-4.15094,0.77094
	c-2.00116,0.37164-3.73291,0.84839-5.48676,1.16132l-5.07135,0.90491l-5.53931,1.02942l-9.57123,1.90826l-5.67041,0.95667
	l-4.85211,0.92114c1.70422-0.32355-10.98676,1.54242-7.4162,1.20306l-6.017,0.5719c2.77328-0.26361-6.1095,1.12537-6.48135,1.31403
	c-2.18192,1.10724-2.17627-0.68164-7.54184,1.08447c-2.37863,0.78296-4.80255-0.55432-7.50659,0.6936
	c2.73334,1.12061,5.49905,0.07916,8.78607,0.57446c0.57642,0.08685,0.79187-0.81879,1.14713-0.87836
	c4.81357-0.80731,3.24963,0.76459,8.65985-0.93951c2.32385-0.73199,4.87161,0.40802,7.10657-0.50623
	c3.86258-1.58008,5.54227,0.09229,7.69052-1.01703c0.78372-0.40466,10.23312-1.53143,12.54056-1.9483L300.36765,776.28986z
	 M338.49039,755.95068l6.00543-0.91113c4.69299-0.71198,6.12653-0.87726,10.62524-1.67072l5.73907-1.01227l5.76868-0.93085
	c2.56873-0.41455,5.05035-0.85413,7.60522-1.20557l7.41882-1.02039c2.21686-0.30487,4.21686-0.72241,6.34979-1.0307
	l20.16815-2.91522l28.73596-3.84052c0.73529-0.09827,1.16302-0.95807,0.94421-1.22253
	c-0.14124-0.17065-0.44122-0.87732-1.16437-0.78497l-33.82202,4.31744l-12.2525,1.74335l-24.6756,3.82379
	c-4.43793,0.68774-8.23132,1.29291-12.48218,1.90564l-6.00635,0.86566l-5.52344,0.96918l-6.63135,1.01746
	c-1.33624,0.20502-16.4032,2.90607-16.39868,2.90393c-2.90106,1.3786-4.08069-0.62695-6.3645,1.17181
	c-1.16467,0.9173-2.99542-0.6485-4.52374,0.83319c0.47473,1.20258,17.53735-0.79144,19.01123-1.04364L338.49039,755.95068z
	 M260.71936,757.11346c0.55685-0.21497,8.44382-1.58533,6.43991-1.36456l4.98566-0.54919
	c-0.16827,0.01855,12.79993-2.38239,12.28461-2.32788l5.06744-0.53571c-10.85144,1.14709,16.87231-2.48938,6.46429-1.37695
	l5.04932-0.53967c-10.86475,1.16125,16.86121-2.49084,6.47144-1.38049l5.04938-0.53961
	c-10.84033,1.15845,16.92102-2.52338,6.4715-1.38556l4.99579-0.54395c-9.60822,1.0462,16.08911-2.25305,6.45703-1.36774
	l6.08984-0.55975c-2.021,0.18579,13.05603-2.50726,11.61847-1.93567c2.18292-0.86792,13.7749-2.2951,17.49695-2.85785
	l14.14734-2.13904l7.6709-0.89813l6.00287-0.86285l8.38727-1.06238l6.96442-0.91327c2.66589-0.34955,5.06116-0.60706,7.6839-0.91779
	l9.33624-1.10608l7.93677-0.88159c2.09174-0.2323,5.61456-0.37836,5.09418-2.30847c-0.36121-1.3396-7.41479,0.08923-9.57684,0.33936
	l-7.7168,0.89252l-7.66809,0.98077l-6.94409,0.97296c-2.04419,0.28644-3.8028,0.43494-5.77533,0.72894l-7.66187,1.14203
	l-6.79822,0.91974l-38.59705,6.00336c-0.64587,0.1004-13.49121,2.18988-11.66846,1.99176l-4.99585,0.54303
	c10.43127-1.13385-17.19708,2.49469-6.46173,1.37903l-5.12067,0.5321c3.13654-0.32593-4.98865,1.01251-5.49365,1.3974
	c1.0448-0.79633-16.4455,3.00323-15.3009,2.88422l-5.07159,0.5274c13.37067-1.39056-19.36847,2.84045-5.49756,1.38873
	l-5.0625,0.52985c13.3479-1.39703-19.35895,2.86066-5.49805,1.39142l-5.05341,0.53564c1.974-0.20923-5.97638,1.07837-6.47382,1.3623
	c-1.64081,0.93665-3.42963-0.59564-6.7146,0.93677c-2.14575,1.00104-4.52176-0.60303-7.67502,0.96899
	c-2.07672,1.03534-4.4989-0.57922-6.48053,0.82245c4.67038,1.11121,5.95264,0.28717,8.02231-0.33417
	C255.93588,756.89478,258.46014,757.98541,260.71936,757.11346z M446.89182,717.63483l0.67468-11.77661
	c-0.185,3.22888,1.36688-9.67163,0.96844-8.61566c1.53113-4.05743-0.04352-6.31104,0.94238-9.62347
	c0.20673-0.69452,0.78168-1.07886,0.74817-2.22253l-0.1684-5.75085c-0.03345-1.14069,0.52484-1.52716,0.74469-2.22052
	c0.72571-2.28876,0.15686-4.71399,0.22833-7.43945c0.07959-3.03125,1.4184,3.09296,0.948-7.62799
	c-0.04913-1.12036,0.67639-1.46985,0.74493-2.24316l0.61609-6.95007c-0.68335,7.70929,1.97974-15.41174,1.28986-7.50305
	l0.6087-6.97852c-0.28699,3.28986,1.36926-7.27106,0.94714-6.65344c0.34375-0.50299,1.38806-8.52319,1.30426-7.52246
	l0.65454-7.81549c0.14435-1.72357,0.91968-3.1228,0.41058-5.27087c-3.22473,1.49969-0.82172,5.03711-1.97424,7.42908
	c-0.34918,0.72473-1.48401,8.28204-1.32349,6.47241l-0.61676,6.95123c0.23419-2.63928-1.37244,8.27991-0.97699,7.60522
	c-1.72125,2.93658,0.44043,4.40259-1.2915,7.51501c-1.00366,1.80377,0.57611,3.80084-0.95978,7.60571
	c-0.76843,1.90369-0.1662,4.07489-0.23157,6.45764c-0.06891,2.5127-1.59247-2.37421-0.93945,7.62476
	c0.07318,1.12067-0.70984,1.52173-0.75629,2.21899l-0.59991,9.00519c-0.04584,0.68842-0.78601,1.08148-0.75128,2.22052
	l0.17737,5.82074c0.0174,0.57135-0.80402,0.7804-0.86444,1.13806c-0.41028,2.42755-0.15912,4.7226-0.1037,7.49652
	c0.01141,0.57385-0.80359,0.79041-0.8551,1.14374c-0.74329,5.09979,0.63812,4.20306-0.84387,9.64124
	c-0.81348,2.98517,0.4389,7.85181-1.35382,14.55951C445.59415,731.74994,447.02475,715.31488,446.89182,717.63483z
	 M451.03775,846.44519c0.09656-4.61041,0.1571-9.07104-0.08521-13.99768c-0.09399-1.91125,0.74078-3.68799,0.75281-5.31787
	l0.35876-48.57697c0.008-1.0827,0.58594-1.64532,0.66589-2.2121c0.70459-4.99872,0.07617-9.77289,0.29791-15.10376
	c-3.42725-0.1499-1.20435,9.61688-2.21179,16.05585c-0.09149,0.58472-0.75385,1.12347-0.75482,2.18188l-0.01782,19.19928
	l-0.44006,5.80334l-0.29126,28.89417c-0.07642,7.58185-0.41766,14.79462,0.15295,22.02545
	C451.15915,854.47528,449.01608,845.42133,451.03775,846.44519z M441.32602,848.69135l0.1496-50.84021l0.61542-7.82703
	c0.42377-5.38971-0.09418-17.91223,1.01202-20.47107c0.80884-1.87115,0.09662-4.08728,0.3139-6.64777
	c0.06122-0.7215-3.04272-3.72107-1.81696,6.97729c0.12836,1.12024-0.58252,1.54205-0.75958,2.20532
	c-0.78705,2.94739-0.00061,6.04614-0.22559,9.24182l-0.68073,9.66888l-0.25818,6.86676l0.00171,39.91589
	c0.00006,0.44464,1.78772,1.16681,0.67108,2.17603C441.19553,842.91644,439.47446,845.8244,441.32602,848.69135z"/>
</svg>
