<?xml version="1.0" encoding="utf-8"?>
<!-- Generator: Adobe Illustrator 30.2.1, SVG Export Plug-In . SVG Version: 9.03 Build 0)  -->
<svg version="1.1" id="Layer_1" xmlns="http://www.w3.org/2000/svg" xmlns:xlink="http://www.w3.org/1999/xlink" x="0px" y="0px"
	 viewBox="0 0 1413.12 1318.07996" style="enable-background:new 0 0 1413.12 1318.07996;" xml:space="preserve">
<path style="fill:#A7A8AA;" d="M749.61304,884.15106c-0.10986,2.65155-1.00067,12.76709-1.30249,16.37085l-0.96082,11.47119
	c-0.20514,2.44946-0.0929,4.85474-0.90546,7.14001c-0.63257,1.82922-1.39142,1.85651-1.97845-0.00702l-0.98126-5.05817
	c-0.49689-2.5614-0.68579-5.04425-0.93524-7.61542l-0.95575-9.85199l-0.93671-12.53467
	c-0.96649,3.02258-0.1181,6.21252-0.44739,9.73938l-0.37714,4.03918l0.13586,46.53198l0.591,16.58221l0.3642,15.60223
	l0.57098,14.16449l0.3606,14.6402c0.11194,4.54382,0.27826,8.92865,0.8736,13.47839
	c0.72321,5.52667,0.31097,11.14178,0.77802,16.98419l0.99634,12.46423c0.58759,7.35132,1.10077,11.08765,1.9588,18.05029
	l0.84967,6.89514c0.29175,2.36743,0.42682,4.44604,0.81299,6.73828l0.96875,5.75c0.39471,2.34302,0.62018,4.37915,1.00739,6.74084
	l0.94385,5.7561l1.12836,6.70093c0.7655,4.54626,2.42645,8.92676,2.14471,13.44727c-0.13782,2.21228-0.76392,3.78772-0.08514,6.2677
	l8.28156,30.25635c0.37885,1.38416-0.45288,2.4729-1.55475,1.49451c-6.35669-9.16772-8.60596-14.89514-12.99658-24.24963
	c-0.7937-1.69092-2.53925-2.71838-3.79315-4.27686c-0.3147,3.07153,2.39899,10.75732,1.27637,11.63672
	c-2.48108,1.94348-6.26819-6.46301-6.64734-9.68054c-1.77118,0.51953,0.59467,6.94653,1.45435,9.73242
	c5.02258,16.27686,11.11798,31.51135,18.23297,46.97705c3.45789,7.51648,6.99072,14.27991,10.31506,21.4657l4.2464,9.17883
	c1.24634,2.69409,1.51935,5.10742,2.28046,7.6626c1.08429,3.64014,9.25165,13.0415,9.64337,14.18604
	c0.56616,1.65393,3.09509,1.88684,3.0105,4.38989c-3.8186-2.22339-6.27765-4.90222-8.93176-8.35974l-5.53278-7.20752
	c-7.52875-9.80774-7.43378-14.2417-12.64899-22.58826c-1.13947-1.82361-2.37775-3.26074-3.40332-5.21594
	c-5.15265-9.82349-9.83868-19.33533-13.91302-29.53479l-7.66211-19.18079c-1.0329-2.58569-1.86987-5.08228-2.69452-7.6543
	l-3.48364-10.86536c-0.93274-2.90894-1.05432-3.22253-1.87817-5.53906l-1.01489-2.85364
	c1.58789,4.46484-2.55743-11.00439-1.78497-7.79565l-0.93518-3.88489c-0.04718-0.19592-3.04443-10.79883-2.97955-10.60095
	c1.9314,5.89014-3.7486-17.45447-2.78546-12.15271l-0.70538-3.88293c-0.82257-4.52795-1.53552-6.62659-2.11804-10.23083
	c-0.33929-2.09949-0.1369-4.20825-1.49768-6.3573c0.724-1.46606-0.04797-2.5166-1.02649-1.55981
	c0.97705,1.94226,0.23669,3.12012-0.90588,1.69031c0.8847-0.93994-1.46912-11.51233-1.5636-11.83459
	c-0.70984-2.42261,0.07062-4.97205-0.39288-7.55212l-3.79181-21.10718l-0.97131-6.7641
	c-0.37152-2.58722-0.97369-4.87921-1.01141-7.4212c0.05304,3.5741-0.95074-6.51868-1.26837-7.37518
	c-1.38885-3.7453,1.36145-10.45648-2.22247-11.112c-0.29535,7.63031,1.4104,7.71521,1.02667,17.05774
	c0.71942-1.66913,1.3103,8.38184,1.50867,10.12085l1.26678,11.10547l3.91846,27.01196l2.08984,12.42847l1.92889,9.63354
	l3.26477,14.64111c1.13733,5.10046,3.47565,13.2417,5.2312,18.07703c-0.43353,2.22021,0.91779,2.24561,0.96454,0.07751
	l-1.16132-1.97485c2.92682,4.97729-9.21448-33.99951-2.87384-25.17822c-0.87201,0.00854,1.41467,11.03174,1.00568,9.69043
	l0.81531,2.67383c0.534,1.75146,0.65192,2.93848,0.8938,3.92908l0.94031,3.85022l0.95764,3.84314l0.96545,3.84705l0.94055,3.88257
	c1.86493,7.69885,6.73584,23.12036,10.02283,31.66553l3.95093,10.27124c7.63989,19.86145,16.68353,38.66101,27.61902,57.0481
	c1.18945,1.99988,9.82532,15.16174,7.32385,16.11145c-1.80792-0.8988-2.70605-2.69177-4.07825-4.30164
	c-7.2735-8.5332-13.01447-17.75415-18.68915-27.19812c-1.55939-2.59509-3.49792-4.84412-4.39471-7.99817
	c-0.30035-1.0564-3.07672-5.42151-4.19971-6.54724c0.14966-1.3042-0.20374-2.33044-1.20074-1.10571
	c0.14062,1.23425,0.82349,1.56433,1.1731,2.21069l0.98907,1.82812c-1.60864-2.97339,5.85376,13.51416,5.24249,12.28967
	l12.15436,24.34448c0.43237,0.86609-0.48505,2.09827-1.14966,1.20215c-1.20477-0.84595-1.72858-1.83325-2.47357-2.7876
	l-2.95807-3.78906l-3.63202-4.94104c-17.19702-23.39465-33.02228-63.26978-41.36816-91.26477
	c-4.58502-15.38-12.36255-47.07617-14.33759-62.56079l-0.74054-5.80566c-0.28717-2.25183-1.48114-8.70215-2.2005-10.3219
	c-0.09631-0.21692-2.37506-16.24451-2.67285-18.47131l-1.32611-9.91595c-0.38721-2.8952-0.66315-5.67236-0.94092-8.63721
	l-0.9859-10.52277c-0.40662-4.33972-0.5174-8.60645-0.89685-13.18903l-0.55658-6.72192l-0.48517-14.6449
	c-0.10071-3.03857-0.47968-6.07904-0.47943-9.39508l0.00372-45.04028c0.00024-3.64081,0.38428-6.99194,0.48224-10.35596
	l0.48248-16.5661l0.55847-11.51892c0.37872-7.81049-0.03979-15.26935,0.86017-22.77985
	c0.53748-4.48511,0.58655-8.84607,0.58838-13.3476c-1.71606-1.12115-10.0473,0.61896-6.86749,0.3255l-6.08356,0.56146
	c11.12592-1.02679-16.94696,2.34613-6.46906,1.34222l-6.00238,0.57507c11.01611-1.05548-16.93079,2.38336-6.47961,1.35187
	l-5.92419,0.58472c1.74976-0.17273-11.89014,2.58301-10.6474,1.896c-0.19019,0.1051-12.60175,2.60736-14.72864,2.99982
	l-21.07977,3.88983l-8.56763,1.64832c-2.35809,0.45367-4.49237,1.00146-6.47931,1.31543l-4.15485,0.65662l-4.79315,1.02179
	l-5.80096,1.03668l-3.79871,0.85724l-5.81506,1.06372l-3.78973,0.88446l-6.72491,1.16071l-29.75842,5.80518l-14.65717,2.30859
	l-24.7095,3.45459c-14.5802,2.03839-45.00128,3.0578-59.54327,1.76923l-10.57611-0.93719
	c-16.16708-1.43262-37.30505-6.53027-52.04404-12.44861c-4.513-1.81219-10.89093-5.28156-15.38391-7.74921
	c-9.52771-5.23279-16.51425-10.05249-24.6261-17.61407l-4.34506-4.05035c-10.99722-10.25128-21.46088-28.55847-27.2955-42.20679
	c-6.19562-14.49255-11.11288-39.12555-13.10794-55.51111c-1.09631-9.00421-2.35834-50.52399-1.271-56.38794l0.58035-3.13
	c0.72009-3.88342,0.2941-7.60571,0.72833-11.57928l1.2558-11.49121c0.99918-9.14307,6.80206-41.22064,9.04605-50.47101
	l0.56677-2.33643c2.44125-10.06354,4.68106-19.95667,7.64804-29.9433l7.90579-26.61029
	c1.75964-5.92279,3.85202-11.45709,5.90961-17.12317l6.35605-17.50302l5.86743-14.37064
	c1.51926-3.72101,2.84525-7.29196,4.47403-10.83234l10.01505-21.76904l4.02087-8.4989l0.90814-1.91058l9.16635-18.57504
	l11.17285-21.27399l11.44431-19.37653l8.10565-13.9902l1.09061-1.88998c5.64249-9.77835,11.77054-19.37033,18.11945-28.88776
	l2.01035-3.01367c16.75003-25.10934,44.24332-61.85214,63.81064-84.69855l5.7641-6.73004l5.78299-6.70883
	c2.11273-2.45099,3.98242-4.83345,6.56036-7.10869c0.59799-0.52779,0.6236-1.28705,1.06238-1.76131l7.77457-8.4035
	c8.93277-9.65543,13.39301-15.04665,23.17551-24.8313l25.1524-25.1579c8.2796-8.28142,14.45502-13.9021,23.32257-21.77684
	l9.17438-8.14719l6.7486-5.75931l5.77661-4.79852l4.81152-3.87172c-1.1731,0.94395,7.58966-5.51855,5.81335-4.41747l7.69794-4.77171
	l15.9137-9.23301c6.39081-3.70789,12.89746-6.47058,20.05933-8.7811c9.7774-3.15433,19.24829-6.35968,29.63013-7.99786
	c4.93396-0.77854,12.47644-2.42606,17.28699-2.76636l8.60541-0.60877c7.49493-0.5302,22.57239-0.01281,29.07855,1.05229
	l5.77808,0.9459c3.73651,0.61169,7.29761,1.33531,11.34821,2.59476l1.896,0.58951
	c28.16901,8.75851,47.89252,22.04974,66.73511,45.3562c17.59631,21.76492,30.01605,51.43735,36.03809,78.9012l0.49902,2.27585
	c0.39246,1.78992,0.80212,3.52049,1.11603,5.35793l1.02057,5.97444c0.32465,1.90056,0.68994,3.70157,0.91998,5.51961l1.10962,8.7704
	l0.74927,7.96497c1.02411,10.88574,0.38507,24.09119-0.96509,34.96942l-0.84827,6.83411l-1.08118,6.44733
	c-1.25763,7.49933-3.45093,16.9769-5.45782,24.51559l-8.15906,30.64874l-12.1001,45.98816l-1.11847,4.90527
	c-0.96643,4.23871-1.40479,5.37552-2.41809,9.62476l-13.25879,55.59784l-7.65149,34.61163l-1.18872,5.76959l-0.87115,3.79608
	l-1.03564,4.82379l-1.02875,4.86194l-11.3017,57.4873l-5.72015,32.71143l-1.10065,6.70691l-0.94775,5.75616l-0.97266,5.76105
	c-0.38696,2.29181-2.48749,17.14655-2.66504,17.49957c0.07245-0.1441-2.66797,17.86243-2.93652,19.96393l-0.98285,7.68958
	c-0.28644,2.24115-0.62762,4.41992-0.92804,6.7124l-3.55078,27.09326l-1.0083,8.39569l-0.97717,8.63885l-0.98322,8.63989
	l-0.8576,8.8855l-1.1673,12.2373l-0.81799,8.6463c-0.2348,2.48157-1.40527,14.18335-1.01172,15.13306
	c0.67578,1.63074,7.19281,0.50507,7.22894,0.48871c0.43048-0.19507,30.76593-2.31012,34.34045-2.45325l12.72052-0.50958
	l9.36871-0.50391l11.76294-0.40985l17.03229-0.58655c1.32111-0.04553,2.51794-0.05212,3.86328-0.05328l42.19226-0.0365
	c-5.0365,0.00433,12.33698,0.28998,5.75342,0.01825l16.0896,0.664c4.99664,0.20618,46.81018,2.07703,48.09998,2.86053
	c-1.06451-0.64661,60.61322,5.60052,70.02191,8.58282c0.99829,0.31647,1.88831,0.36694,3.04724,0.5448l7.81567,1.19928
	l7.32642,1.21222c2.09314,0.34637,5.40076,1.06366,7.92847,1.52179l18.46692,3.3468
	c1.11694,0.20245,2.30029,0.49402,3.50903,0.74207l5.48767,1.12628l29.21448,7.45544
	c42.81384,10.92596,83.30115,27.46033,122.02893,48.28369c9.60156,5.16266,17.37891,12.60168,27.07605,16.62109l1.31396,0.54468
	c-1.72522-0.71509,3.83923,2.89056,3.41101,2.44244l0.96765,1.01288l1.41064,0.37054c0.98608,0.74219,1.599,1.95325,0.28516,1.30939
	c-3.15161-1.24561-6.29675-3.56732-7.62244-4.28522l-7.56262-4.09515l-6.6427-3.94427
	c-3.62964-2.15515-14.29016-8.31757-17.61646-9.94427l-13.03992-6.37708c-2.90479-1.42059-5.4502-2.81464-8.21301-4.03577
	l-18.08777-7.99445l-21.09131-8.42639l-2.23108-0.88031l-3.63855-1.31104c-16.49939-5.94489-32.63135-11.08154-49.42139-15.70129
	c-2.76367-0.76038-4.08459-1.30646-6.66492-1.93268l-10.19031-2.47296c-0.81702-0.19824-1.38098-0.52808-1.96118-0.64288
	c-2.78381-0.55109-34.39172-7.6571-34.04297-7.39587c-0.65686-0.49213-1.24939-0.4726-2.24878-0.62958l-19.14722-3.00732
	c-7.61279-1.19568-10.37-1.9342-18.047-3.03467l-13.47064-1.93097l-8.86444-1.06183l-7.67828-0.99133l-9.59741-0.94812
	l-8.40033-0.84644L966.961,794.7099l-11.53577-0.92157l-16.30334-0.96625l-19.18475-0.99475
	c-3.8645-0.20038-7.65204-0.54016-11.85309-0.53967l-70.88715,0.00824c-4.19861,0.00049-7.98798,0.32294-11.84918,0.50293
	l-21.10541,0.98413l-18.22693,0.8894c-4.77222,0.23291-11.65698,0.98877-17.04285,1.32227l-10.85712,0.67236l-1.9541,0.42566
	c-0.61444,0.13379-1.11346,3.47528,0.3147,3.46997c3.95911-0.01489,7.58905,0.23907,11.51813-0.32349
	c6.38055-0.91351,12.68671-0.64874,20.45709-1.21356c11.89709-0.86481,24.44733-0.10754,35.54407-0.92242
	c9.70044-0.71234,19.39441-0.39307,29.44055-0.41425l19.21387-0.04059c8.75952-0.01849,17.15247,0.02814,25.63098,0.43451
	l7.00879,0.33594l22.7486,0.57666c4.2168,0.10693,8.35541,0.1748,12.7854,0.61707l8.60529,0.85901l6.72852-0.00867
	c1.52893-0.00195,2.57904,0.54456,3.85626,0.9101c3.57111,1.02216,7.0014-0.65411,10.63531,0.7984
	c-4.91394,1.17792-9.70312-0.15875-15.16406,0.46259c-1.16199,2.43927,5.47229-0.87103,6.35907,2.6001
	c-4.85779,0.93323-2.45178,0.20361-5.6839,0.16461l-1.90033-0.02295l-2.79944-0.01172
	c-1.30927,0.37708-1.33258,0.8316,0.00079,1.17584c2.15942-0.32404,2.46063,0.0556,3.71606,0.15894l15.38647,1.26624
	c3.02881,0.24927,5.46411,0.5694,8.58142,0.89233l8.6983,0.90112c2.93762,0.30438,5.64941,1.30811,9.18219,0.95575
	c2.4173,0.91718,0.74323,2.09668-1.35059,1.64246c1.01855,0.6319-5.75171-0.90527-4.04065-0.29291l-1.13647-0.40674
	l-16.1416-1.65613l-2.79565-0.25403l-16.65765-1.83649c-1.36084-0.15002-2.79126,0.02222-4.51605-0.09827
	c-5.88696-0.41113-2.01202-1.35004-6.68506-1.30768l-8.68304,0.0788c-3.11243,0.0282-4.76227-0.91266-4.73059-0.90942
	c-5.84784-0.59882-11.32031,0.51886-17.20465-0.40985c-1.94452-0.30688-3.71625-0.83337-5.83081-0.83636l-41.30164-0.05829
	l-1.89954-0.60596l-9.68335,0.08752c-0.97046,0.00873-1.79333,0.34485-2.86011,0.35004l-29.73456,0.14514
	c-4.2193,0.02063-32.06262,1.26245-35.27521,1.57416c-4.52423,0.4389-8.94781,0.68329-13.45453,0.98401l-13.41718,0.89526
	c-0.94543,0.06311-3.98193,0.48761-4.34393,0.67743c-0.46973,0.24634-0.29657,1.16858-0.05182,1.74646
	c0.26917,0.63556,1.0733,1.16968,2.25085,0.7923c5.81226-1.86279,9.98651,0.12292,14.99213-1.16345
	c3.82196-0.98218,10.21106-0.48199,15.69537-0.56671c1.1366-0.01758,1.85144-0.64185,2.79242-0.75812
	c5.22388-0.64551,13.1557,0.7464,18.98602-0.57349c3.96631-0.89783,28.52246-0.02942,36.82605-0.75433l3.01074-0.26288
	c6.19269-0.54065,12.23761-0.30908,18.35767-0.02142l3.54047,0.16638l40.28052,0.80609l22.10748,1.13007
	c4.38489,0.22418,8.48273,0.53461,12.67828,0.86499l12.29565,0.96838c9.80902,0.77258,10.63855,0.8927,20.19757,1.8725
	l9.58136,0.98212c4.91125,0.50348,9.53436,0.83221,14.13666,1.67834l3.85876,0.70941l20.28693,2.97278
	c1.08972,0.15967,1.92517,0.43671,2.95923,0.61072l13.56335,2.28217l3.76685,0.8457c5.83472,1.31,14.02734,2.34674,21.05798,3.76318
	l6.47949,1.30542c10.27417,2.06989,20.05908,4.66498,29.75012,8.7948c0.03149,0.01343,9.99207,2.77539,5.51245,2.40967
	c-0.74438-0.06079-1.58496,0.30988-2.05408-0.23969c-1.33765-1.56696-3.43176-0.09546-4.73804-0.94891
	c-0.17615-0.11511-12.46826-3.14166-13.80127-3.41565l-12.78894-2.62805c-5.63831-1.15863-20.73865-4.82147-25.73022-5.23804
	c-2.54944-0.21277-18.25085-3.45496-23.15002-4.15674l-18.01422-2.58063l-2.17725-0.4411l-56.32501-5.9306l-13.4798-0.82257
	l-7.6037-0.51105l-9.6651-0.38507l-8.79114-0.42114l-17.88086-0.46167c-0.52051-0.01343-1.10333-0.97705-2.16162-0.72583
	c-2.27112,0.53906-21.55103-0.75446-24.09924,0.61292c7.45197,1.52997,14.11938,0.21295,20.99939,0.85327
	c2.33173,0.21704-0.7323,0.2843,6.10565,0.48706l20.00336,0.59326l5.80121,0.28064c1.93677,0.09369,7.89124,0.6582,9.82727,0.75708
	l9.37646,0.47882l13.39423,1.1601l11.78876,1.05859l9.12079,0.88208l17.87561,2.02655
	c31.0155,3.51617,61.25275,9.02594,91.8205,16.50726c15.18591,3.71667-16.34241-0.88733-7.63806-0.52771l-1.86316-0.07703
	c-0.54211-0.0224-0.85779-0.44421-1.30249-0.51929l-4.3197-0.72937c1.71521,0.28961-28.57373-5.9527-24.95642-4.81134
	c-3.07422-0.96997-10.99622-1.8053-11.42725-1.95721c-2.76184-0.97375-22.03857-3.08105-26.3631-3.6803l-8.24725-1.14282
	l-8.64465-0.95947l-8.66193-0.95575c-9.32361-1.02881-13.3316-1.33734-22.57922-2.0072l-11.93134-0.86432
	c-0.67761-0.04907-1.15643-0.64954-2.23419-0.58032c-5.87726,0.37744-11.40662-0.4505-17.29095-0.62732l-37.42572-1.12439
	l-36.47308,0.02594l-24.00507,0.55109l-20.39771,0.82318l-18.2558,0.99017l-15.37286,0.9588
	c-2.58301,0.16107-19.16626,1.22754-19.87097,1.78998c-1.88373,1.50354,0.12781,4.78375-0.24963,4.50769
	c1.38684,1.0144,4.68481-0.48401,11.73834-0.14862c1.09918,0.05225,1.60553-0.72034,2.19348-0.80762
	c3.9671-0.58868,7.93958-0.23816,12.22028-0.17969c1.05798,0.01447,1.60327-0.69696,2.1767-0.77887
	c4.98389-0.71185,14.66925,0.56885,15.32819-1.19501l18.04901-0.00488c0.57159-0.00018,0.88123-0.46375,1.1626-0.99835
	l25.66907,0.13171c1.59296,0.00812,2.62762-0.97168,3.76953-0.97546l50.34564-0.16797
	c1.22791,0.73077-0.04468,1.30292-1.28918,0.96954l-47.75177,0.19446l-2.18353,0.88879l-25.67535,0.07739
	c9.08685-0.0274-2.63098,0.81818-4.09497,0.8158l-1.89368-0.00305c-3.67804-0.00598-6.94336,0.19055-10.58685-0.13068
	c-1.08295-0.09546-1.61566,0.75275-2.17584,0.8222c-5.22095,0.64752-14.995-0.54724-16.29193,1.12585l-12.01428,0.18512
	c0.43628,1.51398-8.83527,0.61658-12.87714,1.04327c2.13727-0.22565-6.45764,1.47363-6.41125,1.43365
	c-0.40466,0.34924-0.90961,1.09601-0.47302,1.92853c0.11163,0.21289-1.28119,12.41089-1.32666,13.74719l-0.39203,11.51093
	c-0.05646,1.65796-1.22046,13.35547-1.34467,16.35278L749.61304,884.15106z M1159.05969,1112.21313l6.82507-5.71228l8.66382-7.6958
	c5.60181-4.97595,11.06689-9.86926,16.06104-15.66956c2.00024-2.32312,3.68518-2.6394,2.34766-4.17566l-6.88562,6.19104
	c-2.85425,2.56628-5.88879,4.89673-8.81323,7.68372c-9.74548,9.2876-19.52625,17.79419-30.32031,25.96655
	c-2.09802,1.58838-8.70105,5.82373-6.05737,8.22546c0.98303,0.89307,4.01514-2.66138,7.35681-5.52844L1159.05969,1112.21313z
	 M924.76208,1276.20862l2.63678-1.396c2.24506,0.30286,2.31122-0.89514,0.00781-1.12866
	c-1.19464,1.27539-14.45605,4.98254-15.34204,5.14404c-5.18372,0.94495-9.65295,3.05823-14.70068,4.22485l-5.49329,1.26953
	c-2.01489,0.4657-3.3844,1.41211-4.69257,2.97253c-1.47107-0.07812-1.42712,1.17322-0.19061,1.36523
	c7.86945-2.3197,19.10504-5.04871,25.95605-8.23694C916.95453,1278.55676,921.13171,1278.13074,924.76208,1276.20862z
	 M455.58405,1215.68469l-3.39923-1.17944c-0.87802-0.30469-1.77811,0.27332-2.41492-1.12585
	c-1.69736-0.09656-1.7598,1.07715,0.04648,1.16089c1.58682,1.08667,2.95816,1.77014,4.69003,2.43445l2.72845,1.04663
	c4.26477,1.63586,27.84183,13.65991,30.23111,9.10413C476.04395,1222.30127,466.64685,1219.52344,455.58405,1215.68469z
	 M772.50574,1273.23743l-11.16559-0.53894c4.66589,0.22522-8.64752-2.46301-10.71295,0.60645
	c-2.81757,4.18713,22.77185,0.85046,24.99054,1.28418L772.50574,1273.23743z M607.28278,1262.74609
	c0.58655,0.17834-16.34515-1.85608-17.93982-1.08667c7.73383,4.75635,9.28918,1.05554,13.88361,2.31287
	c2.76001,0.75525,5.60266,0.41199,8.24957,0.04895L607.28278,1262.74609z M1012.25684,1240.55017l-14.1344,7.21069
	c6.3642-3.2467-7.69366,3.02271-4.59521,1.53333c0.64209,1.17932,1.40924,0.71265,2.39484-0.16663
	c3.02454-0.94043,19.19183-6.4519,19.56763-9.90393C1014.59381,1240.61243,1013.21484,1240.0614,1012.25684,1240.55017z
	 M299.49084,1131.8313l-3.86185-2.84021l-4.65808-3.91626c-1.18918-0.13074-1.61194-1.31665-2.79886-0.95239
	c-0.78983-1.27539-1.40598-2.32812-3.11685-1.73523c0.40723,0.81274,0.91095,1.70276,2.08484,1.703
	c1.58179,0.57776,1.99667,2.55701,3.79233,2.91565l4.60196,3.98584l2.13266,0.78821l2.75043,2.04541
	c1.02045-0.24939,0.97949,1.14001,2.07407,0.69727C301.61316,1133.44824,300.95419,1132.30408,299.49084,1131.8313z
	 M1363.77832,827.94348c0.52576-1.5401,0.60864-2.74078-0.28113-4.25781c0.13147-1.47424-0.68408-2.59564-1.28418-1.23792
	c-3.41882,6.48676,2.21631,1.58746-1.07068,9.13947c0.48901,1.03522,1.12451,0.78381,1.48181-0.26294L1363.77832,827.94348z
	 M549.19879,1250.91089c-1.05414-0.10266-1.72406,1.01782-2.05786,1.79529c1.72858,0.35535,3.12433-0.59753,4.1687,0.94006
	c1.44037,0.1853,2.81042,0.21387,4.37317,0.00464C569.5567,1253.81763,536.10107,1249.6355,549.19879,1250.91089z
	 M269.69968,1106.98792c0.47232,2.58618,2.56879,4.19141,4.88745,4.20105
	C273.64761,1108.57349,272.05945,1107.11475,269.69968,1106.98792z M974.30475,802.11713
	c2.93158,0.73468,5.46863,0.80792,7.87054-0.07428C979.24371,801.30823,976.70667,801.23492,974.30475,802.11713z
	 M985.84357,803.09351c1.91046,0.72607,3.59332,0.78973,4.95288-0.10706
	C988.88599,802.26044,987.20312,802.19678,985.84357,803.09351z M612.39124,1265.03955
	c1.73279,0.37878,2.91022,0.57532,3.92096-0.18408C614.02338,1264.0144,612.92926,1263.90369,612.39124,1265.03955z
	 M995.43121,804.23956c1.73285,0.37872,2.91022,0.57538,3.92096-0.18414
	C997.06342,803.21436,995.96924,803.1037,995.43121,804.23956z M1003.11121,805.19952
	c1.73285,0.37878,2.91022,0.57538,3.92096-0.18408C1004.74341,804.17438,1003.64923,804.06366,1003.11121,805.19952z
	 M714.5448,1077.99976c-0.50763,1.68188-0.63312,3.01245,0.14929,3.92249
	C715.71008,1079.66394,715.49713,1078.63306,714.5448,1077.99976z M715.11975,1085.94409
	c0.14032,2.3125,0.98938,1.90283,1.48834-0.67993C715.99658,1083.23962,714.91003,1083.84631,715.11975,1085.94409z
	 M1087.44983,837.24884c1.11438-0.10681,1.54773-0.63116,0.53198-1.16632
	C1085.50195,835.93799,1085.20813,837.09998,1087.44983,837.24884z M714.34161,1074.81006
	c-0.24805-0.34595-0.82642-1.05322-1.06342,0.22046c-0.19025,1.02258,0.01752,2.23511,0.55103,1.98022
	C714.92993,1076.48462,714.76947,1075.40674,714.34161,1074.81006z M1091.52002,836.81616
	c-0.43286,0-0.78381,0.35095-0.78381,0.78381c0,0.43292,0.35095,0.78387,0.78381,0.78387s0.78381-0.35095,0.78381-0.78387
	C1092.30383,837.16711,1091.95288,836.81616,1091.52002,836.81616z M1002.23999,810.89618
	c-0.43286,0-0.78381,0.35089-0.78381,0.78381s0.35095,0.78387,0.78381,0.78387c0.43292,0,0.78387-0.35095,0.78387-0.78387
	S1002.67291,810.89618,1002.23999,810.89618z M661.44,1273.61621c-0.43292,0-0.78381,0.35083-0.78381,0.78381
	c0,0.43286,0.35089,0.78381,0.78381,0.78381s0.78381-0.35095,0.78381-0.78381
	C662.22382,1273.96704,661.87292,1273.61621,661.44,1273.61621z M1095.35999,837.77618c-0.43286,0-0.78381,0.35089-0.78381,0.78381
	s0.35095,0.78381,0.78381,0.78381s0.78381-0.35089,0.78381-0.78381S1095.79285,837.77618,1095.35999,837.77618z
	 M1112.64001,837.77618c-0.43286,0-0.78381,0.35089-0.78381,0.78381s0.35095,0.78381,0.78381,0.78381
	s0.78381-0.35089,0.78381-0.78381S1113.07288,837.77618,1112.64001,837.77618z M1099.19995,838.73615
	c-0.43286,0-0.78381,0.35095-0.78381,0.78387c0,0.43286,0.35095,0.78381,0.78381,0.78381c0.43298,0,0.78394-0.35095,0.78394-0.78381
	C1099.98389,839.0871,1099.63293,838.73615,1099.19995,838.73615z M1103.04004,839.69617
	c-0.43298,0-0.78394,0.35095-0.78394,0.78381c0,0.43292,0.35095,0.78387,0.78394,0.78387c0.43286,0,0.78381-0.35095,0.78381-0.78387
	C1103.82385,840.04712,1103.4729,839.69617,1103.04004,839.69617z M353.99622,1165.46924
	c-1.11685-0.41589-2.34055,0.51147-0.94498,0.81995l4.49176,2.81934c1.18478,0.61316,1.9884-0.30176,0.65067-1.16882
	C356.00766,1167.56982,354.80963,1166.98572,353.99622,1165.46924z M716.13708,1317.08716
	c4.37653,0.24377,7.53455-0.82263,12.52924-1.54785l6.71466-0.97485l5.73444-0.97339
	c-2.72333,0.46228,13.23639-0.96179,11.52179-0.87329l10.58527-0.54675c3.19397-0.16492,21.41113-2.59668,26.86292-3.20837
	l7.87299-0.88342l12.2796-2.0647l10.55206-1.92664l6.71008-1.14539l8.66577-1.74963l23.04218-5.66382
	c1.19269-0.29309,17.68707-5.32324,17.34088-5.13489l9.99695-5.43726c2.63599-1.43372,4.02222-3.41223,7.01276-4.57703
	l27.34808-10.65222l41.21582-13.62854l31.64886-11.47742l24.85913-9.83594l11.60236-4.95691
	c1.55505-0.66443,3.00659-0.81287,4.55896-1.51624c-0.80408,3.50854,0.33899-1.46875-4.28699,3.87158
	c1.67529,2.35754,7.31824-1.35474,9.61621-3.00293c4.02734-2.88855,8.41663-4.69446,12.37708-7.52893l3.45801-2.47485
	c2.6283-1.8811,5.88147-2.95105,8.90137-4.21338c10.10461-4.22363,19.39929-9.08618,28.87122-14.48486
	c17.10168-9.74719,67.51685-44.73987,80.52246-57.56897l13.80676-13.61926c1.85425-1.8291,3.25513-3.78516,4.91406-5.66797
	l8.4425-9.58142c2.02673-2.30005,4.27039-4.09924,5.98047-6.75183c1.0376-1.6095,2.40015-3.23914,3.70154-4.91565
	c3.82959-4.93298,3.92871-6.54126,7.29456-11.05322c-0.44995-1.125-0.90784-0.66589-1.52295-0.03784
	c-2.73035,1.34473-4.61401,3.52808-6.73083,5.35449l-7.70801,6.65027l-6.27649,5.29089l-5.69727,4.85364
	c-2.37695,2.0249-4.38745,3.98071-6.74976,5.9292l-5.78052,4.76831c-1.76367,1.45483-3.70227,2.76636-5.25171,4.05688
	l-3.82068,3.18213l-6.32751,5.00085l-4.22754,3.40503l-4.3512,3.44641c-2.23706,1.77185-4.328,3.31494-6.67712,4.97864
	l-4.38586,3.10608l-15.1676,10.82397l-11.61389,7.49524c-0.65857,0.42505-1.60107,0.84949-2.61035,1.31201l-19.06775,8.73694
	c-2.56628,1.17578-11.53723,5.72229-12.17065,4.31055c-0.22827-0.50879,0.04126-0.96545,0.49121-1.48315
	c4.74207-5.45679,11.02856-9.17566,17.36646-15.22852c1.5813-1.51025,6.44165-4.04504,8.62952-7.10303
	c-0.16431-0.70508-0.67444-0.56653-1.08154,0.32141c-3.09851,0.86584-5.49963,2.92188-8.51709,4.63928l-21.38086,12.16895
	l-36.47803,19.99622c-29.91223,16.39709-60.65356,30.79578-92.97644,42.34692l-26.422,9.44238
	c-10.91333,3.90002-21.63055,7.3064-32.96509,10.26514l-23.93066,6.24695l-8.02539,1.99072
	c-1.69281,0.4198-3.50464,0.83533-5.46503,1.23438l-23.97675,4.88074l-14.4458,2.54919l-7.62634,1.26294
	c-10.43359,1.72791-24.98608,3.59192-35.55902,4.60046l-8.79492,0.83899c-11.0014,1.04944-10.56274,1.09863-21.15363,2.9248
	l-5.82233,1.00391c-15.16235,2.61438-24.45844,3.5415-40.01013,1.88635l-19.51666-2.07703
	c-7.46436-0.79431-15.00671,0.39417-22.74005-0.83203c-5.50378-0.87268-10.8656,0.104-16.034-1.01526
	c-1.3642-0.29541-15.78699-1.28357-17.24561-1.84741c-0.3335-0.12891-6.93994-1.21484-8.98517-1.65198l-4.77661-1.021
	c-1.09149-0.23328-9.02472-1.96985-8.61591-1.89539l-10.64404-1.94055c0.13092,0.02393-6.46582-1.66809-7.72589-1.92529
	c-23.47375-4.79272-46.05121-10.67493-68.93921-17.12244c-1.12015-0.31555-1.88727-0.50488-2.89536-0.82959l-7.58078-2.44104
	c-0.58871-0.18958-1.12271-0.23169-1.97894-0.49268l-2.98367-0.90955c-3.60223-1.09802-5.0697-1.62915-8.69916-2.88733
	l-15.99426-5.54443c-0.96164-0.33337-1.93256-0.54773-2.79486-0.88l-21.28305-8.20056l-3.10315-1.00952
	c-0.93939-0.30554-1.75949-0.7738-2.62411-1.14832l-21.36322-9.25159l-31.73526-15.25745l-2.54718-1.30176
	c-3.88684-1.98657-20.58051-11.0011-23.34586-13.04211l-3.3291-2.45728c-1.73117-1.27771-3.32983-2.49353-4.88824-3.92114
	l-5.8782-5.38489c-2.74313-2.51282-10.19562-8.21179-13.46524-10.83655l-12.77902-10.25891l-14.85324-11.95264l-8.12802-7.25769
	l-22.17929-21.72803c-4.4476-4.35706-8.83423-8.35986-13.26108-12.88098l-10.83571-11.06677
	c-1.63922-1.67407-3.61488-3.41541-5.05464-5.33276c-6.46677-8.6123-12.92654-16.80994-20.53961-24.54065
	c-1.26807-1.2876-2.25943-2.95923-3.32396-4.30322l-3.81422-4.81555c-1.44156-1.81995-3.11916-3.24573-4.52473-5.30334
	l-3.86237-5.6543c-1.77718-2.60168-3.75323-5.08179-5.8782-7.69373l-0.8419-1.03491
	c-1.61388-1.98364-2.8688-3.90747-4.93275-5.87585c-0.85918-0.81934-1.05728-2.0177-2.31834-3.24158l-1.38104-1.34033
	c-1.38525-1.34448-2.11464-3.00867-3.48019-4.33838c-5.26944-5.13116-5.51512-6.28357-9.87761-12.08374l-3.21173-4.27014
	l-2.32965-3.50696l-1.44269-2.57434c-3.5302-6.29932-7.58826-11.9248-11.11794-18.49066l-7.07602-13.16266l-7.09171-12.93237
	c-1.06126-1.9353-1.79007-3.58502-2.61668-5.05817l-6.91124-12.31677l-5.45863-14.78229
	c-1.14229-3.09344-3.08768-5.83209-4.87187-8.73932c-1.9176-3.12457-3.08477-6.30255-4.52113-9.76044l-1.14004-2.74457
	l-1.3111-4.07123c-0.53986-1.67639-0.69494-3.1499-1.35958-4.72369l-4.85127-11.48694
	c-0.7579-1.79456-2.17606-4.97839-2.77253-6.82678l-4.96542-15.38696l-1.04988-2.62897
	c-0.45965-1.151-6.51432-24.03308-7.59011-27.95117l-3.24496-11.8183l-4.92229-19.99023l-1.13362-5.74707l-2.26937-8.38708
	l-2.49676-12.7337c-0.35824-1.82703-0.00421-3.44305-0.7576-5.10699c-0.08913-0.19684-3.6356-20.71283-4.15936-23.6521
	l-0.85507-4.79877l-0.94695-4.80341c-0.0731-0.37085-1.76031-13.27026-1.87775-14.42719l-2.82626-27.84143l-0.64524-23.70801
	c-0.18456-6.78131-0.54552-13.40424-0.62816-20.43341c-0.06361-5.41119,0.47361-10.45038,0.66455-15.63531l0.55531-15.07935
	c0.12771-3.46796-0.06767-6.6535,0.44193-9.86536c0.48019-3.02655,0.16047-6.04614,0.43556-9.35309l0.64141-7.71069
	c0.50224-6.0376,0.78786-17.74963,2.62791-23.35333c-0.59137,1.80096,3.71608-29.46906,4.86036-34.49426l1.03246-4.53418
	c0.43417-1.90668,0.53238-3.45514,0.92518-5.22729l1.00942-4.55402c0.7677-3.4635,1.3648-6.80066,2.78835-10.10214
	c0.25098-0.58209-0.00685-1.29691,0.21782-2.12314l6.21082-22.84045c1.12555-4.13922,2.40862-7.93185,3.8671-12.7225
	l8.03455-26.39087c1.79204-5.88623,2.95728-9.8009,4.96058-15.94049l2.17088-6.65314l0.78676-1.96017
	c1.08719-2.70865,7.48711-17.16364,8.53088-19.21304l0.79574-1.56238c-0.36412,0.71494,6.30357-13.37949,5.77608-12.10141
	l0.58766-1.42389c0.3555-0.86142,0.75674-1.62427,1.22522-2.47748l3.06027-5.57355c1.46803-2.67368,2.56364-5.32971,3.60107-8.22171
	c2.99016-8.33551,11.39699-22.27063,16.884-29.92734c0.62611-0.87369,0.82376-1.93372,1.27687-2.65085l4.45093-7.04434
	l2.91364-3.80902l10.2029-16.64661l1.33806-2.22034c1.23657-2.05197,11.18584-17.51788,11.80685-18.30627l5.00171-6.34967
	c0.09506-0.12067,4.51187-6.06915,3.99678-5.63171l0.99184-0.84232c0.34624-0.29401,0.53816-0.64478,0.8597-1.04434l0.86787-1.07849
	l0.90399-1.40784l0.46246-1.1774c0.64664-1.64636,7.63565-7.01172,10.74762-12.17862
	c-2.81422,4.67255,8.19577-11.17697,6.54866-8.9673l2.87167-3.85248c2.00832-2.69423,4.74702-4.69453,6.89513-7.30968
	l3.8985-4.74608l14.80489-14.94429c0.67281-0.67914,1.40155-1.00551,2.10475-1.58322
	c4.38376-3.60156,7.75108-7.66748,11.6978-11.51413l5.35226-5.21652c5.32336-5.18835,10.40582-10.13893,16.51276-14.8887
	l25.94897-20.18234l4.18848-2.87112c0.72879-0.49959,1.11475-1.0842,1.83508-1.5544l10.62881-6.93813l17.73599-12.06203
	l9.98135-7.02042c0.46558-0.32747,0.77359-0.67627,1.13751-0.91061l8.18622-5.27147
	c2.73657-1.76221,6.27606-3.85801,8.85507-5.29595l15.42828-8.6022c1.86325-1.03886,2.41461-1.31841,4.42734-2.33735
	l16.84872-8.52971l20.74927-9.72967c6.36502-2.98465,11.62802-3.12016,12.10669-3.34013l26.94128-12.38112
	c3.66089-1.6824,7.00119-3.41797,10.71426-4.68457c5.38599-1.83727,16.41232-5.88311,21.47513-7.11966
	c16.54358-4.04062,32.383-9.23904,48.67639-14.70071c3.84375-1.28845,7.7124-1.2099,11.5871-0.87575
	c4.36414,0.37635,8.28107-1.06611,12.479-1.90145l4.78302-0.95177c3.64551-0.72541,6.08234-1.28092,9.64136-1.78773l4.51379-0.64278
	c7.54004-1.07373,11.54218-2.03224,20.45105-3.15571l6.99231-0.88177c21.65375-2.7307,24.31799-2.19932,45.74878-2.68748
	l16.33508-0.37209l13.36987-0.44079c3.77325-0.1244,7.27539-0.26611,10.89636-0.13613l17.0094,0.61058l6.01392,0.34776
	l8.47784,0.41606l2.77441,0.67185c-3.99689-0.96787,22.66992,1.94667,18.57117,1.78683
	c5.91132,0.23053,29.78906,4.05781,37.1908,5.50239c23.19879,4.5277,45.64038,9.81435,67.80377,17.25958l2.16223,0.72634
	c15.03125,5.04935,29.34009,10.35101,43.64282,16.79604c3.38892,1.52711,7.3233,1.49041,11.11981,2.60118l13.2262,3.86968
	c9.58368,2.80398,18.68054,6.16568,28.04578,10.19964l15.43518,6.64851l28.15051,14.07119
	c1.38593,0.69276,4.34399,2.36135,6.28595,3.46747l10.92413,6.22224c0.49194,0.2802,0.94745,0.37374,1.41528,0.63792
	l2.31927,1.30969l22.125,14.35088l7.65674,4.83131c1.0354,0.65329,1.92529,1.25053,2.83838,1.98962
	c4.59985,3.72304,9.14526,5.5612,14.38647,9.70897c0.30627,0.24242,0.58838,0.51715,1.00769,0.78877l12.33447,7.99019
	l24.19836,15.94595c2.06946,1.36371,2.84387,2.06244,5.6665,4.0332l6.73584,4.70303
	c4.9248,3.43855,12.4718,8.84363,17.13147,12.79823l6.27222,5.32324c1.56604,1.32901,10.2616,9.07312,11.64099,10.4523
	l19.52734,19.52409c-0.45654-0.45639,10.83032,11.99527,10.0293,10.94878l2.57263,3.36067
	c0.60352,0.78839,7.11304,8.4841,8.7124,10.41956l3.43591,4.15793l5.07935,6.6442l1.63049,2.00006l4.46985,6.00266l3.69006,4.98029
	l8.5293,11.85315l1.98584,2.80762l2.69531,3.91907l0.90613,1.03503l15.37903,23.07391l2.6554,4.19077l1.87036,2.89136
	c0.66431,1.02698,1.20764,1.93246,1.84412,2.95163l9.20752,14.74344c0.66052,1.05774,1.16504,2.01324,1.75879,3.02219
	l4.16931,7.08569l13.42004,23.98618l1.82678,2.96573l0.66541,1.5502l6.89294,13.24582l1.58008,3.02664l1.31482,2.61206
	l9.40479,19.49847l5.66504,12.487l5.45996,13.54816l1.56921,3.32297l4.71094,10.87198
	c10.76282,24.83881,18.85718,50.49396,25.46851,76.92236l0.98389,3.93304c3.97253,15.87994,7.72961,31.26105,10.21692,47.16803
	l0.56873,3.6366l2.3092,16.05756c0.26819,1.86481,0.4729,3.92206,0.88281,5.70227c2.43884,10.59497-3.77917,7.88654-1.8988,17.21429
	c2.71375-0.15979,0.95093-6.12073,2.53674-4.30432c0.8208,4.6756,0.55457-0.91571,0.91479,4.69611l0.11816,1.841l0.08508,2.03601
	c0.09644,2.30603,1.01575,5.12714,1.18872,5.96606l0.34619,1.67889c0.13269,0.64362,0.7196,5.73987,0.75806,6.71838l0.0752,1.92023
	c0.11987,3.05914,2.20288,14.95947,2.14954,13.427l0.06738,1.93433l0.1427,1.94611c-0.10303-1.40424,0.87878,5.18304,0.43579,2.8396
	l0.58203,3.07867c0.12939,0.68463,0.94788,0.95679,1.52124,0.62848c0.84766-3.466,1.72522-6.73541,2.32983-10.39862l1.42676-8.64337
	l2.63354-18.24103l0.24939-2.88379l0.88281-9.56812l0.97229-10.56989c0.12708-1.38245,0.52686-2.48511,0.52014-3.90625
	l-0.23633-49.57739l-0.89978-12.75531c-1.078-15.28064-5.84558-43.2345-9.63098-58.52026l-1.03186-4.16653
	c-4.06409-16.41083-9.71289-32.08221-13.99377-48.67029l-0.78748-3.05148c-6.45691-25.02005-13.45154-50.08142-26.77954-72.30365
	l-21.55261-35.93549c0.45496,0.75876-7.82434-11.43869-8.55371-12.51874l-12.31665-18.2399l-0.92529-1.35458l-0.75952-0.83255
	l-13.02063-17.95639c-2.74194-3.78131-8.55383-11.25589-11.70752-15.17447l-9.40991-11.69254
	c-0.54834-0.6813-12.67297-15.37303-11.84814-13.90721l-0.75403-1.33984c1.11926,1.989-8.60791-10.63033-6.68909-8.70163
	l-27.32288-27.46312c-4.88721-4.91232-8.97888-10.20552-14.63452-14.25073l-2.14539-1.5345
	c3.15479,2.25647-13.29761-12.31265-12.47278-11.57677l-12.67688-11.31038c-0.75488-0.67357-1.70532-0.7702-2.37317-1.66991
	c-1.7937-2.41666-12.00452-9.59584-14.66577-11.8685l-6.78955-5.79788c3.16016,2.69859-9.96436-7.89677-6.31677-5.19034
	l-6.62109-4.91269c-1.21313-0.90019-2.48108-1.40543-3.38025-2.38206c-2.41663-2.62491-8.12097-5.31911-10.76819-7.83226
	c0.55737,0.5291-9.92822-7.2505-10.35156-7.52086l-2.36047-1.50768c2.17432,1.38875-6.37476-5.02113-5.83508-4.66172
	l-9.27808-6.17947c-4.16333-2.77296-5.62744-3.32455-9.48474-5.92486l-10.34814-6.97581l-8.77197-5.53661l-15.31323-8.66077
	c-6.81104-3.85217-10.08423-5.88036-17.31122-9.47836l-24.74475-12.31928c-1.35992-0.67704-9.28845-3.99027-9.7486-4.24834
	l-1.27423-0.71459l-10.21301-4.29891c-0.93445-0.39332-1.77686-0.81189-2.60547-1.14604l-14.40314-5.8085l-18.77521-7.02551
	c-1.85852-0.69543-22.59015-7.74326-22.65814-7.75189l-2.03577-0.25843c-1.35669-0.17223-2.40289-0.87968-3.56219-1.23985
	l-10.21759-3.17445c3.89117,1.20894-7.33447-2.09465-4.37933-1.2899l-10.60455-2.88789l-26.85815-6.69898
	c-2.72876-0.6806-15.18335-3.34907-18.16205-3.87859l-21.2641-3.78008c-0.66339-0.11793-1.19971,0.05821-1.95276-0.2163
	l-1.23718-0.45101c-0.91162-0.33232-5.97284-0.1728-6.45605-0.82738c-0.24213-0.32793-4.5509-0.59367-6.44305-1.0179
	c-6.63116-1.48673-51.82825-5.70528-60.04065-5.78418l-32.09882-0.30838c-0.3045-0.33397-0.59839-0.94722-1.18445-0.93984
	l-23.77478,0.29945c-0.51154,0.00644-1.11603,0.87172-2.1731,0.85875L663.3418,1.82792L651.86731,2.5754
	c-16.16742,1.05317-35.52637,2.96923-51.20508,5.53352l-8.36017,1.36732c-7.29034,1.19236-13.01862,2.00554-19.84644,3.35182
	l-10.20038,2.01128c-22.24768,4.38672-43.44696,11.62526-65.49353,17.12223l-2.3031,0.57424
	c-2.52252,0.62895-4.47635,1.3591-6.62747,2.11798l-16.49936,5.82065l-10.6358,3.81544l-28.42258,11.59984l-27.03128,12.42272
	c0.67691-0.31109-7.29303,3.48002-5.9158,2.95037l-1.56366,0.60134c-0.28592,0.10995-0.21506,0.07844-1.31058,0.77435
	l-1.20959,0.62386l-11.62662,6.13164l-1.55954,1.08486l-13.27814,7.00207l-1.14694,0.62537
	c-4.03452,2.19982-7.82245,3.72435-11.39224,6.02316c-4.43173,2.85389-5.92984,3.37664-10.63785,6.51288l-9.94913,6.62759
	c-7.30106,4.86358-17.42197,11.24089-23.97522,16.31795l-2.56937,1.99059c-3.12177,2.41856-11.4444,7.87725-15.72888,11.08953
	l-3.82938,2.87106c-6.67453,5.0042-9.7225,7.83144-15.95081,12.91968l-8.93118,7.29637l-8.78795,7.63512
	c-12.39066,10.7652-25.72514,23.4512-36.68462,35.56548c-1.68596,1.8636,0.97124-0.82686-2.66458,2.9814l-0.93562,0.98
	l-7.54338,8.06715l-0.57004,1.12309l-0.9787,0.96173l-0.95558,0.95529c-1.73189,1.73134-4.50366,4.62495-5.27191,5.98488
	c-0.25,0.44254-0.46967,0.82335-0.89787,1.1996l-1.18636,1.04237c-2.09865,1.84396-13.26015,15.30667-13.74457,15.75835
	c-6.27718,5.85298-4.34183,5.09665-8.67384,9.59842l-8.51306,8.84665l-1.68039,2.38092
	c-2.3882,3.38385-4.4552,6.71683-6.56152,10.32123l-3.65048,6.24677c-0.65785,1.12573-3.73447,5.72403-4.48413,6.83176
	l-3.92833,5.80466c-0.37622,0.55594-0.35899,1.28714-0.94531,1.8779l-0.94739,0.95456l-14.84254,24.69733l-9.38653,16.44278
	c-0.27703,0.48529-0.47353,0.905-0.64939,1.25287l-1.27898,2.52997c-0.60642,1.19958-1.16876,2.0788-1.70649,3.04025
	l-2.12364,3.79715c-0.49828,0.89093-0.90901,1.7131-1.35725,2.55966l-5.53035,10.44473
	c-0.29236,0.55219-1.76501,3.16879-1.79977,3.24042l-9.80022,20.18713c-0.36734,1.31039-1.80981,3.76749-1.77345,3.68066
	l-8.51311,20.32993c-0.25731,0.61447-0.36474,1.1557-0.55216,1.64554l-7.87685,20.58609l-2.64732,6.32147
	c-0.3368,0.80423-0.73126,1.57825-1.01956,2.42859l-0.99359,2.93054c-0.31035,0.91537-0.56174,1.87537-0.98241,2.80109
	c-2.76854,6.09262-6.75143,18.33981-9.01998,25.56702l-2.74814,8.7551l-0.94555,2.85968l-0.99205,2.95731l-3.06375,11.45605
	c-0.27355,1.02286-0.85236,1.73627-0.79823,2.91171c-0.12652-2.74762-5.90327,24.42062-6.02002,24.92227l-0.67782,2.91248
	l-4.94639,26.81641l-1.31498,7.66028l-1.87221,12.51678l-1.86939,16.29504c-0.37646,3.28149-0.74065,6.3717-1.06984,9.5816
	l-0.89054,8.68341c-1.00318,9.78162-1.31604,12.15118-1.65588,22.07837l-0.50281,14.68805
	c-0.56478,16.49829-0.69426,32.84857-0.03684,49.34027l0.50903,12.76917c0.13194,3.30981,0.85518,6.31958,1.0034,9.59821
	l0.34713,7.6781l1.05204,7.35406l1.34111,6.1087c-1.04201-4.74628,2.40727,21.9494,2.19009,16.30029l0.06923,1.80084
	c0.12992,3.37915,2.38321,11.13611,2.76813,13.55737l2.24907,14.14764l2.22047,11.80341l1.31849,6.83893l4.43083,19.07782
	c1.47903,6.36829,4.04084,17.25201,6.06065,23.16058l2.3387,6.84149l5.06838,17.9856
	c0.37687,1.3374,0.47077,2.55853,1.19478,4.00989c1.55338,3.66711,1.84928,6.72852,3.48642,9.81659
	c1.5512,2.92596,3.21336,11.53125,6.54207,18.43628c0.36057,0.74792,0.45054,1.52582,0.8031,2.37604l2.35648,5.68298
	c2.81643,6.79218,5.11589,13.24689,8.39966,19.5423c1.83119,3.51062,2.64754,7.3855,4.47162,11.16345l1.48631,3.07837
	c0.45842,0.94946,2.61092,6.35468,3.01134,6.75702c1.25529,1.26135,3.6859,9.66949,4.77879,11.54669
	c1.26248,2.16858,2.72454,5.4165,4.1234,8.284l3.41216,6.99457l6.41311,12.086l5.29389,10.13617
	c-0.3271-0.62628,2.56599,3.79181,1.40587,2.32727c3.27734,4.13727,6.72185,12.67151,7.6037,13.60638
	c0.80145,0.84961,7.22812,11.58539,8.76369,13.33197c3.73631,4.24976,6.63408,8.70862,9.58551,13.55029
	c0.63416,1.04028,2.07806,1.53601,2.44722,3.05945c-0.04475-0.18469,9.32738,13.53381,10.50877,14.70544l0.81024,0.80359
	l3.71854,5.32043c0.37764,0.54028,0.51534,0.96912,0.76863,1.11621c0.78484,0.45605,13.03795,16.93469,15.52454,19.6759
	l7.34529,8.09778c3.1243,3.44446,5.83441,6.79187,9.57275,9.7688c0.71974,0.57312,1.46806,1.11597,2.09421,1.74121
	l25.91319,25.87256c4.25052,4.2439,7.51137,8.99463,11.92516,13.05042c3.32562,3.05579,6.18121,6.50916,9.81615,9.37341
	c5.78365,4.55725,7.24828,7.03088,11.90123,11.27722l0.92261,0.84192c2.87805,2.62646,2.99939,2.4364,5.20541,4.36365
	l8.26743,7.2229c2.77921,2.4281,1.69125,1.64038,5.24854,4.19775l11.23663,8.07825
	c11.51022,8.27502,6.65839,5.85535,20.073,12.66797c3.67941,1.86853,7.08252,3.86987,11.02362,5.45129
	c4.94656,1.98486,9.44385,5.54089,12.74548,7.35864l9.28973,5.11475c2.35641,1.29736,4.38449,2.65601,6.66794,3.99182
	l2.91971,1.70813c1.40106,0.8197,2.65082,1.72522,4.20572,2.56091l9.91037,5.32642l14.04373,7.12329l10.64139,5.7511
	c7.95251,4.29785,0.50571-0.39648,8.48706,2.97668l10.71896,4.53003l1.61307,0.64001l36.92889,15.55786
	c0.49942,0.21045,0.99008,0.19324,1.72519,0.57336l1.00836,0.52136c0.52753,0.27283,1.01044,0.49939,1.58282,0.70935
	l32.74194,12.01257c0.5285,0.19385,10.78351,3.2207,11.85889,3.53577l1.75137,0.51318
	c2.60983,0.76489,24.86975,8.02417,24.53986,7.745c0.86108,0.72852,4.32819,1.47937,5.90839,2.11426l1.15771,0.46509
	c-0.12433-0.04993,2.95264,0.55273,4.91162,1.33008l0.97614,0.38733c1.3775,0.54663,6.66443,2.61682,7.52722,0.85449
	c0.52631-1.07507-6.60901-3.55225-5.33405-1.82703c-0.47736-0.59155-0.69763-0.99573-1.24957-0.96973l-2.04736,0.09668
	c2.32605-0.10986-6.1712-1.45239-4.66492-2.64136c0.65265-0.53638,1.2207-0.52527,1.59857-0.09009
	c1.50726,1.73633,4.07648,0.11511,4.78796,0.94116c1.21454,1.41016,9.08582,1.99792,12.68561,2.77588l2.00055,0.43225
	c1.99176,0.43042,0.77362,0.16907,2.7149,0.53406l2.05591,0.38647c1.51868,0.28552,8.28253,1.52148,8.12042,1.43994
	c1.62933,0.81946-0.51471,0.32275-0.48737,0.63611c0.04138,0.47449,0.59192,2.26404-0.89886,1.07776
	c1.17114,0.77344,1.87238,1.11536,2.06641,1.17505l1.75787,0.54004c6.8114,2.09253,28.74713,4.86743,28.52185,4.77783
	c1.60303,0.63708,3.26709,0.1344,5.0965,0.48596l4.75067,0.91309c6.46887,1.24341,34.65924,3.15686,36.2865,3.51282
	c4.4491,0.97339,9.70184-0.10217,12.46204,0.53149c3.87567,0.88977-2.39343,0.76294,3.12634,0.76416l1.9231,0.00049l1.9201,0.00037
	h1.91998H669.12h1.91998h1.92004H674.88h1.91998h1.91998h1.92004H682.56h1.91998l1.9201-0.00024l1.92322-0.00085
	c7.35504-0.00293-1.19135-0.91101,4.8078-0.948l1.90967-0.01184h1.91846l1.90967,0.01184
	c5.99371,0.03699-2.54395,0.94641,4.80774,0.948l1.92169,0.00049l1.90204-0.00378c2.5376-0.00513,5.32819-0.41089,4.81964,0.96436
	h1.91998C714.0816,1317.05688,715.03534,1317.02576,716.13708,1317.08716z M1106.40002,840.96002
	c-0.26514,0-0.47998,0.2149-0.47998,0.47998s0.21484,0.47998,0.47998,0.47998c0.26501,0,0.47998-0.2149,0.47998-0.47998
	S1106.66504,840.96002,1106.40002,840.96002z M992.15997,1249.92004c-0.26508,0-0.47998,0.21484-0.47998,0.47998
	c0,0.26501,0.2149,0.47998,0.47998,0.47998c0.26514,0,0.48004-0.21497,0.48004-0.47998
	C992.64001,1250.13489,992.42511,1249.92004,992.15997,1249.92004z M930.71997,1272.95996
	c-0.26508,0-0.47998,0.21497-0.47998,0.47998c0,0.26514,0.2149,0.4801,0.47998,0.4801c0.26514,0,0.48004-0.21497,0.48004-0.4801
	C931.20001,1273.17493,930.98511,1272.95996,930.71997,1272.95996z M944.15997,1275.83997
	c-0.26508,0-0.47998,0.21497-0.47998,0.47998c0,0.26514,0.2149,0.4801,0.47998,0.4801c0.26514,0,0.48004-0.21497,0.48004-0.4801
	C944.64001,1276.05493,944.42511,1275.83997,944.15997,1275.83997z M884.64001,1288.31995
	c-0.26514,0-0.48004,0.21497-0.48004,0.4801c0,0.26501,0.2149,0.47998,0.48004,0.47998c0.26508,0,0.47998-0.21497,0.47998-0.47998
	C885.12,1288.53491,884.90509,1288.31995,884.64001,1288.31995z M603.28058,1308.18726
	c3.97034,0.53967-12.12653-1.76721-7.50378-1.32935l-6.01892-0.57007c-2.48535-0.23535-10.82294-2.86438-13.81586-1.24817
	c1.19019,0.51001,8.95087,2.22473,8.35223,1.73267c1.78821,1.46997,11.74005,1.70044,15.97601,2.37109
	c3.18787,0.50464,6.39819,0.5697,9.39978-0.08765L603.28058,1308.18726z M531.84003,1294.73621
	c-0.43292,0-0.78387,0.35095-0.78387,0.78381s0.35095,0.78381,0.78387,0.78381c0.43286,0,0.78381-0.35095,0.78381-0.78381
	S532.27289,1294.73621,531.84003,1294.73621z M574.08002,1303.37622c-0.43292,0-0.78387,0.35083-0.78387,0.78381
	c0,0.43286,0.35095,0.78381,0.78387,0.78381c0.43286,0,0.78381-0.35095,0.78381-0.78381
	C574.86383,1303.72705,574.51288,1303.37622,574.08002,1303.37622z M462.64069,837.28967
	c5.21594,0.03326,3.41098-1.04803,4.58417-1.04456l10.86166,0.03223c1.23315,0.00366,1.96008-0.92883,2.57495-0.92554
	l5.01965,0.02704c1.34634,0.00726,2.02499-1.02576,2.69751-1.01758l4.28992,0.05243c2.00635-0.099,2.00818-1.24451,0.02554-1.30255
	c-1.85791,0.20648-3.72211-0.6507-5.11786,0.13422l-1.78247,1.00232c1.95166-1.09747-13.36133,0.98468-10.63324,0.94122
	c-3.57172,0.05688-6.95978-0.34241-10.19214,0.32721c-0.70016,0.14502-1.13528,0.53448-2.20193,0.534l-31.80444-0.01465
	c-1.0939-0.00055-1.43207-0.29437-2.18655-0.50653c-3.41422-0.96021-8.28186,0.32324-10.55002-0.97424
	c-1.78949-1.02368-4.22409,0.24603-6.07642-0.60931c-3.91434-1.8075-4.29047,0.50153-6.42184-1.3819
	c0.36465,0.3222-12.64209-2.34229-12.40112-2.25684l-2.83426-1.00537l-2.87445-0.96252l-2.87354-0.97546
	c-1.97385-0.6701-9.54788-2.47845-10.60895-4.04224c1.39069,2.04956-16.5741-8.45386-22.14923-13.73724
	c-3.7153-3.52094-8.09155-6.09937-9.9679-11.10858c5.17902,5.06836,9.28888,9.7002,15.27063,13.35736
	c2.00073,1.22327,8.11371,5.23315,8.70892,5.52966l7.75217,3.86139c1.94775,0.97021,8.21756,3.42627,10.22604,4.00067
	l14.41193,4.12146c2.43359,0.69592,4.68582,1.1156,6.98257,1.47809l5.80823,0.91675l7.60864,0.95599
	c15.77493,1.98212,31.42294,1.68695,47.75775,0.67682c2.92416-0.18085,21.81143-1.91077,23.08435-2.19543l2.91251-0.65118
	l4.76434-0.51398l2.16147-0.29767l8.44507-1.05103l5.79272-0.97388l19.13373-3.2688c0.89301-0.15259,1.47394-0.37457,2.13281-0.4704
	l5.28839-0.76904c3.86304-0.56177,7.64612-1.42639,11.52515-2.11725l37.89612-6.74957l10.31158-1.66779
	c4.96564-0.80316,8.97461-1.62238,13.51837-2.28735l11.15985-1.63336c3.61688-0.52936,7.03668-1.09033,10.84833-1.67566
	l5.74799-0.88275c3.27197-0.5025,6.32111-0.76501,9.34705-1.28174l4.06683-0.6944c2.70154-0.46124,5.07404-0.54504,7.70862-0.93353
	l7.63995-1.12659c4.19537-0.61865,17.36957-1.4566,18.76074-3.00873c1.64124-1.83105,1.23633-5.46143,1.28381-8.01935
	c0.04364-2.34998,2.19037-21.97119,2.64838-26.03937l0.86469-7.68024l0.97839-8.63226l0.96533-7.68182l0.96082-7.66925
	l0.90674-6.72711l1.06311-7.67065l0.85864-5.76654l1.39203-9.65405l6.05267-35.67853l5.79437-35.9519
	c0.31696-1.96667,0.86377-3.83105,1.2356-6.07111l0.9577-5.76892c0.27118-1.63348,0.83801-3.1535,1.0946-4.74011l0.93359-5.77258
	l0.93005-4.77063c0.46741-2.39777,0.62335-4.44104,1.03326-6.78351c1.20062-6.86133,3.45813-13.31323,3.96033-20.1507
	c1.60284-21.82001,30.81873-144.40839,38.21674-171.6499l8.44824-31.1087l1.30737-4.62787l10.26282-35.46124l4.82806-19.23608
	c0.69318-2.76193,2.64563-13.29123,3.09167-16.30414l0.71539-4.83182c1.03125-6.96512,1.7547-19.76395,1.02496-26.76624
	l-0.80713-7.74463l-1.01807-6.73245l-0.97333-5.75891c-0.32526-1.92467-0.85614-3.73328-1.23999-5.52765
	c-4.88666-22.8438-12.62207-44.78415-26.92755-63.09398c-4.27832-5.47583-11.27087-12.30612-17.01068-16.14168
	c-20.33832-13.59093-45.93555-14.47961-69.37292-8.78787l-7.7652,1.88577c-5.70367,1.38513-12.93597,3.64159-18.39728,6.39941
	l-2.63068,1.32845l-12.47498,6.40842c-6.18805,3.17879-11.99628,7.62309-17.57983,12.4323l-7.25183,6.24608l-7.13757,6.25835
	l-11.51013,10.39796c-1.30621,1.17999-2.37018,2.16463-3.66663,3.46271l-41.83997,41.89369
	c-1.12354,1.12495-1.99493,1.98643-2.95679,3.05511l-10.84991,12.05463l-6.763,7.64899l-6.271,7.185l-13.98767,16.82684
	l-6.5163,7.72864c-3.43668,4.07605-4.55679,5.50394-7.71967,9.48251l-3.85818,4.85321
	c-4.25943,5.35797-8.62347,11.06879-12.50284,16.40411l-11.74368,16.15125l-5.58118,7.81802l-13.41696,20.1156
	c-4.79614,7.1907-6.88052,11.09402-11.3703,18.23938l-1.85046,2.94495l-3.91638,6.67609
	c-1.3609,2.31985-2.68744,4.3093-3.97525,6.64206l-5.23572,9.48398l-2.37064,3.98431
	c-1.70996,2.87393-2.03476,6.09064-5.03397,7.92209c1.10391-4.95081,3.978-8.38104,6.39685-12.66833l7.59479-13.46152
	l3.90308-6.69666c1.93716-3.3237,3.82993-6.27054,5.85223-9.54843l4.56665-7.40176l7.08282-10.86917l12.90213-19.61206
	c1.20047-1.82477,3.54462-4.99457,5.18668-7.28662l2.8956-4.04175l4.90216-6.46054c1.10016-1.44986,1.99249-2.6171,2.9754-3.92035
	l2.89975-3.84488l2.88449-3.83951l2.8815-3.83972l2.8826-3.83969l2.89062-3.8418c0.98502-1.30911,1.84818-2.54132,2.94095-3.87497
	l4.63202-5.65308c0.84207-1.02771,1.60837-1.63776,1.89734-2.93594c-1.48099,1.13263-2.50986,2.41098-3.73022,3.8732
	l-4.75217,5.69397l-3.87064,4.81952l-3.81229,4.77515l-2.95053,3.88809l-3.77505,4.74985l-2.93692,3.86609
	c-1.72961,2.27679-5.2637,6.9079-6.09781,8.97952c0.52026-1.29211-5.01968,6.25519-5.11624,6.39215l-1.97086,2.79596
	c-22.45438,31.85492-30.18256,43.76859-49.24612,77.55249l-7.37888,13.07663
	c-13.58362,24.07251-25.38187,48.69739-35.54535,74.59512l-3.00232,7.65021c-1.54672,3.94128-3.1644,7.56207-4.6376,11.5567
	l-6.43851,17.45825l-2.31732,6.57666l-8.03757,25.41095l-5.02817,17.00317c-0.38849,1.31372-0.3855,2.53809-0.93985,3.88995
	c-0.77347,1.88629-5.76987,24.90106-6.72583,28.76947l-3.7966,15.36328l-1.05963,5.51849l-0.84686,5.97913
	c-2.86212,20.2077-4.95163,36.47375-3.8656,57.29553l0.65393,12.53784c0.4256,8.15955,1.65744,15.93628,3.0946,23.70483
	l0.76114,4.11444c1.86139,10.06165,7.13617,25.98419,12.80838,34.2262c4.81015,6.98938,15.09625,17.24872,22.40579,21.38324
	l12.84079,7.26318l3.50845,1.36664l6.75858,2.69666c1.16064,0.46313,2.1922,0.71301,3.95752,1.33759l2.95142,1.04425
	c2.63217,0.93134,14.22736,4.14484,16.40848,4.36615l5.12253,0.51971c0.77966,0.0791,1.11588,0.70239,2.24725,0.72034
	l3.89429,0.06189c-7.05499-0.11212,17.59674,1.60419,11.74442,1.77246L462.64069,837.28967z M677.03809,837.15808
	c1.13489,0.19873,12.31641-0.23743,8.97589-3.45038c-0.44806-0.43103-1.64447-0.25116-2.49091-0.11688l-2.91486,0.46228
	c-1.99072,0.31573-3.85992-0.36298-5.39404,0.4801c-2.87793,1.58154-5.82452-0.052-7.62531,0.99237
	c-2.97424,1.72485-4.38373-0.48199-7.44849,1.31366c0.83331-0.48822-9.96185,1.25818-6.70386,0.95105l-6.07794,0.57294
	c-0.75391,0.07111-1.12262,0.87653-2.24274,0.76819c-1.93988-0.18762-3.57208-0.4256-5.18396,0.56213
	c-1.7132,1.0498-4.20996-0.40051-6.01227,0.5755c-0.61969,0.33551-5.98132,1.37122-6.93518,1.526l-23.56531,3.82349
	l-35.06427,6.19153l-5.76569,0.99396c-9.2793,1.59967-11.05408,1.8407-20.00244,4.04413
	c-15.1134,3.72156-30.12555,6.17822-45.5238,7.88428l-15.15125,1.67865l-19.42184,1.19879
	c-8.19653,0.50592-16.27469,0.30554-24.46246-0.01733l-9.8642-0.38898l-6.50122-0.54376
	c-24.4111-2.04175-61.51596-11.12152-81.12308-26.07965l-4.94586-3.77319c-6.98892-5.33179-13.23276-10.73895-18.94196-17.9259
	l-3.44543-4.33728c-2.40643-3.0293-4.29916-6.40155-6.51651-9.78741c-8.99115-13.72968-17.06723-41.43573-18.90359-57.86859
	c-0.07819-0.69958-1.59058-12.81958-1.58289-12.58057l-0.46075-14.30109c-0.02719-0.84393-0.43127-1.55438-0.44418-2.19318
	c-0.1459-7.22974-0.26855-14.32056,0.06711-21.54163c0.33475-7.20178,0.50635-19.80664,1.16476-25.31976l0.93283-7.81104
	l1.17599-11.30756c0.27243-2.61945,0.30121-5.05261,0.74728-7.45123l2.03961-10.96771
	c0.10733-0.57709,3.15656-21.54468,2.43793-19.15869c0.36865-1.22406,1.98953-2.69281,0.12726-3.83429
	c-0.38467,1.55328-0.81046,2.26501-0.94489,3.39771l-0.48193,4.06036c0.36951-3.11322-4.15945,19.78174-4.16739,19.82025
	l-1.00394,4.88361c-0.3895,1.89471-0.03372,3.82471-0.81427,5.75531c-0.75156,1.85889-2.2923,14.61847-2.60437,17.64844
	l-0.99155,9.62689l-0.96817,15.3241c-0.49179,7.78387-1.02054,27.26617-0.35657,34.81219l1.38614,15.75452l0.78967,6.35162
	c1.03299,8.30859,4.76105,23.67877,7.5332,31.62738l3.02936,8.6861c0.80725,2.31458,1.88904,4.33759,2.75107,6.43921
	c3.75726,9.16046,8.74786,17.29663,15.11664,25.13647c4.45706,5.48663,16.11682,17.1524,21.79269,21.07172l6.22092,4.29565
	c11.13968,7.6922,23.59784,13.50916,36.98529,16.854l14.43384,3.60626l13.72894,2.5863
	c2.55984,0.48224,17.427,1.97339,20.79456,2.10431c5.69513,0.22144,38.82281,0.70007,41.03516-0.07196
	c2.53732-0.8855,5.20175-0.39026,7.98862-0.71814l28.04086-3.29901l9.23419-1.29279
	c8.26324-1.15692,15.9906-2.66388,24.08844-4.17444l9.60449-1.79163c2.33099-0.43481,16.66931-2.94275,16.92181-3.05457
	c1.64502-0.72839,3.27063-0.37775,5.20544-0.81427l3.78174-0.85321l7.39429-1.23395
	c8.15692-1.36127,14.37848-2.59766,22.70013-3.99182l27.52472-4.61145c-3.14612,0.86981,12.77338-1.63055,8.021-1.18884
	l6.08502-0.56561c-11.02045,1.02435,16.87543-2.35919,6.46802-1.34369l5.99359-0.58484
	c-3.15051,0.30743,7.29889-1.41052,6.66687-0.96649c2.5412-1.78528,3.6015,0.45477,7.42279-1.33606
	C672.33533,837.46228,677.51074,838.9939,677.03809,837.15808z M550.06732,851.20831
	c2.75146-0.49707,18.49921-2.84912,18.96167-3.18811c1.68542-1.23572,4.07697,0.31024,5.74744-0.66589
	c2.10156-1.22809,20.00208-3.2312,17.96655-2.4173c0.58075-0.23224,1.03949-1.62708,2.37732-1.09851
	c2.28558,0.90314,11.03125-0.45477,13.54352-0.88263l3.83722-0.65363c1.9624-0.33423,3.79181-0.71948,5.72906-1.00031
	l6.62695-0.96051c3.46729-0.50256,2.22729,0.69885,5.22522-1.02856c-1.37036,0.78961,18.99335-2.93756,18.29425-2.86914
	l5.94458-0.58148c-1.07922,0.10553,7.08789-1.07599,7.51031-1.31165c-0.78394,0.43732,10.19897-1.22076,7.61572-0.97662
	l6.07703-0.57434c0.7453-0.0705,1.11041-0.92242,2.26917-0.7583c2.85059,0.40381,5.67688,0.30627,8.13525-1.30298
	c1.10925-0.72607,1.01233-2.85962,1.15625-4.26904c-5.22266-0.47839-10.19513,0.72339-15.75519,1.37903l-7.93231,0.93542
	c-2.68628,0.31677-5.07513,0.71356-7.42395,1.03516l-6.78552,0.92908l-6.61719,0.93054l-6.68622,0.96027
	c-4.53705,0.65161-6.25525,0.9408-10.90912,1.72931l-6.729,1.14008l-37.2113,6.93164l-27.73999,5.48761l-4.15094,0.77094
	c-2.00116,0.37164-3.73291,0.84839-5.48676,1.16132l-5.07135,0.90491l-5.53931,1.02942l-9.57123,1.90826l-5.67041,0.95667
	l-4.85211,0.92114c1.70422-0.32355-10.98676,1.54242-7.4162,1.20306l-6.017,0.5719c2.77328-0.26361-6.1095,1.12537-6.48135,1.31403
	c-2.18192,1.10724-2.17627-0.68164-7.54184,1.08447c-2.37863,0.78296-4.80255-0.55432-7.50659,0.6936
	c2.73334,1.12061,5.49905,0.07916,8.78607,0.57446c0.57642,0.08685,0.79187-0.81879,1.14713-0.87836
	c4.81357-0.80731,3.24963,0.76459,8.65985-0.93951c2.32385-0.73199,4.87161,0.40802,7.10657-0.50623
	c3.86258-1.58008,5.54227,0.09229,7.69052-1.01703c0.78372-0.40466,10.23312-1.53143,12.54056-1.9483L550.06732,851.20831z
	 M588.19006,830.86914l6.00543-0.91113c4.69299-0.71198,6.12653-0.87726,10.62524-1.67072l5.73907-1.01227l5.76868-0.93085
	c2.56873-0.41455,5.05035-0.85413,7.60522-1.20557l7.41882-1.02039c2.21686-0.30487,4.21686-0.72241,6.34979-1.0307
	l20.16815-2.91522l28.73596-3.84052c0.73529-0.09827,1.16302-0.95807,0.94421-1.22253
	c-0.14124-0.17065-0.44122-0.87732-1.16437-0.78497l-33.82202,4.31744l-12.2525,1.74335l-24.6756,3.82379
	c-4.43793,0.68774-8.23132,1.29291-12.48218,1.90564l-6.00635,0.86566l-5.52344,0.96918l-6.63135,1.01746
	c-1.33624,0.20502-16.4032,2.90607-16.39868,2.90393c-2.90106,1.3786-4.08069-0.62695-6.3645,1.17181
	c-1.16467,0.9173-2.99542-0.6485-4.52374,0.83319c0.47473,1.20258,17.53735-0.79144,19.01123-1.04364L588.19006,830.86914z
	 M510.41904,832.03192c0.55685-0.21497,8.44382-1.58533,6.43991-1.36456l4.98566-0.54919
	c-0.16827,0.01855,12.79993-2.38239,12.28461-2.32788l5.06744-0.53571c-10.85144,1.14709,16.87231-2.48938,6.46429-1.37695
	l5.04932-0.53967c-10.86475,1.16125,16.86121-2.49084,6.47144-1.38049l5.04938-0.53961
	c-10.84033,1.15845,16.92102-2.52338,6.4715-1.38556l4.99579-0.54395c-9.60822,1.0462,16.08911-2.25305,6.45703-1.36774
	l6.08984-0.55975c-2.021,0.18579,13.05603-2.50726,11.61847-1.93567c2.18292-0.86792,13.7749-2.2951,17.49695-2.85785
	l14.14734-2.13904l7.6709-0.89813l6.00287-0.86285l8.38727-1.06238l6.96442-0.91327c2.66589-0.34955,5.06116-0.60706,7.6839-0.91779
	l9.33624-1.10608l7.93677-0.88159c2.09174-0.2323,5.61456-0.37836,5.09418-2.30847c-0.36121-1.3396-7.41479,0.08923-9.57684,0.33936
	l-7.7168,0.89252l-7.66809,0.98077l-6.94409,0.97296c-2.04419,0.28644-3.8028,0.43494-5.77533,0.72894l-7.66187,1.14203
	l-6.79822,0.91974l-38.59705,6.00336c-0.64587,0.1004-13.49121,2.18988-11.66846,1.99176l-4.99585,0.54303
	c10.43127-1.13385-17.19708,2.49469-6.46173,1.37903l-5.12067,0.5321c3.13654-0.32593-4.98865,1.01251-5.49365,1.3974
	c1.0448-0.79633-16.4455,3.00323-15.3009,2.88422l-5.07159,0.5274c13.37067-1.39056-19.36847,2.84045-5.49756,1.38873
	l-5.0625,0.52985c13.3479-1.39703-19.35895,2.86066-5.49805,1.39142l-5.05341,0.53564c1.974-0.20923-5.97638,1.07837-6.47382,1.3623
	c-1.64081,0.93665-3.42963-0.59564-6.7146,0.93677c-2.14575,1.00104-4.52176-0.60303-7.67502,0.96899
	c-2.07672,1.03534-4.4989-0.57922-6.48053,0.82245c4.67038,1.11121,5.95264,0.28717,8.02231-0.33417
	C505.63556,831.81323,508.15982,832.90387,510.41904,832.03192z M696.59149,792.55328l0.67468-11.77661
	c-0.185,3.22888,1.36688-9.67163,0.96844-8.61566c1.53113-4.05743-0.04352-6.31104,0.94238-9.62347
	c0.20673-0.69452,0.78168-1.07886,0.74817-2.22253l-0.1684-5.75085c-0.03345-1.14069,0.52484-1.52716,0.74469-2.22052
	c0.72571-2.28876,0.15686-4.71399,0.22833-7.43945c0.07959-3.03125,1.4184,3.09296,0.948-7.62799
	c-0.04913-1.12036,0.67639-1.46985,0.74493-2.24316l0.61609-6.95007c-0.68335,7.70929,1.97974-15.41174,1.28986-7.50305
	l0.6087-6.97852c-0.28699,3.28986,1.36926-7.27106,0.94714-6.65344c0.34375-0.50299,1.38806-8.52319,1.30426-7.52246
	l0.65454-7.81549c0.14435-1.72357,0.91968-3.1228,0.41058-5.27087c-3.22473,1.49969-0.82172,5.03711-1.97424,7.42908
	c-0.34918,0.72473-1.48401,8.28204-1.32349,6.47241l-0.61676,6.95123c0.23419-2.63928-1.37244,8.27991-0.97699,7.60522
	c-1.72125,2.93658,0.44043,4.40259-1.2915,7.51501c-1.00366,1.80377,0.57611,3.80084-0.95978,7.60571
	c-0.76843,1.90369-0.1662,4.07489-0.23157,6.45764c-0.06891,2.5127-1.59247-2.37421-0.93945,7.62476
	c0.07318,1.12067-0.70984,1.52173-0.75629,2.21899l-0.59991,9.00519c-0.04584,0.68842-0.78601,1.08148-0.75128,2.22052
	l0.17737,5.82074c0.0174,0.57135-0.80402,0.7804-0.86444,1.13806c-0.41028,2.42755-0.15912,4.7226-0.1037,7.49652
	c0.01141,0.57385-0.80359,0.79041-0.8551,1.14374c-0.74329,5.09979,0.63812,4.20306-0.84387,9.64124
	c-0.81348,2.98517,0.4389,7.85181-1.35382,14.55951C695.29382,806.6684,696.72443,790.23334,696.59149,792.55328z
	 M700.73743,921.36365c0.09656-4.61041,0.1571-9.07104-0.08521-13.99768c-0.09399-1.91125,0.74078-3.68799,0.75281-5.31787
	l0.35876-48.57697c0.008-1.0827,0.58594-1.64532,0.66589-2.2121c0.70459-4.99872,0.07617-9.77289,0.29791-15.10376
	c-3.42725-0.1499-1.20435,9.61688-2.21179,16.05585c-0.09149,0.58472-0.75385,1.12347-0.75482,2.18188l-0.01782,19.19928
	l-0.44006,5.80334l-0.29126,28.89417c-0.07642,7.58185-0.41766,14.79462,0.15295,22.02545
	C700.85883,929.39374,698.71576,920.33978,700.73743,921.36365z M691.0257,923.6098l0.1496-50.84021l0.61542-7.82703
	c0.42377-5.38971-0.09418-17.91223,1.01202-20.47107c0.80884-1.87115,0.09662-4.08728,0.3139-6.64777
	c0.06122-0.7215-3.04272-3.72107-1.81696,6.97729c0.12836,1.12024-0.58252,1.54205-0.75958,2.20532
	c-0.78705,2.94739-0.00061,6.04614-0.22559,9.24182l-0.68073,9.66888l-0.25818,6.86676l0.00171,39.91589
	c0.00006,0.44464,1.78772,1.16681,0.67108,2.17603C690.8952,917.8349,689.17413,920.74286,691.0257,923.6098z M706.49939,780.42603
	c-0.00183-0.57349,0.66461-0.82623,0.8764-1.14587l0.21722-9.04865c1.24158,0.87726,1.19257-5.7345,0.41504-6.08264
	c-0.50012-0.224-1.46875-0.1098-1.46405,0.89807l0.0271,5.8512c0.00458,0.98206,0.26752,1.72552-0.97424,2.11902
	c0.75696,0.83948-0.86218,13.5376-0.6604,9.66943l-0.57159,10.95648c-0.03217,0.61639-1.0965,1.04742-0.76886,2.29889
	c0.24646,0.94135,0.92072,1.12518,1.53204,0.86829c1.38757-0.58307-0.65594-6.22314,1.40466-6.05042L706.49939,780.42603z
	 M694.08594,826.0791c-0.29816-0.53094-0.89026-0.71875-1.45123-0.48328c-0.59924,0.25146-0.5517,0.92914-0.49048,2.01855
	c0.05786,1.03003,0.59192,0.94189,1.24414,0.19427C693.96924,827.14294,694.4386,826.70721,694.08594,826.0791z
	 M691.62701,833.20081c-1.30206,1.83282,0.58472,2.99054,1.93097,1.10895
	C693.24585,832.1676,692.57037,832.07166,691.62701,833.20081z M701.62146,826.34998c0.11176,1.4151,0.82922,1.2785,2.11292-0.14075
	C703.99756,824.06439,701.59583,823.85474,701.62146,826.34998z M704.15637,801.59589
	c-0.53638,0.28381-0.81818,0.85712-0.26318,1.91956c0.34277,0.0636,0.58405-0.41895,1.61987-0.99762
	C705.76257,801.54498,704.68042,801.3186,704.15637,801.59589z M701.63116,832.55017
	c0.1488,2.24164,1.31085,1.94788,1.16632-0.53204C702.26233,831.0025,701.73798,831.43579,701.63116,832.55017z
	 M693.59998,813.29614c-0.43286,0-0.78381,0.35095-0.78381,0.78387c0,0.43286,0.35095,0.78381,0.78381,0.78381
	c0.43292,0,0.78387-0.35095,0.78387-0.78381C694.38385,813.64709,694.0329,813.29614,693.59998,813.29614z M703.20001,812.33618
	c-0.43292,0-0.78387,0.35089-0.78387,0.78381s0.35095,0.78381,0.78387,0.78381c0.43286,0,0.78381-0.35089,0.78381-0.78381
	S703.63287,812.33618,703.20001,812.33618z M694.56,802.73615c-0.43292,0-0.78381,0.35095-0.78381,0.78387
	c0,0.43286,0.35089,0.78381,0.78381,0.78381s0.78381-0.35095,0.78381-0.78381
	C695.34381,803.0871,694.99292,802.73615,694.56,802.73615z M722.40002,1119.53613c-0.43292,0-0.78387,0.35095-0.78387,0.78381
	c0,0.43298,0.35095,0.78394,0.78387,0.78394c0.43286,0,0.78381-0.35095,0.78381-0.78394
	C723.18384,1119.88708,722.83289,1119.53613,722.40002,1119.53613z M723.35999,1123.37622
	c-0.43286,0-0.78381,0.35083-0.78381,0.78381c0,0.43286,0.35095,0.78381,0.78381,0.78381c0.43292,0,0.78387-0.35095,0.78387-0.78381
	C724.14386,1123.72705,723.79291,1123.37622,723.35999,1123.37622z M724.32001,1126.2561
	c-0.43292,0-0.78387,0.35095-0.78387,0.78394c0,0.43286,0.35095,0.78381,0.78387,0.78381s0.78381-0.35095,0.78381-0.78381
	C725.10382,1126.60706,724.75293,1126.2561,724.32001,1126.2561z M702.23999,828.47998c-0.26508,0-0.47998,0.2149-0.47998,0.48004
	c0,0.26508,0.2149,0.47998,0.47998,0.47998c0.26514,0,0.47998-0.2149,0.47998-0.47998
	C702.71997,828.69489,702.50513,828.47998,702.23999,828.47998z M692.64001,829.44c-0.26514,0-0.48004,0.2149-0.48004,0.47998
	c0,0.26514,0.2149,0.48004,0.48004,0.48004c0.26508,0,0.47998-0.2149,0.47998-0.48004
	C693.12,829.65491,692.90509,829.44,692.64001,829.44z M739.67999,1184.64001c-0.26508,0-0.47998,0.21484-0.47998,0.47998
	s0.2149,0.47998,0.47998,0.47998s0.47998-0.21484,0.47998-0.47998S739.94507,1184.64001,739.67999,1184.64001z
	 M740.64001,1186.56006c-0.26514,0-0.48004,0.21484-0.48004,0.47998c0,0.26501,0.2149,0.47998,0.48004,0.47998
	c0.26508,0,0.47998-0.21497,0.47998-0.47998C741.12,1186.7749,740.90509,1186.56006,740.64001,1186.56006z M406.26651,437.95361
	c1.15387-0.82623,0.5679-1.34207-0.50842-0.6442l-3.47424,7.2739c-0.42776,0.8956-1.91232,1.5249-0.45401,2.77396
	C403.35361,443.59052,405.17249,441.2821,406.26651,437.95361z M326.88,764.33618c-0.43289,0-0.78384,0.35089-0.78384,0.78381
	s0.35095,0.78381,0.78384,0.78381s0.78384-0.35089,0.78384-0.78381S327.3129,764.33618,326.88,764.33618z M339.85764,795.85767
	c0.24048,1.07727,0.80746,1.64423,1.88474,1.8847C341.50189,796.6651,340.93491,796.09808,339.85764,795.85767z M336.9845,792.02454
	c0.60144,1.42401,1.40695,2.22955,2.83099,2.83093C339.21408,793.43146,338.40857,792.62592,336.9845,792.02454z M334.56,786.23999
	c-0.26511,0-0.48001,0.2149-0.48001,0.47998c0,0.26514,0.2149,0.48004,0.48001,0.48004s0.48001-0.2149,0.48001-0.48004
	C335.04001,786.4549,334.8251,786.23999,334.56,786.23999z M336.48001,790.08002c-0.26511,0-0.48001,0.2149-0.48001,0.47998
	s0.2149,0.47998,0.48001,0.47998c0.26508,0,0.47998-0.2149,0.47998-0.47998S336.74509,790.08002,336.48001,790.08002z
	 M335.51999,788.15997c-0.26508,0-0.47998,0.2149-0.47998,0.48004c0,0.26508,0.2149,0.47998,0.47998,0.47998
	c0.26511,0,0.48001-0.2149,0.48001-0.47998C336,788.37488,335.7851,788.15997,335.51999,788.15997z"/>
</svg>
